<svg xmlns="http://www.w3.org/2000/svg" xmlns:xlink="http://www.w3.org/1999/xlink" viewBox="0 0 149.888 218.86">
  <defs>
    <style>
      .cls-1 {
        fill: none;
      }

      .cls-2 {
        clip-path: url(#clip-path);
      }

      .cls-3 {
        fill: #3b3b3a;
      }

      .cls-10, .cls-11, .cls-3, .cls-4, .cls-5, .cls-6, .cls-7, .cls-8, .cls-9 {
        fill-rule: evenodd;
      }

      .cls-5 {
        fill: #597399;
      }

      .cls-6 {
        fill: #f6f4f4;
      }

      .cls-7 {
        fill: #fabf0a;
      }

      .cls-8 {
        fill: #fff;
      }

      .cls-9 {
        fill: #575656;
      }

      .cls-10 {
        fill: #878786;
      }

      .cls-11 {
        fill: #f39d9c;
      }
    </style>
    <clipPath id="clip-path">
      <rect class="cls-1" width="149.887" height="218.86"/>
    </clipPath>
  </defs>
  <g id="Repeat_Grid_1" data-name="Repeat Grid 1" class="cls-2">
    <g id="Group_9" data-name="Group 9" transform="translate(-0.045 0.008)">
      <path id="Path_58" data-name="Path 58" class="cls-3" d="M70.988,41c30.209,0,54.674,34.039,54.674,76.161,0,25.316-14.254,49.356-24.678,67.864-7.446,13.4-10.85,18.508-17.658,18.721-7.02.425-10.212-5.531-13.828-18.3-.638-2.127-2.127-2.34-4.468-2.127-2.34,0-3.829,0-4.468,2.127-3.617,12.764-6.808,18.721-13.828,18.3-6.808-.425-10.212-5.319-17.658-18.721C18.866,166.517,4.4,142.478,4.4,117.161,4.613,75.039,29.078,41,59.287,41a52.16,52.16,0,0,1,5.744.425A29.1,29.1,0,0,1,70.988,41Z" transform="translate(4.91 46.233)"/>
      <path id="Path_59" data-name="Path 59" class="cls-4" d="M71.213,40.7c15.317,0,29.146,8.722,39.144,22.551s16.168,33.188,16.168,54.249c0,24.04-12.764,47.016-22.976,65.1-.638,1.276-1.489,2.553-1.7,3.191-3.829,6.808-6.382,11.488-9.148,14.466-2.766,3.191-5.319,4.468-8.935,4.68s-6.382-1.276-8.722-4.468C72.915,197.49,71,192.6,69.3,186.215a1.866,1.866,0,0,0-1.276-1.489,8.767,8.767,0,0,0-2.553-.213h0a8.767,8.767,0,0,0-2.553.213,1.866,1.866,0,0,0-1.276,1.489c-1.915,6.382-3.617,11.063-5.744,14.254-2.34,3.191-5.106,4.68-8.722,4.468a11.405,11.405,0,0,1-8.935-4.68c-2.553-2.978-5.319-7.659-9.148-14.466a32.927,32.927,0,0,1-1.7-3.191C16.964,164.515,4.2,141.539,4.2,117.5c0-21.274,6.169-40.421,16.168-54.249C30.367,49.21,44.2,40.7,59.513,40.7a14.045,14.045,0,0,1,2.978.213c1.064,0,1.915.213,2.766.213a12.131,12.131,0,0,1,2.766-.213,17.2,17.2,0,0,1,3.191-.213Zm38.293,23.189c-9.786-13.615-23.4-22.125-38.293-22.125H68.448c-.851,0-1.915.213-2.766.213h-.213a12.131,12.131,0,0,0-2.766-.213H59.938c-14.892,0-28.507,8.51-38.293,22.125C11.433,77.717,5.476,96.651,5.476,117.5c0,23.614,12.764,46.378,22.763,64.461.425.851.851,1.7,1.7,3.191,3.829,6.808,6.382,11.275,8.935,14.254,2.553,2.766,4.893,4.042,8.084,4.255a7.949,7.949,0,0,0,7.659-4.042c2.127-2.978,3.829-7.659,5.531-13.828a3.643,3.643,0,0,1,1.915-2.34,4.675,4.675,0,0,1,2.978-.213,12.173,12.173,0,0,1,2.978.213,3.134,3.134,0,0,1,1.915,2.34c1.7,6.382,3.4,10.85,5.531,13.828a8.787,8.787,0,0,0,7.659,4.042,10.962,10.962,0,0,0,8.084-4.255c2.553-2.978,5.319-7.446,8.935-14.254.851-1.489,1.276-2.34,1.7-3.191,10-17.87,22.763-40.634,22.763-64.461C125.25,96.651,119.293,77.717,109.507,63.889Z" transform="translate(4.685 45.895)"/>
      <path id="Path_60" data-name="Path 60" class="cls-5" d="M90.41,48.515h0L56.8,108.933,15.1,49.366A35.328,35.328,0,0,1,18.078,46.6Z" transform="translate(16.973 52.547)"/>
      <path id="Path_61" data-name="Path 61" class="cls-4" d="M91.471,48.653a.4.4,0,0,1,0,.638h0L57.646,109.71c-.213.213-.425.425-.851.213l-.213-.213-41.7-59.568a.647.647,0,0,1,0-.851L16.374,47.8a9.829,9.829,0,0,0,1.489-1.489c.213,0,.213-.213.425-.213L90.62,48.227c.425.213.638.425.851.425ZM57.22,108.433,89.769,49.717,18.5,47.589l-1.276,1.276-1.064,1.064Z" transform="translate(16.551 51.983)"/>
      <path id="Path_62" data-name="Path 62" class="cls-4" d="M46.594,86.547,40,98.674l-6.808-9.786,3.191-19.359L30,56.338,50,55.7,42.764,69.528Z" transform="translate(33.772 62.806)"/>
      <path id="Path_63" data-name="Path 63" class="cls-4" d="M47.5,87.424,40.7,99.337c-.213.213-.425.425-.851.213l-.213-.213-6.808-9.786c0-.213-.213-.213,0-.425h0l3.191-19.147-6.169-13.19c-.213-.213,0-.638.213-.851h.213l20-.638a.564.564,0,0,1,.638.638v.213L43.675,69.766,47.5,86.573v.851ZM40.271,98.061,46.441,87,42.611,70.192h0v-.425l6.808-12.977-18.083.425,5.957,12.552v.425L34.1,89.339Z" transform="translate(33.5 62.355)"/>
      <path id="Path_64" data-name="Path 64" class="cls-6" d="M59.251,113.2c-4.042,6.382-7.233,9.148-12.126,9.361s-7.871-2.553-10.424-8.51C54.145,114.476,59.251,113.2,59.251,113.2Z" transform="translate(41.326 127.632)"/>
      <path id="Path_65" data-name="Path 65" class="cls-4" d="M60.174,113.864c-2.127,3.191-3.829,5.531-5.957,7.02a12.06,12.06,0,0,1-6.808,2.553,8.355,8.355,0,0,1-6.382-2.127,19.914,19.914,0,0,1-4.68-6.808c-.213-.213,0-.638.213-.851h.213c5.957.213,10.424.213,13.615,0,6.595-.213,8.722-.851,8.722-.851.425,0,.638,0,.851.425.425.425.213.638.213.638Zm-6.595,6.169a22.872,22.872,0,0,0,4.893-5.744q-1.915.319-7.659.638a125.739,125.739,0,0,1-12.764,0,13.222,13.222,0,0,0,3.829,5.319,7.463,7.463,0,0,0,5.744,1.7A7.782,7.782,0,0,0,53.579,120.033Z" transform="translate(40.828 127.181)"/>
      <path id="Path_66" data-name="Path 66" class="cls-6" d="M18.7,113.2c4.042,6.382,7.233,9.148,12.126,9.361s7.871-2.553,10.424-8.51C23.593,114.476,18.7,113.2,18.7,113.2Z" transform="translate(21.032 127.632)"/>
      <path id="Path_67" data-name="Path 67" class="cls-4" d="M20.4,114.389a22.873,22.873,0,0,0,4.893,5.744,8.549,8.549,0,0,0,5.957,2.127,7.732,7.732,0,0,0,5.744-1.7,14.918,14.918,0,0,0,3.829-5.319,125.325,125.325,0,0,1-12.764,0c-4.042-.425-6.382-.638-7.659-.851Zm4.042,6.595a29.866,29.866,0,0,1-5.957-7.02.4.4,0,0,1,0-.638c0-.425.425-.425.851-.425,0,0,2.127.638,8.722.851,3.4.213,7.871.213,13.615,0h.213c.213.213.425.425.213.851a16.768,16.768,0,0,1-4.68,6.808,9.644,9.644,0,0,1-6.382,2.127A12,12,0,0,1,24.441,120.984Z" transform="translate(20.609 127.294)"/>
      <path id="Path_68" data-name="Path 68" class="cls-3" d="M59.177,55.1S88.11,68.29,87.259,90.628c-.638,22.338-19.147,29.146-23.614,28.72S49.817,111.9,59.6,96.585C69.6,81.054,42.371,85.1,59.177,55.1Z" transform="translate(60.333 62.13)"/>
      <path id="Path_69" data-name="Path 69" class="cls-4" d="M58.383,56.01c-.213-.213-.425-.425-.213-.851.213-.213.425-.425.851-.213,0,0,29.146,13.19,28.507,35.953a14.045,14.045,0,0,1-.213,2.978,30.4,30.4,0,0,1-10.85,20.849c-5.106,4.042-10.424,5.744-12.977,5.744h-.425a10.9,10.9,0,0,1-3.829-1.489,10.774,10.774,0,0,1-3.829-4.255,12.27,12.27,0,0,1-1.276-7.02A27.9,27.9,0,0,1,58.6,96.644a11.267,11.267,0,0,0,2.127-5.957,7.917,7.917,0,0,0-1.489-4.255.62.62,0,1,1,1.064-.638A8.031,8.031,0,0,1,62,90.687a11.823,11.823,0,0,1-2.34,6.595A28.2,28.2,0,0,0,55.4,107.707a11.891,11.891,0,0,0,1.064,6.382,10.045,10.045,0,0,0,3.4,3.829,7.7,7.7,0,0,0,3.191,1.276h.213c2.34,0,7.233-1.489,12.126-5.319a28.359,28.359,0,0,0,10.212-20c0-.851.213-1.915.213-2.766C86.89,68.775,58.383,56.01,58.383,56.01Z" transform="translate(60.914 61.858)"/>
      <path id="Path_70" data-name="Path 70" class="cls-3" d="M20.512,55.1S-4.591,74.459,1.153,96.159C6.9,117.646,26.469,120.2,30.724,118.71s11.7-10.424-1.276-23.189C16.257,82.969,43.7,80.416,20.512,55.1Z" transform="translate(0.286 62.13)"/>
      <path id="Path_71" data-name="Path 71" class="cls-4" d="M20.373,54.985a.6.6,0,0,1,.851.851S-3.454,74.982,2.077,96.256c.213.851.638,1.915.851,2.766,3.191,9.148,8.935,14.254,14.679,17.019,5.531,2.766,10.85,2.978,12.977,2.553H30.8a7.24,7.24,0,0,0,2.766-1.915,11.233,11.233,0,0,0,2.553-4.468,11.965,11.965,0,0,0-.425-6.595,24.752,24.752,0,0,0-6.382-9.148c-2.553-2.553-3.617-4.68-3.829-6.808a9.346,9.346,0,0,1,1.489-5.744c.213-.213.425-.425.851-.213.213.213.425.425.213.851a9.129,9.129,0,0,0-1.276,5.106c.213,1.7,1.064,3.617,3.617,5.957,3.617,3.617,5.744,6.808,6.808,9.786a12.283,12.283,0,0,1,.425,7.233,8.53,8.53,0,0,1-2.766,4.893,10.867,10.867,0,0,1-3.4,2.34H31.01c-2.34.638-8.084.425-13.828-2.553-5.744-2.766-11.913-8.3-15.317-17.658-.213-.851-.638-1.915-.851-2.766C-5.156,74.557,20.16,54.985,20.373,54.985Z" transform="translate(0 61.82)"/>
      <path id="Path_72" data-name="Path 72" class="cls-5" d="M77.613,91.721c-5.531,5.531-12.339,7.659-14.892,7.233-4.468-.425-13.828-7.446-4.042-22.763A23.252,23.252,0,0,0,60.381,73C68.252,75.34,74.635,82.361,77.613,91.721Z" transform="translate(61.256 82.31)"/>
      <path id="Path_73" data-name="Path 73" class="cls-4" d="M78.381,92.485A27.745,27.745,0,0,1,70.722,97.8a18.033,18.033,0,0,1-7.659,2.127,10.9,10.9,0,0,1-3.829-1.489A10.774,10.774,0,0,1,55.4,94.187a12.27,12.27,0,0,1-1.276-7.02A27.9,27.9,0,0,1,58.6,76.1a12.2,12.2,0,0,0,.851-1.489c.213-.425.425-1.064.638-1.489.213-.213.425-.425.638-.425A22.484,22.484,0,0,1,71.36,79.295a31.8,31.8,0,0,1,7.02,12.339c.213.638.213.851,0,.851ZM70.3,96.952a28.057,28.057,0,0,0,7.02-4.893,31.947,31.947,0,0,0-6.595-11.488,21.263,21.263,0,0,0-9.573-6.17c-.213.425-.213.638-.425,1.064a7.463,7.463,0,0,1-1.064,1.7A28.2,28.2,0,0,0,55.4,87.592a11.891,11.891,0,0,0,1.064,6.382,10.045,10.045,0,0,0,3.4,3.829,7.7,7.7,0,0,0,3.191,1.276A18.356,18.356,0,0,0,70.3,96.952Z" transform="translate(60.914 81.972)"/>
      <path id="Path_74" data-name="Path 74" class="cls-5" d="M7,95.038c6.808,4.255,13.828,4.468,16.168,3.617,4.255-1.489,11.7-10.424-1.276-23.189a13.487,13.487,0,0,1-2.34-2.766C12.319,76.742,7.851,85.252,7,95.038Z" transform="translate(7.841 81.972)"/>
      <path id="Path_75" data-name="Path 75" class="cls-4" d="M7.976,95.1a29.129,29.129,0,0,0,7.871,3.191,14.749,14.749,0,0,0,7.446.213,7.24,7.24,0,0,0,2.766-1.915,11.233,11.233,0,0,0,2.553-4.468,11.965,11.965,0,0,0-.425-6.595A24.752,24.752,0,0,0,21.8,76.376a9.253,9.253,0,0,1-1.276-1.489c-.213-.213-.425-.638-.638-.851a21.17,21.17,0,0,0-7.871,8.3A27.412,27.412,0,0,0,7.976,95.1Zm7.659,4.255a28.306,28.306,0,0,1-8.51-3.617c-.213-.213-.425-.425-.425-.638a30.955,30.955,0,0,1,4.042-13.615,22.07,22.07,0,0,1,8.722-8.935c.213-.213.638,0,.851.213.213.425.638.851.851,1.276l1.276,1.276c3.617,3.617,5.744,6.808,6.808,9.786a12.283,12.283,0,0,1,.425,7.233,8.53,8.53,0,0,1-2.766,4.893,10.867,10.867,0,0,1-3.4,2.34C22.23,100.2,19.252,100.2,15.635,99.352Z" transform="translate(7.503 81.7)"/>
      <path id="Path_76" data-name="Path 76" class="cls-7" d="M72.475,70.713l-15.956.638H39.5V78.8h1.064V72.415H56.732c5.319,0,10.637-.213,16.168-.638.213,2.34.425,4.893.425,7.233s-.213,4.893-.425,7.233c-4.255.213-8.51.213-12.764.425H47.159c-.851.851-1.915,1.489-2.766,2.34v-2.34H43.329v4.468c1.489-1.064,2.766-2.34,4.255-3.4H60.349c4.255,0,8.51-.213,12.764-.213h1.064c.213-2.553.425-5.319.425-7.871a48.832,48.832,0,0,0-.425-7.871c0-.425-.213-.851-.213-1.276A4.154,4.154,0,0,1,72.475,70.713Z" transform="translate(44.482 79.492)"/>
      <g id="Group_7" data-name="Group 7" transform="translate(87.386 154.672)">
        <path id="Path_77" data-name="Path 77" class="cls-8" d="M45.342,73.338c-.213-.213-.425-.425-.638-.425a1.279,1.279,0,0,0-.851-.213H41.3v6.808h1.276V76.955h1.276c.425,0,.638,0,.851-.213s.425-.213.638-.425.425-.425.425-.638.213-.425.213-.851a1.608,1.608,0,0,0-.213-.851c-.213-.213-.213-.638-.425-.638Zm-.851,1.7h0l-.213.213-.213.213H42.576v-1.7h1.7a.208.208,0,0,1,.213.213l.213.213v.425C44.491,74.827,44.491,74.827,44.491,75.04Z" transform="translate(-40.875 -72.7)"/>
        <path id="Path_78" data-name="Path 78" class="cls-8" d="M48.58,78.544v-1.7c0-.213,0-.213-.213-.425,0-.213-.213-.213-.213-.425h0c.213-.213.213-.425.425-.425a1.279,1.279,0,0,0,.213-.851.782.782,0,0,0-.213-.638c0-.213-.213-.425-.425-.638s-.425-.425-.638-.425a1.279,1.279,0,0,0-.851-.213H43.9v6.808h1.276V77.055h1.915a.208.208,0,0,1,.213.213.208.208,0,0,0,.213.213v1.915a.208.208,0,0,0,.213.213v.213h1.489c0-.213-.213-.213-.213-.425-.425-.638-.425-.638-.425-.851Zm-1.489-3.617h0a.208.208,0,0,1-.213.213l-.213.213H44.751v-1.7h1.915a.208.208,0,0,1,.213.213l.213.213v.851Z" transform="translate(-37.943 -72.587)"/>
        <path id="Path_79" data-name="Path 79" class="cls-8" d="M41.951,77.364c-.213-.425-.213-.851-.425-1.064H41.1V78h.213V76.938c.213.425.213.638.425,1.064h.213c.213-.425.213-.638.425-1.064V78h.213V76.3h-.425A.935.935,0,0,1,41.951,77.364Z" transform="translate(-41.1 -68.641)"/>
        <path id="Path_80" data-name="Path 80" class="cls-8" d="M43.8,77.464h0v-.851l-.213-.213h-.851l-.213.213v.213h.213v-.213H42.1v.851h1.276c.638.213.638.213.425,0Zm-.213,0h0c-.213.213-.213.213-.425.213h0c.213-.425.213-.425.425-.213Z" transform="translate(-39.973 -68.529)"/>
        <path id="Path_81" data-name="Path 81" class="cls-8" d="M44.351,76.713h0a.782.782,0,0,0-.638-.213H43.5v1.7h.213v-.425h.638a.208.208,0,0,0,.213-.213.208.208,0,0,1,.213-.213v-.213l-.425-.425Zm-.213.425h0a.659.659,0,0,1-.425.213h0V76.5h.425v.213c0,.213,0,.213,0,.425Z" transform="translate(-38.394 -68.416)"/>
        <path id="Path_82" data-name="Path 82" class="cls-8" d="M44.713,77.138V76.5H44.5v1.276h.425c.213-.213.213-.425.425-.638v.638h.213V76.5h-.425C45.138,76.713,44.925,76.925,44.713,77.138Z" transform="translate(-37.267 -68.416)"/>
        <path id="Path_83" data-name="Path 83" class="cls-8" d="M45.713,77.138V76.5H45.5v1.276h.425c.213-.213.213-.425.425-.638v.638h.213V76.5h-.425C46.138,76.713,45.925,76.925,45.713,77.138Z" transform="translate(-36.139 -68.416)"/>
        <path id="Path_84" data-name="Path 84" class="cls-8" d="M48.789,77.576h-.425V76.3h-.425v1.276h-.425V76.3H47.3V78h1.915V76.3H49A2.7,2.7,0,0,0,48.789,77.576Z" transform="translate(-34.11 -68.641)"/>
        <path id="Path_85" data-name="Path 85" class="cls-8" d="M50.115,77.464h0v-.851L49.9,76.4h-.851l-.213.213v.213h.213v-.213h-.638l-.213.213v.638h1.276c.851.213.851.213.638,0Zm-.213-.213h0c-.213.213-.213.213-.425.213h0c.213-.213.213-.213.425-.213Z" transform="translate(-33.095 -68.529)"/>
        <path id="Path_86" data-name="Path 86" class="cls-8" d="M50.876,76.5h-.425c0,.213-.213.213-.213.425,0-.213-.213-.213-.213-.425H49.6c.213.213.213.425.425.638-.213.213-.425.425-.425.638h.425c0-.213.213-.213.213-.425,0,.213.213.213.213.425h.425c-.213-.213-.213-.425-.425-.638C50.664,76.713,50.664,76.5,50.876,76.5Z" transform="translate(-31.517 -68.416)"/>
        <path id="Path_87" data-name="Path 87" class="cls-8" d="M51.664,76.613h0a1.646,1.646,0,0,0-.638-.213.208.208,0,0,0-.213.213.208.208,0,0,1-.213.213v.638a.208.208,0,0,1,.213.213h.425a.208.208,0,0,0,.213-.213.208.208,0,0,1,.213-.213v-.213c.213,0,.213-.213,0-.425Zm-.213.638h0c-.213.213-.213.213-.425.213h0v-.851h.425v.638Z" transform="translate(-30.39 -68.529)"/>
        <path id="Path_88" data-name="Path 88" class="cls-8" d="M52.551,76.925h0a.208.208,0,0,1,.213-.213V76.5H51.7v1.276h1.064v-.425a.743.743,0,0,0-.213-.425Zm-.638-.425h.213c0,.213,0,.213-.213,0Zm.425.638h-.425v-.213c.213,0,.213,0,.425.213Z" transform="translate(-29.149 -68.416)"/>
        <path id="Path_89" data-name="Path 89" class="cls-8" d="M53.664,76.513h0a1.646,1.646,0,0,0-.638-.213.208.208,0,0,0-.213.213.208.208,0,0,1-.213.213v.638a.208.208,0,0,1,.213.213h.425a.208.208,0,0,0,.213-.213.208.208,0,0,1,.213-.213v-.213c.213,0,.213,0,0-.425Zm-.213.638h0c-.213.213-.213.213-.425.213h0v-.851h.425v.638Z" transform="translate(-28.135 -68.641)"/>
        <path id="Path_90" data-name="Path 90" class="cls-8" d="M54.225,76.313h0c-.213,0-.213-.213,0,0A.659.659,0,0,0,53.8,76.1h0v.425h.638c-.213,0,0,0-.213-.213.213.213.213,0,.213,0V76.1h0a.208.208,0,0,0-.213.213Z" transform="translate(-26.782 -68.867)"/>
        <path id="Path_91" data-name="Path 91" class="cls-8" d="M54.338,76.3c-.213.213-.213.425-.425.851v-.638H53.7v1.276h.425c.213-.213.213-.425.425-.851v.638h.213V76.3Z" transform="translate(-26.895 -68.641)"/>
        <path id="Path_92" data-name="Path 92" class="cls-8" d="M47.564,74.2H46.5v.638h1.064Z" transform="translate(-35.012 -71.009)"/>
      </g>
      <g id="Group_8" data-name="Group 8" transform="translate(101.002 156.8)">
        <path id="Path_93" data-name="Path 93" class="cls-8" d="M48.776,75.176V75.6h-.425v-.213h0c-.213.213-.213.213-.425.213-.425,0-.425-.213-.425-.425,0-.425.425-.638.851-.638h0a.208.208,0,0,0-.213-.213c-.213,0-.425,0-.425.213v-.425a2.143,2.143,0,0,1,.638-.213c.638,0,.638.213.638.638a.782.782,0,0,0-.213.638Zm-.638-.425h0c-.213,0-.425,0-.425.213a.208.208,0,0,0,.213.213.743.743,0,0,0,.213-.425Z" transform="translate(-47.5 -73.475)"/>
        <path id="Path_94" data-name="Path 94" class="cls-8" d="M49.476,73.9v.425h-.638v1.064H48.2V73.9Z" transform="translate(-46.711 -73.475)"/>
        <path id="Path_95" data-name="Path 95" class="cls-8" d="M49.438,74.851c0,.213.213.213.425.213h.425v.425c-.213,0-.425.213-.638.213-.638,0-.851-.213-.851-.851A.779.779,0,0,1,49.651,74c.425,0,.638.425.638.851v.213a1.279,1.279,0,0,0-.851-.213Zm.425-.426h0a.213.213,0,0,0-.425,0Z" transform="translate(-46.034 -73.362)"/>
        <path id="Path_96" data-name="Path 96" class="cls-8" d="M50.238,73.9v.638h.425V73.9H51.3v1.489h-.638v-.638h-.425v.638H49.6V73.9Z" transform="translate(-45.132 -73.475)"/>
        <path id="Path_97" data-name="Path 97" class="cls-8" d="M51.989,73.8v.425h-.425v1.064h-.638V74.225H50.5V73.8A1.8,1.8,0,0,0,51.989,73.8Z" transform="translate(-44.118 -73.587)"/>
        <path id="Path_98" data-name="Path 98" class="cls-8" d="M52.476,75.5h-.425a.851.851,0,0,1,0-1.7h.425v.425h-.213a.425.425,0,1,0,0,.851h.213Z" transform="translate(-43.329 -73.587)"/>
        <path id="Path_99" data-name="Path 99" class="cls-8" d="M53.389,73.8v.425h-.425v1.064h-.638V74.225H51.9V73.8Z" transform="translate(-42.539 -73.587)"/>
        <path id="Path_100" data-name="Path 100" class="cls-8" d="M52.813,73.8h.638c.213,0,.851,0,.851.425,0,.213-.213.213-.425.425h0a.458.458,0,0,1,.425.425c0,.425-.638.425-1.064.638H52.6a6.563,6.563,0,0,0,.213-1.915Zm.425,1.276h0c.213,0,.425,0,.425-.213a.208.208,0,0,0-.213-.213h-.213c0,.213,0,.213,0,.425Zm0-.638h0c.213,0,.425,0,.425-.213a.208.208,0,0,0-.213-.213h-.213C53.238,74.225,53.238,74.225,53.238,74.438Z" transform="translate(-41.75 -73.587)"/>
        <path id="Path_101" data-name="Path 101" class="cls-8" d="M54.351,75.4a.779.779,0,0,1-.851-.851.915.915,0,0,1,.851-.851.851.851,0,1,1,0,1.7Zm0-.425h0c.213,0,.213-.213.213-.425s0-.425-.213-.425-.213.213-.213.425,0,.425.213.425Z" transform="translate(-40.736 -73.7)"/>
      </g>
      <path id="Path_102" data-name="Path 102" class="cls-6" d="M74.458,92.57c-4.68,3.617-9.573,4.893-11.7,4.68C58.289,96.825,48.929,89.8,58.5,74.7,65.735,77.04,71.692,83.848,74.458,92.57Z" transform="translate(61.221 84.227)"/>
      <path id="Path_103" data-name="Path 103" class="cls-4" d="M74.964,93.593A25.783,25.783,0,0,1,68.795,97a15.537,15.537,0,0,1-5.744,1.276,10.041,10.041,0,0,1-3.617-1.489A9.412,9.412,0,0,1,55.6,92.53,12.657,12.657,0,0,1,54.328,85.3c.213-2.978,1.489-6.595,4.255-10.637.213-.213.425-.425.638-.213a23.393,23.393,0,0,1,9.786,6.808,32.926,32.926,0,0,1,6.595,11.7c-.425.213-.425.426-.638.638Zm-6.808,2.34A26.676,26.676,0,0,0,73.9,92.742a33.631,33.631,0,0,0-6.169-10.85,21.95,21.95,0,0,0-8.722-6.169,26.266,26.266,0,0,0-3.829,9.786,11.891,11.891,0,0,0,1.064,6.382,10.046,10.046,0,0,0,3.4,3.829A12.443,12.443,0,0,0,62.838,97,14.538,14.538,0,0,0,68.156,95.934Z" transform="translate(61.14 83.842)"/>
      <path id="Path_104" data-name="Path 104" class="cls-8" d="M8.7,95.374c5.531,2.34,10.424,2.553,12.339,1.7,4.255-1.489,11.7-10.424-1.064-22.976C13.806,78.355,9.551,86.226,8.7,95.374Z" transform="translate(9.758 83.551)"/>
      <path id="Path_105" data-name="Path 105" class="cls-4" d="M9.564,95.146a24.5,24.5,0,0,0,6.169,1.7,14.423,14.423,0,0,0,5.319,0,5.462,5.462,0,0,0,2.766-1.915,9.19,9.19,0,0,0,2.553-4.468,11.965,11.965,0,0,0-.425-6.595,23.546,23.546,0,0,0-5.957-8.722,20.052,20.052,0,0,0-7.02,8.084,42.92,42.92,0,0,0-3.4,11.913Zm6.169,2.978A21.986,21.986,0,0,1,8.925,96.21c-.213,0-.425-.425-.425-.638a34.339,34.339,0,0,1,3.617-12.764,22.416,22.416,0,0,1,7.871-8.722.647.647,0,0,1,.851,0,28.154,28.154,0,0,1,6.595,9.361,10.786,10.786,0,0,1,.425,7.233,11.773,11.773,0,0,1-2.766,5.106A8.29,8.29,0,0,1,21.9,97.912,14.265,14.265,0,0,1,15.733,98.124Z" transform="translate(9.533 83.353)"/>
      <path id="Path_106" data-name="Path 106" class="cls-4" d="M107.995,96.61a.673.673,0,0,1,.425,1.276L75.658,108.524H75.02L60.979,97.461C58.852,99.588,48,109.587,45.662,110.225c-1.7.425-10.85,0-20-1.915-5.531-1.276-11.275-3.191-15.1-5.957-.213-.213-.425-.638-.213-.851s.638-.425.851-.213c3.617,2.553,9.148,4.468,14.679,5.744,8.935,1.915,17.87,2.34,19.359,1.915,2.34-.638,14.679-12.339,15.317-12.764a.647.647,0,0,1,.851,0l14.041,11.063Z" transform="translate(11.515 108.269)"/>
      <path id="Path_107" data-name="Path 107" class="cls-9" d="M18.378,48.2,15.4,71.814l20.423,7.659Z" transform="translate(17.312 54.351)"/>
      <path id="Path_108" data-name="Path 108" class="cls-4" d="M19.142,50.387,16.376,71.874l18.508,6.808L19.142,50.387ZM15.1,72.086l2.978-23.614a.743.743,0,0,1,.213-.425c.213-.213.638,0,.851.213L36.587,79.532c0,.213.213.425,0,.638a1.105,1.105,0,0,1-.851.425L15.313,72.937h0C15.313,72.512,15.1,72.3,15.1,72.086Z" transform="translate(16.973 54.078)"/>
      <path id="Path_109" data-name="Path 109" class="cls-9" d="M57.889,56.4l3.617,21.274L34.7,97.885Z" transform="translate(39.071 63.595)"/>
      <path id="Path_110" data-name="Path 110" class="cls-4" d="M58.737,56.572l3.617,21.274a.782.782,0,0,1-.213.638L35.336,98.695a.526.526,0,0,1-.851-.213.4.4,0,0,1,0-.638L57.673,56.359c.213-.213.425-.425.851-.213a.659.659,0,0,1,.213.425ZM61.29,77.846,57.886,58.7,37.037,96.142Z" transform="translate(38.648 63.21)"/>
      <path id="Path_111" data-name="Path 111" class="cls-9" d="M50.371,94.051,20.8,73.628,26.331,59.8Z" transform="translate(23.4 67.429)"/>
      <path id="Path_112" data-name="Path 112" class="cls-4" d="M50.33,94.928,20.759,74.5c-.213-.213-.425-.425-.213-.638h0l5.531-14.041a1.105,1.105,0,0,1,.851-.425.208.208,0,0,1,.213.213l24.04,34.251a.526.526,0,0,1-.213.851c-.213.425-.425.425-.638.213ZM21.823,73.866l26.38,18.3L26.929,61.315Z" transform="translate(23.015 66.978)"/>
      <path id="Path_113" data-name="Path 113" class="cls-6" d="M75.715,32.852c-2.553-3.191-7.659-1.489-11.7,3.829s-5.106,12.339-2.766,15.53,7.659,1.489,11.7-3.829S78.268,36.043,75.715,32.852Z" transform="translate(67.622 35.234)"/>
      <path id="Path_114" data-name="Path 114" class="cls-4" d="M75.4,33.594c-.213-.213-.425-.638-.851-.638a3.692,3.692,0,0,0-2.978-.638,10.125,10.125,0,0,0-3.829,1.7,16.613,16.613,0,0,0-3.191,3.4,19.082,19.082,0,0,0-3.617,8.3c-.425,2.766-.213,5.106,1.064,6.595.213.213.425.638.851.638a3.692,3.692,0,0,0,2.978.638,10.125,10.125,0,0,0,3.829-1.7,16.613,16.613,0,0,0,3.191-3.4,19.082,19.082,0,0,0,3.617-8.3c.425-2.766,0-5.106-1.064-6.595Zm0-1.7c.425.213.638.638,1.064,1.064,1.276,1.7,1.7,4.468,1.276,7.446a21.939,21.939,0,0,1-3.829,8.935,18.787,18.787,0,0,1-3.4,3.617,15.858,15.858,0,0,1-4.255,2.127,4.743,4.743,0,0,1-3.829-.851c-.425-.213-.638-.638-1.064-1.064-1.276-1.7-1.7-4.468-1.276-7.446a21.939,21.939,0,0,1,3.829-8.935,18.787,18.787,0,0,1,3.4-3.617,15.857,15.857,0,0,1,4.255-2.127A4.743,4.743,0,0,1,75.4,31.892Z" transform="translate(67.51 34.919)"/>
      <path id="Path_115" data-name="Path 115" class="cls-10" d="M72.55,33.777c-1.7-2.127-5.319-1.064-7.871,2.553-2.766,3.617-3.617,8.51-1.915,10.637s5.319,1.064,7.871-2.553C73.4,40.8,74.252,35.9,72.55,33.777Z" transform="translate(69.723 36.863)"/>
      <path id="Path_116" data-name="Path 116" class="cls-4" d="M72.326,34.57c-.213-.213-.213-.425-.425-.425-.425-.425-1.064-.425-1.915-.425A7.189,7.189,0,0,0,67.432,35a11.638,11.638,0,0,0-2.127,2.34,16.126,16.126,0,0,0-2.553,5.531c-.213,1.7-.213,3.4.638,4.255.213.213.213.425.425.425.425.425,1.064.425,1.915.425A4.838,4.838,0,0,0,68.283,46.7a11.639,11.639,0,0,0,2.127-2.34,16.126,16.126,0,0,0,2.553-5.531c.425-1.7.213-3.4-.638-4.255Zm.213-1.489.638.638a7.144,7.144,0,0,1,.851,5.319,15.844,15.844,0,0,1-2.766,6.169,13.9,13.9,0,0,1-2.34,2.553,7.772,7.772,0,0,1-2.978,1.489,3.226,3.226,0,0,1-2.766-.638l-.638-.638a7.144,7.144,0,0,1-.851-5.319,15.844,15.844,0,0,1,2.766-6.169,13.9,13.9,0,0,1,2.34-2.553,7.772,7.772,0,0,1,2.978-1.489A3.068,3.068,0,0,1,72.538,33.081Z" transform="translate(69.31 36.495)"/>
      <path id="Path_117" data-name="Path 117" class="cls-6" d="M29.976.523c3.617-.638,8.084,5.957,9.786,14.892s-3.4,17.445-3.4,17.445S28.274,26.9,26.572,17.967C24.87,9.245,26.36,1.374,29.976.523Z" transform="translate(29.115 0.551)"/>
      <path id="Path_118" data-name="Path 118" class="cls-4" d="M30.183.334c2.127-.425,4.255,1.276,6.169,4.042a30.46,30.46,0,0,1,4.255,11.275h0c1.7,9.148-3.617,17.87-3.617,17.87a.408.408,0,0,1-.638.213h0s-8.3-6.169-10-15.317a33.474,33.474,0,0,1-.213-12.126c.425-3.4,1.915-5.531,4.042-5.957ZM35.5,5.015C33.8,2.462,32.1,1.185,30.4,1.4c-1.489.213-2.766,2.34-3.4,5.106A30.078,30.078,0,0,0,27.2,17.992c1.489,7.233,7.233,12.552,9.148,14.041,1.064-2.127,4.468-9.148,3.191-16.381h0A30.873,30.873,0,0,0,35.5,5.015Z" transform="translate(28.908 0.313)"/>
      <path id="Path_119" data-name="Path 119" class="cls-6" d="M45.3.31c3.4.213,5.744,7.446,4.893,15.743-.638,8.3-7.659,14.679-7.659,14.679s-5.744-7.446-4.893-15.743C38.5,6.48,41.9-.115,45.3.31Z" transform="translate(42.295 0.337)"/>
      <path id="Path_120" data-name="Path 120" class="cls-4" d="M45.724.009c1.915.213,3.617,2.127,4.68,5.319a30.011,30.011,0,0,1,.851,11.063c-.851,8.722-7.871,15.1-7.871,15.1a.647.647,0,0,1-.851,0h0c-.213-.213-5.744-7.659-5.106-16.168a35.033,35.033,0,0,1,2.766-10.85C41.682,1.5,43.6-.2,45.724.009Zm3.4,5.531C48.277,2.988,47,1.286,45.511,1.073S42.533,2.35,41.256,4.9a30.735,30.735,0,0,0-2.766,10.424c-.638,6.808,3.191,12.977,4.468,14.679,1.489-1.489,6.382-7.02,6.808-13.828A24.6,24.6,0,0,0,49.128,5.541Z" transform="translate(42.088 0)"/>
      <path id="Path_121" data-name="Path 121" class="cls-11" d="M29.567,4.015c2.34-.425,5.319,4.042,6.382,10.212C37.226,20.4,33.822,26.14,33.822,26.14S28.5,22.1,27.44,15.928,27.227,4.44,29.567,4.015Z" transform="translate(30.375 4.504)"/>
      <path id="Path_122" data-name="Path 122" class="cls-4" d="M29.823,3.714c1.489-.213,2.978.851,4.255,2.978a22.546,22.546,0,0,1,2.978,7.871C38.332,20.946,34.929,26.9,34.929,26.9c-.213.213-.638.425-.851.213h-.213c-.425-.425-5.531-4.468-6.595-10.637a22.144,22.144,0,0,1-.213-8.3c.213-2.553,1.276-4.255,2.766-4.468Zm3.191,3.617c-1.064-1.7-2.127-2.553-2.978-2.34s-1.489,1.489-1.915,3.4a24.956,24.956,0,0,0,.213,7.871c.851,4.68,4.255,8.084,5.744,9.361a18.563,18.563,0,0,0,1.7-10.85h0C35.141,11.586,34.29,9.033,33.014,7.331Z" transform="translate(30.12 4.167)"/>
      <path id="Path_123" data-name="Path 123" class="cls-11" d="M44.479,3.615c1.915.425,2.766,5.319,1.915,10.85A19.366,19.366,0,0,1,41.5,24.251s-2.766-5.319-1.915-10.85C40.437,7.657,42.565,3.189,44.479,3.615Z" transform="translate(44.396 4.053)"/>
      <path id="Path_124" data-name="Path 124" class="cls-4" d="M44.923,3.314c1.276.213,2.127,1.7,2.553,4.042a22.978,22.978,0,0,1,0,7.659,18.907,18.907,0,0,1-5.106,10,.647.647,0,0,1-.851,0,.208.208,0,0,0-.213-.213,20.455,20.455,0,0,1-1.915-11.275,1.279,1.279,0,0,1,.213-.851A19.965,19.965,0,0,1,41.732,6.08c.638-1.915,1.915-2.978,3.191-2.766Zm1.064,4.042c-.213-1.7-.851-2.766-1.489-2.978h0c-.638,0-1.276.638-2.127,2.127a20.676,20.676,0,0,0-1.915,6.382,1.279,1.279,0,0,1-.213.851,19.552,19.552,0,0,0,1.489,9.786A16.584,16.584,0,0,0,45.774,14.8,17.888,17.888,0,0,0,45.987,7.356Z" transform="translate(44.165 3.716)"/>
      <path id="Path_125" data-name="Path 125" class="cls-6" d="M60.165,11.3c22.338,0,36.166,16.381,40.208,38.719,19.359,3.617,33.4,14.041,33.4,32.762,0,23.4-21.912,34.251-49.143,34.251a67.956,67.956,0,0,1-14.892-1.7,34.678,34.678,0,0,1-9.573,1.489C38.252,116.82,14,97.673,14,74.484A36.268,36.268,0,0,1,19.319,55.55C21.871,30.234,36.125,11.3,60.165,11.3Z" transform="translate(15.733 12.749)"/>
      <path id="Path_126" data-name="Path 126" class="cls-4" d="M60.39,11c10.85,0,19.785,3.829,26.593,10.424,7.233,7.02,11.914,16.807,14.041,28.507,10,1.915,18.721,5.744,24.678,11.488a29.648,29.648,0,0,1,8.722,21.7,30.111,30.111,0,0,1-13.19,25.529c-9.148,6.382-22.125,9.361-36.379,9.361-2.553,0-5.106-.213-7.659-.425a39.516,39.516,0,0,1-7.233-1.276,37.054,37.054,0,0,1-4.68,1.064,37.981,37.981,0,0,1-4.893.425c-11.488,0-23.614-5.106-32.549-13.4C19.544,96.735,13.8,86.31,13.8,74.822a39.043,39.043,0,0,1,1.276-10,34.712,34.712,0,0,1,3.829-9.148c1.489-12.977,5.957-24.465,13.4-32.549C39.116,15.468,48.69,11,60.39,11ZM86.132,22.275c-6.595-6.382-15.1-10-25.742-10-11.488,0-20.636,4.255-27.231,11.488-7.233,7.871-11.7,19.147-12.977,31.911v.213a34.712,34.712,0,0,0-3.829,9.148,37.017,37.017,0,0,0-1.276,9.573c0,11.063,5.531,21.061,13.615,28.507,8.722,8.084,20.636,13.19,31.911,13.19a31.866,31.866,0,0,0,4.68-.425,37.048,37.048,0,0,0,4.68-1.064h.213c2.34.425,4.68.851,7.233,1.276,2.34.213,4.893.425,7.446.425,14.254,0,27.018-2.978,35.741-9.148A28.641,28.641,0,0,0,133.36,82.906c0-8.722-3.191-15.743-8.51-20.849-5.957-5.744-14.466-9.573-24.465-11.275-.213,0-.425-.213-.638-.425C97.833,38.869,93.365,29.083,86.132,22.275Z" transform="translate(15.508 12.411)"/>
      <path id="Path_127" data-name="Path 127" class="cls-4" d="M30.436,41.477a.6.6,0,0,1-.851-.851A51.772,51.772,0,0,1,46.6,31.691,71.068,71.068,0,0,1,67.24,28.5c14.466,0,27.444,2.978,36.379,9.361,8.3,5.744,13.19,14.041,13.19,25.529a30.111,30.111,0,0,1-13.19,25.529C94.471,95.3,81.493,98.279,67.24,98.279a66.482,66.482,0,0,1-14.892-1.7A64.05,64.05,0,0,1,38.732,91.9c-.213-.213-.425-.425-.213-.851.213-.213.425-.425.851-.213a62.133,62.133,0,0,0,13.4,4.68A66.085,66.085,0,0,0,67.452,97c14.254,0,27.018-2.978,35.741-9.148A28.641,28.641,0,0,0,115.957,63.39a28.641,28.641,0,0,0-12.764-24.465c-8.935-6.169-21.7-9.148-35.741-9.148a68.212,68.212,0,0,0-20.21,2.978A52.238,52.238,0,0,0,30.436,41.477Z" transform="translate(33.124 32.141)"/>
      <path id="Path_128" data-name="Path 128" class="cls-4" d="M45.558,46.559c.213.213,0,.638-.213.851s-.638,0-.851-.213a19.465,19.465,0,0,1-2.766-7.871A9.868,9.868,0,0,1,43,32.943c.213-.213.425-.638.851-.851h0A5.332,5.332,0,0,1,47.9,31.029a8.639,8.639,0,0,1,4.468,2.127,16.948,16.948,0,0,1,2.766,2.766.6.6,0,0,1-.851.851,14.442,14.442,0,0,0-2.553-2.553,6.7,6.7,0,0,0-3.829-1.7,3.692,3.692,0,0,0-2.978.638h0l-.638.638c-1.064,1.276-1.276,3.4-1.064,5.531A14.451,14.451,0,0,0,45.558,46.559Z" transform="translate(46.934 34.93)"/>
      <path id="Path_129" data-name="Path 129" class="cls-10" d="M44.028,33.971c1.489-2.127,4.468-1.489,7.233,1.276a22.858,22.858,0,0,0-6.808,7.446C42.751,39.29,42.539,35.886,44.028,33.971Z" transform="translate(48.464 36.881)"/>
      <path id="Path_130" data-name="Path 130" class="cls-4" d="M43.892,33.889l.425-.425A3.982,3.982,0,0,1,47.3,32.4a7.958,7.958,0,0,1,3.4,1.489,5.64,5.64,0,0,1,1.276,1.064.647.647,0,0,1,0,.851h0a17.969,17.969,0,0,0-3.829,3.191,17.052,17.052,0,0,0-2.766,4.042c-.213.213-.425.425-.851.213a.208.208,0,0,1-.213-.213,17.1,17.1,0,0,1-1.489-5.106,5.332,5.332,0,0,1,1.064-4.042Zm1.064.425-.213.213a5.4,5.4,0,0,0-.851,3.4,12.612,12.612,0,0,0,.851,3.617,17.609,17.609,0,0,1,2.34-3.191,22.771,22.771,0,0,1,3.4-2.978c-.213-.213-.425-.425-.638-.425a4.575,4.575,0,0,0-2.766-1.276A3.594,3.594,0,0,0,44.956,34.315Z" transform="translate(48.174 36.538)"/>
      <path id="Path_131" data-name="Path 131" class="cls-8" d="M103.222,75.5s-44.676,2.34-60.844-23.827-28.295,7.02,5.957,20.849C82.374,86.351,103.222,75.5,103.222,75.5Z" transform="translate(29.69 47.26)"/>
      <path id="Path_132" data-name="Path 132" class="cls-4" d="M100.311,76.5c-10.637,0-44.463-1.915-58.291-24.04-3.829-6.169-7.446-8.935-10.212-9.361a3.566,3.566,0,0,0-3.829,2.127,10.173,10.173,0,0,0-.425,6.808c1.489,6.595,7.659,15.1,21.061,20.423C75,82.886,93.5,78.844,100.311,76.5ZM43.084,51.613c15.956,25.742,60.206,23.4,60.418,23.4s.425.213.638.425,0,.638-.213.851c0,0-21.061,10.85-55.525-2.978C34.362,67.569,27.979,58.846,26.49,52.039a11.284,11.284,0,0,1,.638-7.659,5,5,0,0,1,5.106-2.766C35,42.252,39.042,45.018,43.084,51.613Z" transform="translate(29.41 46.896)"/>
      <path id="Path_133" data-name="Path 133" class="cls-4" d="M43.769,22.106c-11.275.213-12.977,3.4-10.85,10.85,1.7,6.382,6.595,7.233,9.148,7.233a51.443,51.443,0,0,1,7.659-2.127C58.235,32.956,60.363,21.681,43.769,22.106Z" transform="translate(36.171 24.919)"/>
      <path id="Path_134" data-name="Path 134" class="cls-4" d="M44.057,23.076c-5.531.213-8.51.851-10,2.553-1.489,1.489-1.276,4.042-.425,7.446a9.883,9.883,0,0,0,2.978,5.106A10.8,10.8,0,0,0,41.93,40.1l3.829-1.276c1.276-.425,2.553-.638,3.829-1.064a11.816,11.816,0,0,0,5.531-6.169,7.348,7.348,0,0,0,.425-3.617,4.665,4.665,0,0,0-2.127-2.978c-1.489-1.276-4.68-2.127-9.361-1.915Zm-10.85,1.489c1.7-1.915,5.106-2.766,10.85-2.766,4.893,0,8.3.851,10.424,2.34a6.738,6.738,0,0,1,2.553,3.617,7.518,7.518,0,0,1-.425,4.255,14.472,14.472,0,0,1-6.169,6.808h-.213A25.722,25.722,0,0,0,46.4,39.883l-3.829,1.276h-.213a9.821,9.821,0,0,1-6.169-2.127,9.472,9.472,0,0,1-3.4-5.744C31.506,29.459,31.506,26.693,33.208,24.566Z" transform="translate(35.883 24.587)"/>
      <path id="Path_135" data-name="Path 135" class="cls-8" d="M38.368,22.2a18.473,18.473,0,0,0-4.468.851l4.468,16.807c.638,0,1.276.213,1.7.213a13.761,13.761,0,0,1,2.766-.851Z" transform="translate(38.169 25.038)"/>
      <path id="Path_136" data-name="Path 136" class="cls-4" d="M38.28,23.176c-.638,0-1.276.213-1.915.213a3.944,3.944,0,0,0-1.489.425l4.255,15.743h1.064c.425-.213.851-.213,1.276-.425.213,0,.638-.213.851-.213L38.28,23.176Zm-2.127-.851c.851-.213,1.7-.213,2.553-.425.213,0,.638.213.638.425l4.468,17.019h0c0,.213,0,.638-.425.638-.425.213-1.064.213-1.489.425a13.558,13.558,0,0,1-1.489.425H39.344a1.279,1.279,0,0,1-.851-.213.458.458,0,0,1-.425-.425L33.6,23.389h0c0-.213,0-.638.425-.638A6.294,6.294,0,0,1,36.153,22.325Z" transform="translate(37.831 24.7)"/>
      <path id="Path_137" data-name="Path 137" class="cls-8" d="M42.255,38.056c.213,0,.638-.213.851-.213.638-.425,1.489-.851,2.127-1.276L41.4,22.313A17.2,17.2,0,0,0,38,22.1Z" transform="translate(42.791 24.925)"/>
      <path id="Path_138" data-name="Path 138" class="cls-4" d="M43.119,39.145h-.425c-.425,0-.638,0-.638-.425L37.8,22.551h0v-.213a.564.564,0,0,1,.638-.638h1.915a4.684,4.684,0,0,1,1.7.213c.213,0,.425.213.638.425l3.829,14.254a.782.782,0,0,1-.213.638,3.735,3.735,0,0,0-1.064.851c-.425.213-.638.425-1.064.638h-.213a2.329,2.329,0,0,0-.851.425Zm-.213-1.276h.213a2.937,2.937,0,0,0,.851-.638c.213-.213.425-.213.638-.425L40.991,23.4h-2.34Z" transform="translate(42.566 24.474)"/>
      <path id="Path_139" data-name="Path 139" class="cls-4" d="M55.914,22.107c7.871.213,8.935,3.4,7.659,10.85a10.7,10.7,0,0,1-1.915,4.68,65.352,65.352,0,0,0-11.275-1.064C45.916,31.043,45.49,21.682,55.914,22.107Z" transform="translate(53.384 24.918)"/>
      <path id="Path_140" data-name="Path 140" class="cls-4" d="M56.505,21.8c4.255.213,6.595,1.064,7.659,2.978,1.276,1.915,1.064,4.68.425,8.51a12.2,12.2,0,0,1-.851,2.978,19.768,19.768,0,0,1-1.064,2.127.782.782,0,0,1-.638.213,43.856,43.856,0,0,0-5.531-.638h0c-1.915-.213-3.829-.213-5.744-.425-.213,0-.425,0-.425-.213a13.162,13.162,0,0,1-2.978-5.957,7.656,7.656,0,0,1,.213-4.893,7,7,0,0,1,3.4-3.617c1.276-.851,3.191-1.064,5.531-1.064ZM63.1,25.417c-1.064-1.489-2.978-2.34-6.808-2.34a10.635,10.635,0,0,0-4.893.851,4.755,4.755,0,0,0-2.766,2.978,9.447,9.447,0,0,0-.213,4.255,12.838,12.838,0,0,0,2.553,5.106,44.921,44.921,0,0,1,5.531.425h0l5.106.638a9.251,9.251,0,0,0,.851-1.489,10.556,10.556,0,0,0,.638-2.766C63.951,29.459,64.164,26.906,63.1,25.417Z" transform="translate(53.006 24.587)"/>
      <path id="Path_141" data-name="Path 141" class="cls-8" d="M57.71,37.317c-1.7-.213-3.191-.425-4.893-.638L49.2,22.851A9.867,9.867,0,0,1,53.668,22Z" transform="translate(55.418 24.812)"/>
      <path id="Path_142" data-name="Path 142" class="cls-4" d="M57.948,38.068a8.727,8.727,0,0,0-2.34-.213c-.851,0-1.7-.213-2.553-.213-.213,0-.425-.213-.638-.425L48.8,23.389c0-.213,0-.638.425-.638.638-.213,1.276-.425,2.127-.638a10.357,10.357,0,0,1,2.553-.213c.213,0,.425.213.638.425h0l4.042,15.317c0,.425,0,.638-.425.638,0-.213,0-.213-.213-.213Zm-2.34-1.489c.425,0,1.064.213,1.489.213L53.48,22.964a5.89,5.89,0,0,0-1.915.213,3.075,3.075,0,0,0-1.489.425l3.4,12.977A7.092,7.092,0,0,1,55.608,36.579Z" transform="translate(54.967 24.7)"/>
      <path id="Path_143" data-name="Path 143" class="cls-4" d="M46.99,25.608c.425,0,.425.425.425.638,0,.425-.425.425-.638.425,0,0-23.827-6.595-26.167-2.127-.213.213-.425.425-.851.213-.213-.213-.425-.425-.213-.851C22.312,18.8,46.778,25.608,46.99,25.608Z" transform="translate(21.887 24.821)"/>
      <path id="Path_144" data-name="Path 144" class="cls-4" d="M52.82,25.928a.62.62,0,1,1-1.064.638s-3.4-5.106-7.446.851c-.213.213-.638.425-.851.213s-.425-.638-.213-.851C48.352,19.333,52.82,25.928,52.82,25.928Z" transform="translate(48.607 26.203)"/>
      <path id="Path_145" data-name="Path 145" class="cls-4" d="M25.276,47.924a.638.638,0,1,1-1.276,0s.638-10.212,12.552-8.3c.425,0,.638.425.425.638,0,.425-.425.638-.638.425C25.915,38.989,25.276,47.924,25.276,47.924Z" transform="translate(27.007 44.415)"/>
      <path id="Path_146" data-name="Path 146" class="cls-4" d="M27.473,86.159c.213-.213.425-.425.851-.213.213.213.425.425.213.851,0,0-4.468,8.935-12.339,12.977-.213.213-.638,0-.851-.213s0-.638.213-.851C23.005,94.669,27.473,86.159,27.473,86.159Z" transform="translate(17.152 96.807)"/>
      <path id="Path_147" data-name="Path 147" class="cls-4" d="M47.147,86.7c-.213-.213,0-.638.213-.851s.638,0,.851.213c0,0,4.468,8.51,11.7,12.552.213.213.425.425.213.851-.213.213-.425.425-.851.213C51.614,95.633,47.147,86.7,47.147,86.7Z" transform="translate(53.004 96.695)"/>
    </g>
  </g>
</svg>
