<svg xmlns="http://www.w3.org/2000/svg" viewBox="0 0 77.5 15.339">
  <path id="Path_1551" data-name="Path 1551" d="M68.689,36.278a3.542,3.542,0,0,0-1.569.424v4.837a10.2,10.2,0,0,0,1.13.043c1.536,0,1.747-.7,1.747-1.686v-2.31C70,36.86,69.756,36.278,68.689,36.278Zm-10.2-.264c-1.066,0-1.309.585-1.309,1.31v.407H59.8v-.407C59.8,36.6,59.552,36.014,58.488,36.014ZM38.727,41.049a.764.764,0,0,0,.867.871,3.18,3.18,0,0,0,1.487-.423V40.349h-1.4c-.663,0-.954.123-.954.7Zm39.884-4.771c-1.067,0-1.437.583-1.437,1.308v2.647c0,.727.37,1.311,1.437,1.311s1.437-.584,1.437-1.311V37.586C80.048,36.86,79.676,36.278,78.612,36.278ZM33.5,44.017H30.358v-7.6H28.79V33.8h1.568V32.233c0-2.135.885-3.4,3.4-3.4h2.094v2.618H34.544c-.979,0-1.044.366-1.044,1.048l0,1.31h2.371l-.277,2.617H33.5Zm10.724.02H41.6l-.113-.661a5.994,5.994,0,0,1-2.963.769,2.782,2.782,0,0,1-2.939-3.053c0-2.091,1.191-2.837,3.322-2.837h2.169V37.8c0-1.067-.122-1.38-1.763-1.38H36.635L36.9,33.8H39.83c3.6,0,4.39,1.137,4.39,4.019v6.213Zm8.893-7.423a14.968,14.968,0,0,0-2.878-.34c-1.406,0-1.832.31-1.832,1.5v2.259c0,1.194.425,1.506,1.832,1.506a14.935,14.935,0,0,0,2.878-.343v2.553a13.871,13.871,0,0,1-3.139.4c-3.369,0-4.708-1.772-4.708-4.331V37.993c0-2.561,1.339-4.336,4.708-4.336a13.812,13.812,0,0,1,3.139.405v2.551Zm9.82,3.213H57.179v.211c0,1.194.425,1.506,1.832,1.506a18.3,18.3,0,0,0,3.66-.343v2.553a16.5,16.5,0,0,1-3.92.4c-3.369,0-4.709-1.772-4.709-4.331v-2.1c0-2.239.994-4.073,4.446-4.073s4.445,1.813,4.445,4.073Zm10.2.048c0,2.474-.707,4.278-4.99,4.278a23.687,23.687,0,0,1-4.161-.4V29.614l3.137-.523v4.946a7.122,7.122,0,0,1,2.354-.38c3.137,0,3.66,1.406,3.66,3.667v2.551Zm10.055.054c0,2.134-.881,4.2-4.567,4.2s-4.585-2.07-4.585-4.2v-2.06c0-2.135.9-4.205,4.585-4.205s4.567,2.07,4.567,4.205Zm10.049,0c0,2.134-.882,4.2-4.567,4.2s-4.585-2.07-4.585-4.2v-2.06c0-2.135.9-4.205,4.585-4.205s4.567,2.07,4.567,4.205Zm10.312,4.088h-3.4l-2.876-4.8v4.8H94.136v-14.4l3.138-.523v9.272L100.15,33.8h3.4l-3.139,4.974Zm-14.89-7.739c-1.066,0-1.436.583-1.436,1.308v2.647c0,.727.37,1.311,1.436,1.311S90.1,40.96,90.1,40.233V37.586C90.1,36.86,89.724,36.278,88.659,36.278Zm16.681,5.948a.971.971,0,1,1-.963.969.955.955,0,0,1,.963-.969Zm0,.151a.821.821,0,0,0,0,1.64.821.821,0,0,0,0-1.64Zm-.18,1.382h-.172V42.677a1.985,1.985,0,0,1,.306-.025.575.575,0,0,1,.336.081.261.261,0,0,1,.1.223.269.269,0,0,1-.21.263v.008c.094.018.159.1.18.262a.9.9,0,0,0,.068.268h-.18a.814.814,0,0,1-.073-.276.2.2,0,0,0-.232-.189h-.119v.466Zm0-.6h.125c.141,0,.261-.052.261-.186,0-.095-.068-.189-.261-.189a.892.892,0,0,0-.125.008v.367Z" transform="translate(-28.79 -28.828)"/>
</svg>
