<svg xmlns="http://www.w3.org/2000/svg" viewBox="0 0 11.087 20.507">
  <defs>
    <style>
      .cls-1 {
        fill: #999;
      }
    </style>
  </defs>
  <path id="Path_36" data-name="Path 36" class="cls-1" d="M32.747,0,30.087,0a4.67,4.67,0,0,0-4.918,5.047V7.374H22.5a.418.418,0,0,0-.418.418v3.371a.418.418,0,0,0,.418.418h2.674v8.507a.418.418,0,0,0,.418.418h3.489a.418.418,0,0,0,.418-.418V11.582H32.62a.418.418,0,0,0,.418-.418V7.792a.418.418,0,0,0-.418-.418H29.494V5.4c0-.948.226-1.429,1.461-1.429h1.791a.418.418,0,0,0,.418-.418V.422A.418.418,0,0,0,32.747,0Z" transform="translate(-22.077)"/>
</svg>
