<svg id="" data-name="Group 304" xmlns="http://www.w3.org/2000/svg" viewBox="0 0 155 81.355">
  <defs>
    <style>
      .cls-1 {
        fill: #fff;
      }

      .cls-2 {
        fill: #ffbf00;
      }
    </style>
  </defs>
  <g id="" data-name="Group 280" transform="translate(16.838 12.429)">
    <path id="" data-name="Path 1520" class="cls-1" d="M40.755,22.094c0,4.485-3.777,7.239-8.1,7.239H29.032v6.137c0,.787.236,1.338.787,1.574a6.608,6.608,0,0,0,1.495.236v1.259H21.4V37.279a4.115,4.115,0,0,0,1.416-.236,1.615,1.615,0,0,0,.865-1.652V18.868c0-.865-.236-1.338-.865-1.574a5.847,5.847,0,0,0-1.416-.236V15.8H33.2C37.136,15.721,40.755,17.766,40.755,22.094ZM29.111,27.6H31c3.069,0,4.249-2.124,4.249-5.193,0-2.911-1.18-4.957-3.7-4.957H29.111Z" transform="translate(-21.4 -15.797)"/>
    <path id="" data-name="Path 1521" class="cls-1" d="M68.155,21.622c0,3.069-2.2,5.036-4.957,6.058l5.114,7.081c1.259,1.731,2.2,2.36,3.619,2.518l-.157,1.338H64.536L57.691,28.388H56.432v7.081c0,.787.236,1.338.787,1.574a6.608,6.608,0,0,0,1.495.236v1.259H48.8V37.279a4.115,4.115,0,0,0,1.416-.236,1.615,1.615,0,0,0,.865-1.652V18.868c0-.865-.236-1.338-.865-1.574a5.847,5.847,0,0,0-1.416-.236V15.8H60.6C64.536,15.721,68.155,17.294,68.155,21.622ZM56.511,26.657H58.4c3.069,0,4.249-1.574,4.249-4.721,0-2.754-1.18-4.485-3.7-4.485H56.511Z" transform="translate(-27.242 -15.796)"/>
    <path id="" data-name="Path 1522" class="cls-1" d="M75.5,34.911V32h9.6v2.911Z" transform="translate(-32.934 -19.251)"/>
  </g>
  <g id="" data-name="Group 281" transform="translate(17.624 40.442)">
    <path id="" data-name="Path 1523" class="cls-1" d="M30.347,51.8h2.832v.472a1.339,1.339,0,0,0-.551.079c-.236.079-.315.315-.315.629v6.294a.639.639,0,0,0,.315.629c.079.079.315.079.551.079v.472H29.4v-.472a1.339,1.339,0,0,0,.551-.079c.236-.079.315-.315.315-.629V53.688l-2.6,5.193h-.551l-2.675-5.193V58.8a1.073,1.073,0,0,0,.393.944,1.329,1.329,0,0,0,.787.236v.472H22.4v-.472a1.269,1.269,0,0,0,.708-.236.952.952,0,0,0,.472-.944v-5.35a.98.98,0,0,0-.315-.865,1.826,1.826,0,0,0-.787-.315V51.8h3.069l2.36,4.721Z" transform="translate(-22.4 -51.485)"/>
    <path id="" data-name="Path 1524" class="cls-1" d="M45.258,60.522h.236v.315A3.121,3.121,0,0,1,44,61.23c-1.023,0-1.338-.472-1.338-1.18v-.079a2.281,2.281,0,0,1-1.967,1.18A1.366,1.366,0,0,1,39.2,59.657c0-1.023.787-1.495,2.046-1.81l1.416-.315V57.3c0-.865-.236-1.259-1.259-1.259a7.2,7.2,0,0,0-2.046.315v-.787a7.2,7.2,0,0,1,2.99-.865c1.495,0,2.2.787,2.2,2.439v2.6C44.55,60.365,44.786,60.522,45.258,60.522Zm-2.6-.787V58.162l-.708.157c-.629.157-1.023.315-1.023.865,0,.472.315.708.865.708A2.828,2.828,0,0,0,42.662,59.736Z" transform="translate(-25.982 -52.104)"/>
    <path id="" data-name="Path 1525" class="cls-1" d="M49.893,55.544H49.5v-.472a7.807,7.807,0,0,1,2.046-.472c.551,0,.708.236.708.787V55.7A2.451,2.451,0,0,1,54.3,54.679c1.495,0,2.282,1.18,2.282,2.832,0,2.36-1.652,3.619-4.013,3.619h-.315v1.416c0,.393.157.551.551.629h.551v.472H49.579v-.472a1,1,0,0,0,.472-.079c.236-.079.315-.315.315-.629V56.016C50.365,55.7,50.287,55.544,49.893,55.544Zm2.36.551v4.249a2.328,2.328,0,0,0,.787.157c1.18,0,1.652-1.18,1.652-2.439,0-1.338-.472-2.124-1.495-2.124A2.159,2.159,0,0,0,52.254,56.095Z" transform="translate(-28.178 -52.082)"/>
    <path id="" data-name="Path 1526" class="cls-1" d="M63.86,61.137H61.5v-.472a1,1,0,0,0,.472-.079c.236-.079.315-.315.315-.629V56.1a.639.639,0,0,0-.315-.629,1,1,0,0,0-.472-.079V55h3.383v.472a2.782,2.782,0,0,0-.472.079c-.236.079-.315.236-.315.629v3.383l2.6-4.485h2.36v.472a.852.852,0,0,0-.472.079c-.236.079-.315.315-.315.629v3.855c0,.315.079.551.315.629a2.782,2.782,0,0,0,.472.079v.472H65.67v-.472a1,1,0,0,0,.472-.079c.236-.079.315-.236.315-.629v-3.3Z" transform="translate(-30.736 -52.168)"/>
    <path id="" data-name="Path 1527" class="cls-1" d="M76.46,61.137H74.1v-.472a1,1,0,0,0,.472-.079c.236-.079.315-.315.315-.629V56.1a.639.639,0,0,0-.315-.629,1,1,0,0,0-.472-.079V55h3.383v.472a2.782,2.782,0,0,0-.472.079c-.236.079-.315.236-.315.629v3.383l2.6-4.485h2.36v.472a.852.852,0,0,0-.472.079c-.236.079-.315.315-.315.629v3.855c0,.315.079.551.315.629a2.783,2.783,0,0,0,.472.079v.472H78.27v-.472a1,1,0,0,0,.472-.079c.236-.079.315-.236.315-.629v-3.3Z" transform="translate(-33.422 -52.168)"/>
    <path id="" data-name="Path 1528" class="cls-1" d="M93.251,59.8c.236-.079.315-.236.315-.629V52.88a.639.639,0,0,0-.315-.629,1.167,1.167,0,0,0-.551-.079V51.7h3.777v.472c-.236,0-.393.079-.551.079-.236.079-.315.236-.315.629V59.8h2.832V53.038a.639.639,0,0,0-.315-.629c-.079-.079-.315-.079-.551-.079v-.472h3.777v.472c-.236,0-.393.079-.551.079-.236.079-.315.236-.315.629V59.8h2.832V53.038a.639.639,0,0,0-.315-.629c-.079-.079-.315-.079-.551-.079v-.472h3.777v.472a1.339,1.339,0,0,0-.551.079c-.236.079-.315.315-.315.629v6.294a.639.639,0,0,0,.315.629c.079.079.315.079.551.079v.472H92.779V60.04C92.936,59.883,93.172,59.883,93.251,59.8Z" transform="translate(-37.388 -51.464)"/>
    <path id="" data-name="Path 1529" class="cls-1" d="M119.058,60.522h.236v.315a3.121,3.121,0,0,1-1.495.393c-1.023,0-1.338-.472-1.338-1.18v-.079a2.281,2.281,0,0,1-1.967,1.18A1.366,1.366,0,0,1,113,59.657c0-1.023.787-1.495,2.046-1.81l1.416-.315V57.3c0-.865-.236-1.259-1.259-1.259a7.2,7.2,0,0,0-2.046.315v-.787a7.2,7.2,0,0,1,2.99-.865c1.495,0,2.2.787,2.2,2.439v2.6C118.35,60.365,118.586,60.522,119.058,60.522Zm-2.6-.787V58.162l-.708.157c-.629.157-1.023.315-1.023.865,0,.472.315.708.865.708A2.828,2.828,0,0,0,116.462,59.736Z" transform="translate(-41.716 -52.104)"/>
    <path id="" data-name="Path 1530" class="cls-1" d="M130.066,60.665v.472h-3.383v-.472c.472,0,.629-.315.393-.629l-.944-1.338-.629.787c-.472.629-.315,1.023.236,1.1v.472H123.3v-.472a2.328,2.328,0,0,0,1.338-.865l1.259-1.495-1.574-2.2c-.315-.393-.472-.629-.865-.708V55h3.383v.472c-.472,0-.708.315-.472.629l1.023,1.416.629-.944c.393-.472.236-1.023-.393-1.1V55h2.439v.472a2.122,2.122,0,0,0-1.18.865l-1.259,1.574,1.574,2.124A.92.92,0,0,0,130.066,60.665Z" transform="translate(-43.912 -52.168)"/>
    <path id="" data-name="Path 1531" class="cls-1" d="M137.569,61.252a2.791,2.791,0,0,1-3.069-2.99,3.367,3.367,0,0,1,3.541-3.462,2.748,2.748,0,0,1,2.99,2.911A3.323,3.323,0,0,1,137.569,61.252Zm.079-5.744c-.944,0-1.18.944-1.18,2.282,0,1.574.315,2.754,1.338,2.754.866,0,1.18-.865,1.18-2.439C139.063,56.531,138.67,55.508,137.647,55.508Z" transform="translate(-46.299 -52.125)"/>
    <path id="" data-name="Path 1532" class="cls-1" d="M146.272,55.551a1,1,0,0,0-.472-.079V55h3.777c1.495,0,2.439.472,2.439,1.495,0,.865-.629,1.338-1.652,1.495,1.18.079,1.888.472,1.888,1.338,0,1.259-.944,1.731-2.675,1.731H145.8v-.472a1,1,0,0,0,.472-.079c.236-.079.315-.315.315-.629V56.023A.489.489,0,0,0,146.272,55.551Zm2.2,2.2h.315c.865,0,1.259-.393,1.259-1.1,0-.787-.393-1.1-1.259-1.1h-.315Zm0,2.832h.472c.865,0,1.259-.315,1.259-1.18,0-.629-.393-1.1-1.259-1.1h-.472Z" transform="translate(-48.709 -52.168)"/>
    <path id="" data-name="Path 1533" class="cls-1" d="M160.169,61.252a2.791,2.791,0,0,1-3.068-2.99,3.367,3.367,0,0,1,3.541-3.462,2.748,2.748,0,0,1,2.99,2.911A3.323,3.323,0,0,1,160.169,61.252Zm.079-5.744c-.944,0-1.18.944-1.18,2.282,0,1.574.315,2.754,1.338,2.754.866,0,1.18-.865,1.18-2.439S161.27,55.508,160.247,55.508Z" transform="translate(-51.118 -52.125)"/>
    <path id="" data-name="Path 1534" class="cls-1" d="M170.76,60.37H168.4V59.9a1,1,0,0,0,.472-.079c.236-.079.315-.315.315-.629V55.334a.639.639,0,0,0-.315-.629,1,1,0,0,0-.472-.079v-.393h3.383V54.7a2.781,2.781,0,0,0-.472.079c-.236.079-.315.236-.315.629V58.8l2.6-4.485h2.36v.472a.852.852,0,0,0-.472.079c-.236.079-.315.315-.315.629v3.855c0,.315.079.551.315.629a2.783,2.783,0,0,0,.472.079v.472H172.57v-.472a1,1,0,0,0,.472-.079c.236-.079.315-.236.315-.629v-3.3Zm1.495-7.317a1.937,1.937,0,0,1-2.124-1.652h1.416c0,.629.315,1.023.787,1.023.551,0,.787-.472.866-1.023h1.18A1.907,1.907,0,0,1,172.255,53.052Z" transform="translate(-53.527 -51.4)"/>
  </g>
  <g id="" data-name="Group 282">
    <path id="" data-name="Path 1535" class="cls-2" d="M18.49,81.355V64.518h3.934v8.34L34.7,62.551H151.066V3.934H3.934V35.406H0V0H155V66.485H36.114Z"/>
  </g>
  <g id="" data-name="Group 283" transform="translate(73.173 24.076)">
    <path id="" data-name="Path 1536" class="cls-1" d="M98.665,36.108H98.9v.315a3.142,3.142,0,0,1-1.416.315c-1.023,0-1.259-.393-1.259-1.1v-.079a2.155,2.155,0,0,1-1.81,1.1A1.322,1.322,0,0,1,93,35.242c0-1.023.787-1.416,1.967-1.652l1.338-.315v-.236c0-.787-.236-1.18-1.18-1.18a9.445,9.445,0,0,0-1.888.236v-.708a6.141,6.141,0,0,1,2.832-.787c1.416,0,2.046.787,2.046,2.282v2.439C98.036,35.95,98.193,36.108,98.665,36.108Zm-2.439-.787V33.826l-.629.157c-.629.157-.944.315-.944.787s.315.708.787.708A2.328,2.328,0,0,0,96.226,35.321Z" transform="translate(-93 -30.6)"/>
    <path id="" data-name="Path 1537" class="cls-1" d="M105.118,35.521c0,.315.079.472.315.551a.59.59,0,0,0,.393.079v.472H102.6V36.15a1,1,0,0,0,.472-.079c.236-.079.315-.236.315-.551V31.9c0-.315-.079-.472-.315-.551a1,1,0,0,0-.472-.079V30.8h4.957v2.124h-.393c-.315-1.023-.629-1.495-1.574-1.495h-.472v4.091Z" transform="translate(-95.047 -30.643)"/>
    <path id="" data-name="Path 1538" class="cls-1" d="M114.054,36.737A2.548,2.548,0,0,1,111.3,33.9a3.076,3.076,0,0,1,3.226-3.3,2.011,2.011,0,0,1,2.282,2.046v.472l-.315.472h-3.462c0,1.18.472,1.888,1.731,1.888a4.758,4.758,0,0,0,1.731-.315v.629A3.593,3.593,0,0,1,114.054,36.737Zm-1.1-3.7h1.967v-.393c0-.787-.315-1.338-.865-1.338C113.424,31.308,113.11,32.016,112.952,33.039Z" transform="translate(-96.902 -30.6)"/>
    <path id="" data-name="Path 1539" class="cls-1" d="M123.218,33.947v1.574c0,.315.079.472.315.551a.59.59,0,0,0,.393.079v.472H120.7V36.15a1,1,0,0,0,.472-.079c.236-.079.315-.236.315-.551V31.9c0-.315-.079-.472-.315-.551a1,1,0,0,0-.472-.079V30.8h3.226v.472a1.6,1.6,0,0,0-.393.079c-.236.079-.315.236-.315.551V33.4h2.124V31.9c0-.315-.079-.472-.315-.551a.852.852,0,0,0-.472-.079V30.8h3.226v.472a.852.852,0,0,0-.472.079.566.566,0,0,0-.315.551v3.619c0,.315.079.472.315.551a2.782,2.782,0,0,0,.472.079v.472h-3.226V36.15a1,1,0,0,0,.472-.079.566.566,0,0,0,.315-.551V33.947Z" transform="translate(-98.906 -30.643)"/>
    <path id="" data-name="Path 1540" class="cls-1" d="M134.167,31.329c-1.023,0-1.338.551-1.574,1.495H132.2V30.7h5.98v2.124h-.393c-.315-1.023-.551-1.495-1.574-1.495h-.236v4.091c0,.315.079.472.315.551.079.079.236.079.472.079v.472h-3.226V36.05a1,1,0,0,0,.472-.079c.236-.079.315-.236.315-.551V31.329Z" transform="translate(-101.357 -30.621)"/>
    <path id="" data-name="Path 1541" class="cls-1" d="M144.854,36.737A2.584,2.584,0,0,1,142.1,33.9a3.076,3.076,0,0,1,3.226-3.3c1.338,0,2.046.551,2.046,1.18a.809.809,0,0,1-.787.865c-1.023,0-.629-1.416-1.652-1.416-.787,0-1.1.944-1.1,2.124,0,1.259.472,2.124,1.731,2.124a4.66,4.66,0,0,0,1.652-.315v.629A3.252,3.252,0,0,1,144.854,36.737Z" transform="translate(-103.468 -30.6)"/>
    <path id="" data-name="Path 1542" class="cls-1" d="M153.067,31.329c-1.023,0-1.338.551-1.574,1.495H151.1V30.7h5.98v2.124h-.393c-.315-1.023-.551-1.495-1.574-1.495h-.157v4.091c0,.315.079.472.315.551.079.079.236.079.472.079v.472h-3.226V36.05a1,1,0,0,0,.472-.079c.236-.079.315-.236.315-.551V31.329Z" transform="translate(-105.387 -30.621)"/>
    <path id="" data-name="Path 1543" class="cls-1" d="M161.372,31.351a1,1,0,0,0-.472-.079V30.8h3.541c1.416,0,2.36.472,2.36,1.416,0,.787-.629,1.259-1.574,1.416,1.1.079,1.731.472,1.731,1.259,0,1.18-.865,1.652-2.518,1.652h-3.462v-.472a1,1,0,0,0,.472-.079c.236-.079.315-.236.315-.551V31.823C161.687,31.587,161.608,31.429,161.372,31.351ZM163.5,33.4h.315c.865,0,1.18-.315,1.18-1.023s-.315-1.023-1.18-1.023H163.5Zm0,2.675h.472c.866,0,1.18-.315,1.18-1.1,0-.629-.315-1.023-1.18-1.023H163.5Z" transform="translate(-107.476 -30.643)"/>
    <path id="" data-name="Path 1544" class="cls-1" d="M174.211,36.737A2.7,2.7,0,0,1,171.3,33.9a3.159,3.159,0,0,1,3.383-3.3,2.584,2.584,0,0,1,2.832,2.754A3.246,3.246,0,0,1,174.211,36.737Zm.079-5.429c-.866,0-1.1.865-1.1,2.2,0,1.495.315,2.6,1.259,2.6.787,0,1.1-.787,1.1-2.282S175.234,31.308,174.29,31.308Z" transform="translate(-109.693 -30.6)"/>
  </g>
</svg>
