<svg xmlns="http://www.w3.org/2000/svg" xmlns:xlink="http://www.w3.org/1999/xlink" width="286" height="118" viewBox="0 0 286 118"><defs><path id="12ewa" d="M30.35 124.72h-4.6l1.1-5.96h4.6zm-6.84 11.66l1.52-8.1h4.65l-1.57 8.1h4.31l1.57-8.1h4.4v-3.56h-3.73l1.1-5.96h4.44v-3.59h-3.76l1.56-8.11h-4.31l-1.56 8.11h-4.6l1.55-8.11h-4.3l-1.57 8.11h-4.4v3.6h3.73l-1.1 5.95H17v3.55h3.76l-1.56 8.11z"/><path id="12ewb" d="M259.43 141.26l-33.55 40.43h33.55zm-46.72 55.56v-11.09l57.5-69.17h11.98v65.13h20.36l.45 1.5-4.8 13.63H282.2v27.7h-22.76v-27.7zm-53.9-73.68c-12.74 0-16.48 15.73-16.48 34.9 0 22.15 4.5 39.97 17.67 39.97 14.52 0 17.52-20.21 17.52-34.29 0-19.91-4.04-40.58-18.72-40.58zm-1.2 82.51c-20.37 0-40.44-13.03-40.44-42.68 0-29.94 21.12-47.16 43.88-47.16 21.56 0 41.63 14.37 41.63 42.22 0 28-20.97 47.62-45.08 47.62zm-93.9-64.39L30.19 181.7h33.54zM17 196.82v-11.09l57.5-69.17h11.98v65.13h20.36l.45 1.5-4.79 13.63H86.48v27.7H63.72v-27.7z"/></defs><g><g transform="translate(-17 -107)"><use fill="#fff" xlink:href="#12ewa"/></g><g transform="translate(-17 -107)"><use fill="#fff" xlink:href="#12ewb"/></g></g></svg>