<svg xmlns="http://www.w3.org/2000/svg" viewBox="0 0 86.498 38.081">
  <defs>
    <style>

    </style>
  </defs>
  <g id="Group_122" data-name="Group 122" transform="translate(-1091 -1323)">
    <text id="Разработка_сайта" data-name="Разработка сайта" class="cls-1" transform="translate(1091 1334)"><tspan x="0" y="0">Разработка сайта</tspan></text>
    <g id="Group_117" data-name="Group 117" class="cls-2" transform="translate(557 -32.787)">
      <path id="Path_1487" data-name="Path 1487" class="cls-3" d="M8.751,0A8.723,8.723,0,0,1,0,0V13.008c0,5.881,8.751,8.94,8.751,8.94s8.751-3.059,8.751-8.94V0A8.723,8.723,0,0,1,8.751,0Zm7.221,13.039c0,3.39-3.753,6.133-7.221,7.411-3.469-1.277-7.221-4.021-7.221-7.411V2.113a10.236,10.236,0,0,0,7.221-.583,10.315,10.315,0,0,0,7.221.583Z" transform="translate(534 1371.92)"/>
      <path id="Path_1488" data-name="Path 1488" class="cls-3" d="M21.9,37.535l1.246-.5-.773-1.845H24.5V37.03h1.34V35.185h2.144L27.21,37.03l1.246.5.773-1.829,1.624,1.624v-7.3L27.3,33.577,25.176,28.5l-2.129,5.077L19.5,30.029v7.3l1.624-1.624Z" transform="translate(517.575 1347.915)"/>
      <path id="Path_1489" data-name="Path 1489" class="cls-3" d="M171.3,39.272a2.108,2.108,0,0,0-2.239-2.334c-1.561,0-2.491,1.072-2.491,2.807a2.476,2.476,0,0,0,2.743,2.665,4.5,4.5,0,0,0,1.75-.315V41.022a4.431,4.431,0,0,1-1.451.268c-.93,0-1.451-.394-1.529-1.214h3.185A7,7,0,0,0,171.3,39.272Zm-3.216-.11c.079-.773.394-1.135.962-1.135.552,0,.867.378.851,1.135Zm-11.21-2.223a1.75,1.75,0,0,0-1.561.82c-.095-.552-.426-.82-1.072-.82a2.439,2.439,0,0,0-.773.11v.962h.095c.315,0,.473.079.473.394V44.57h1.514V42a1.92,1.92,0,0,0,1.246.41c1.545,0,2.239-1.277,2.239-2.822C159.02,38.153,158.452,36.938,156.875,36.938Zm-.489,4.273a1.443,1.443,0,0,1-.867-.3V38.673a1.037,1.037,0,0,1,.883-.473c.725,0,1.041.552,1.041,1.451C157.459,40.644,157.049,41.211,156.386,41.211Zm9.3-4.273a.963.963,0,0,1,.52.11v1.277a2.023,2.023,0,0,0-.583-.079,1.186,1.186,0,0,0-1.009.457V42.3H163.1V38.421c0-.315-.142-.394-.473-.394h-.095v-.962a2.439,2.439,0,0,1,.773-.11.937.937,0,0,1,1.088.82A1.553,1.553,0,0,1,165.689,36.938Zm-4.84-.773a.752.752,0,0,1-.82-.788.821.821,0,0,1,1.64-.016A.756.756,0,0,1,160.849,36.166Zm.851,1.908v4.21h-1.514V38.421c0-.3-.126-.378-.441-.394h-.126v-.962a3.651,3.651,0,0,1,.93-.11C161.337,36.938,161.7,37.3,161.7,38.074Zm-22.2-3.059h4.383v1.356h-2.838v1.592h2.334v1.293h-2.334v1.687h2.838V42.3H139.5Zm13.165,3.894V42.3h-1.514V39.1c0-.5-.173-.867-.71-.867a1,1,0,0,0-.82.457,4.148,4.148,0,0,1,.032.441v3.153h-1.5V39.1c0-.5-.158-.867-.71-.867a1.085,1.085,0,0,0-.8.394V42.3h-1.514V38.421c0-.315-.142-.378-.426-.394h-.126v-.962a2.439,2.439,0,0,1,.773-.11c.646,0,.993.252,1.072.82a1.693,1.693,0,0,1,1.5-.82,1.569,1.569,0,0,1,1.482.773,1.839,1.839,0,0,1,1.5-.773C152.082,36.938,152.665,37.743,152.665,38.909ZM176.6,35.015h-2.129V42.3H176.6a3.3,3.3,0,0,0,3.563-3.642A3.3,3.3,0,0,0,176.6,35.015Zm.063,5.9H176V36.4h.662c1.183,0,1.908.773,1.908,2.255S177.845,40.912,176.663,40.912Zm13.828-6.323a.733.733,0,0,1,.82.773.82.82,0,0,1-1.64.016A.738.738,0,0,1,190.491,34.589ZM188.8,37l-1.608.142a3.042,3.042,0,0,0-1.135-.2c-1.451,0-2.223.836-2.223,1.813a1.671,1.671,0,0,0,.9,1.5,1.1,1.1,0,0,0-.662.946.929.929,0,0,0,.441.82,1.251,1.251,0,0,0-.8,1.135c0,.836.725,1.5,2.381,1.5,1.451,0,2.6-.725,2.6-1.908a1.408,1.408,0,0,0-1.246-1.419,5.474,5.474,0,0,0-1.183-.173c-.568-.032-.9-.11-.9-.378a.375.375,0,0,1,.189-.3,2.658,2.658,0,0,0,.52.047c1.293,0,2.192-.757,2.192-1.766a1.649,1.649,0,0,0-.2-.8h.725V37Zm-2.586,5.329c.725.047,1.167.142,1.167.615,0,.426-.489.71-1.167.71-.836,0-1.214-.315-1.214-.757a.689.689,0,0,1,.378-.646A6.839,6.839,0,0,0,186.218,42.331Zm-.142-2.712a.808.808,0,0,1-.836-.883.829.829,0,1,1,1.656,0A.813.813,0,0,1,186.076,39.619Zm5.266-1.545v4.21h-1.514V38.421c0-.3-.126-.378-.441-.394h-.126v-.962a3.651,3.651,0,0,1,.93-.11A.985.985,0,0,1,191.342,38.074ZM204,41.274V42.3a2.322,2.322,0,0,1-.773.11c-.93,0-1.34-.536-1.34-1.529V35.9c0-.3-.126-.378-.394-.394a.536.536,0,0,0-.158-.016v-.962a3.127,3.127,0,0,1,.9-.126c.788,0,1.151.347,1.151,1.072v5.172c0,.473.126.615.473.615H204Zm-2.98.063c-.3,0-.473-.079-.473-.41V38.909c0-1.356-.694-1.955-2.381-1.955a5.787,5.787,0,0,0-1.75.268v1.1a5.943,5.943,0,0,1,1.561-.237c.82,0,1.072.3,1.072.914v.126l-.93.016c-1.324.032-2.129.631-2.129,1.687a1.53,1.53,0,0,0,1.7,1.592,1.955,1.955,0,0,0,1.592-.82.939.939,0,0,0,1.088.82,2.516,2.516,0,0,0,.757-.11v-.962h-.11Zm-1.971-.489a1.166,1.166,0,0,1-.946.441.557.557,0,0,1-.631-.568c0-.426.284-.662,1.025-.694l.552-.016Zm-4.714-3.8h1.135v1.167h-1.135V40.47c0,.52.221.757.725.757a1.662,1.662,0,0,0,.394-.047v1.1a3,3,0,0,1-.867.11c-1.2,0-1.766-.631-1.766-1.908v-2.27h-.694V37.049h.694v-1.2l1.5-.173v1.372Zm-12.3-2.46a.733.733,0,0,1,.82.773.82.82,0,0,1-1.64.016A.73.73,0,0,1,182.039,34.589Zm.836,3.485v4.21h-1.514V38.421c0-.3-.126-.378-.441-.394h-.126v-.962a3.651,3.651,0,0,1,.93-.11C182.512,36.938,182.875,37.3,182.875,38.074Z" transform="translate(416.495 1342.945)"/>
    </g>
  </g>
</svg>
