<svg xmlns="http://www.w3.org/2000/svg" xmlns:xlink="http://www.w3.org/1999/xlink" width="13" height="15" viewBox="0 0 13 15"><defs><path id="q5vva" d="M746.16 2915.88a.49.49 0 0 0-.7-.7l-2.58 2.6a2.28 2.28 0 0 0-.68 1.62 2.3 2.3 0 0 0 3.94 1.63l5.84-5.83a3.2 3.2 0 0 0 0-4.55 3.22 3.22 0 0 0-4.56 0l-5.83 5.82a4.11 4.11 0 0 0 0 5.87 4.11 4.11 0 0 0 5.86 0l2.59-2.59a.49.49 0 0 0-.7-.7l-2.58 2.6a3.16 3.16 0 0 1-4.48 0 3.16 3.16 0 0 1 0-4.49l5.83-5.82a2.25 2.25 0 0 1 3.17 3.17l-5.84 5.84c-.51.5-1.36.5-1.88 0a1.33 1.33 0 0 1 0-1.89l2.6-2.58z"/></defs><g><g transform="translate(-740 -2909)"><use  xlink:href="#q5vva"/></g></g></svg>