<svg xmlns="http://www.w3.org/2000/svg" viewBox="0 0 22.602 18.359">
  <defs>
    <style>
      .cls-1 {
        fill: #999;
      }
    </style>
  </defs>
  <path id="Path_37" data-name="Path 37" class="cls-1" d="M22.6,59.613a9.259,9.259,0,0,1-2.662.73,4.656,4.656,0,0,0,2.038-2.563,9.347,9.347,0,0,1-2.946,1.126,4.64,4.64,0,0,0-7.9,4.227,13.163,13.163,0,0,1-9.556-4.844,4.642,4.642,0,0,0,1.435,6.189,4.637,4.637,0,0,1-2.1-.582v.058A4.641,4.641,0,0,0,4.629,68.5a4.7,4.7,0,0,1-1.222.162,4.45,4.45,0,0,1-.873-.086,4.639,4.639,0,0,0,4.33,3.22,9.3,9.3,0,0,1-5.758,1.981A9.854,9.854,0,0,1,0,73.714,13.106,13.106,0,0,0,7.108,75.8,13.1,13.1,0,0,0,20.3,62.609l-.016-.6A9.259,9.259,0,0,0,22.6,59.613Z" transform="translate(-0.001 -57.441)"/>
</svg>
