<svg xmlns="http://www.w3.org/2000/svg" viewBox="0 0 21.855 12.469">
  <defs>
    <style>
      .cls-1 {
        fill: #999;
      }
    </style>
  </defs>
  <path id="Path_35" data-name="Path 35" class="cls-1" d="M21.739,129.009a1.5,1.5,0,0,0-.074-.142,11.327,11.327,0,0,0-2.173-2.515l-.023-.023-.011-.011-.011-.011h-.011q-.728-.694-.922-.933a.876.876,0,0,1-.16-.922,8.592,8.592,0,0,1,1.024-1.49q.467-.6.74-.967,1.969-2.617,1.707-3.345l-.068-.113a.666.666,0,0,0-.353-.188,1.792,1.792,0,0,0-.728-.028l-3.277.023a.425.425,0,0,0-.228.006l-.148.034-.057.029-.045.034a.506.506,0,0,0-.125.119.781.781,0,0,0-.114.2,18.58,18.58,0,0,1-1.218,2.56q-.421.706-.774,1.223a5.885,5.885,0,0,1-.592.762,4.128,4.128,0,0,1-.433.393q-.194.148-.3.125l-.194-.046a.757.757,0,0,1-.256-.279,1.248,1.248,0,0,1-.131-.444q-.034-.268-.04-.461t.006-.546q.012-.353.011-.478,0-.432.017-.939t.029-.8q.012-.3.011-.626a2.629,2.629,0,0,0-.04-.518,1.771,1.771,0,0,0-.119-.364.613.613,0,0,0-.233-.273,1.315,1.315,0,0,0-.381-.154,7.572,7.572,0,0,0-1.536-.148,7.465,7.465,0,0,0-2.72.273,1.533,1.533,0,0,0-.432.341q-.2.25-.057.273a1.4,1.4,0,0,1,.967.489l.068.137a2.177,2.177,0,0,1,.159.523,5.281,5.281,0,0,1,.1.83,8.858,8.858,0,0,1,0,1.422q-.057.592-.108.922a1.846,1.846,0,0,1-.154.535,2.257,2.257,0,0,1-.137.25.2.2,0,0,1-.057.057.852.852,0,0,1-.307.057.721.721,0,0,1-.387-.159,2.73,2.73,0,0,1-.472-.438,5.856,5.856,0,0,1-.552-.779q-.307-.5-.637-1.183l-.182-.33q-.171-.319-.466-.927t-.523-1.178a.75.75,0,0,0-.273-.364l-.057-.034a.779.779,0,0,0-.182-.1,1.207,1.207,0,0,0-.262-.074l-3.118.023a.792.792,0,0,0-.649.216l-.046.068a.368.368,0,0,0-.034.182.906.906,0,0,0,.068.307q.683,1.6,1.485,3.1t1.394,2.4q.592.91,1.206,1.718t.814,1.035q.2.228.313.341l.285.273a6.751,6.751,0,0,0,.8.654,13.684,13.684,0,0,0,1.172.751,6.357,6.357,0,0,0,1.5.6,5.173,5.173,0,0,0,1.661.188H12a.906.906,0,0,0,.6-.25l.045-.057a.754.754,0,0,0,.085-.21,1.156,1.156,0,0,0,.04-.313,3.749,3.749,0,0,1,.074-.882,2.319,2.319,0,0,1,.194-.592,1.454,1.454,0,0,1,.245-.335.989.989,0,0,1,.194-.165.745.745,0,0,1,.091-.04.722.722,0,0,1,.643.177,3.777,3.777,0,0,1,.694.66q.324.393.779.882a5.356,5.356,0,0,0,.8.728l.227.137a2.771,2.771,0,0,0,.592.25,1.276,1.276,0,0,0,.637.057l2.913-.045a1.32,1.32,0,0,0,.671-.142.564.564,0,0,0,.285-.313.881.881,0,0,0,.006-.387A1.428,1.428,0,0,0,21.739,129.009Z" transform="translate(0 -117.748)"/>
</svg>
