<?xml version="1.0" encoding="utf-8"?><svg xmlns="http://www.w3.org/2000/svg" xmlns:xlink="http://www.w3.org/1999/xlink"><symbol viewBox="0 0 17 10" id="arrow-list" xmlns="http://www.w3.org/2000/svg"><defs><path id="aa" d="M632.99 1990.15l7.25 7.26 7.26-7.26"/></defs><use fill="#fff" fill-opacity="0" stroke-miterlimit="50" stroke-width="2" xlink:href="#aa" transform="translate(-632 -1989)"/></symbol><symbol viewBox="0 0 149.888 218.86" id="begemot" xmlns="http://www.w3.org/2000/svg"><defs><style>.bcls-1{fill:none}.bcls-2{clip-path:url(#bclip-path)}.bcls-3{fill:#3b3b3a}.bcls-10,.bcls-11,.bcls-3,.bcls-4,.bcls-5,.bcls-6,.bcls-7,.bcls-8,.bcls-9{fill-rule:evenodd}.bcls-5{fill:#597399}.bcls-6{fill:#f6f4f4}.bcls-7{fill:#fabf0a}.bcls-8{fill:#fff}.bcls-9{fill:#575656}.bcls-10{fill:#878786}.bcls-11{fill:#f39d9c}</style><clipPath id="bclip-path"><path class="bcls-1" d="M0 0h149.887v218.86H0z"/></clipPath></defs><g id="bRepeat_Grid_1" data-name="Repeat Grid 1" class="bcls-2"><g id="bGroup_9" data-name="Group 9" transform="translate(-.045 .008)"><path id="bPath_58" data-name="Path 58" class="bcls-3" d="M70.988 41c30.209 0 54.674 34.039 54.674 76.161 0 25.316-14.254 49.356-24.678 67.864-7.446 13.4-10.85 18.508-17.658 18.721-7.02.425-10.212-5.531-13.828-18.3-.638-2.127-2.127-2.34-4.468-2.127-2.34 0-3.829 0-4.468 2.127-3.617 12.764-6.808 18.721-13.828 18.3-6.808-.425-10.212-5.319-17.658-18.721C18.866 166.517 4.4 142.478 4.4 117.161 4.613 75.039 29.078 41 59.287 41a52.16 52.16 0 0 1 5.744.425A29.1 29.1 0 0 1 70.988 41z" transform="translate(4.91 46.233)"/><path id="bPath_59" data-name="Path 59" class="bcls-4" d="M71.213 40.7c15.317 0 29.146 8.722 39.144 22.551s16.168 33.188 16.168 54.249c0 24.04-12.764 47.016-22.976 65.1-.638 1.276-1.489 2.553-1.7 3.191-3.829 6.808-6.382 11.488-9.148 14.466-2.766 3.191-5.319 4.468-8.935 4.68s-6.382-1.276-8.722-4.468C72.915 197.49 71 192.6 69.3 186.215a1.866 1.866 0 0 0-1.276-1.489 8.767 8.767 0 0 0-2.553-.213 8.767 8.767 0 0 0-2.553.213 1.866 1.866 0 0 0-1.276 1.489c-1.915 6.382-3.617 11.063-5.744 14.254-2.34 3.191-5.106 4.68-8.722 4.468a11.405 11.405 0 0 1-8.935-4.68c-2.553-2.978-5.319-7.659-9.148-14.466a32.927 32.927 0 0 1-1.7-3.191C16.964 164.515 4.2 141.539 4.2 117.5c0-21.274 6.169-40.421 16.168-54.249C30.367 49.21 44.2 40.7 59.513 40.7a14.045 14.045 0 0 1 2.978.213c1.064 0 1.915.213 2.766.213a12.131 12.131 0 0 1 2.766-.213 17.2 17.2 0 0 1 3.191-.213zm38.293 23.189c-9.786-13.615-23.4-22.125-38.293-22.125h-2.765c-.851 0-1.915.213-2.766.213h-.213a12.131 12.131 0 0 0-2.766-.213h-2.765c-14.892 0-28.507 8.51-38.293 22.125C11.433 77.717 5.476 96.651 5.476 117.5c0 23.614 12.764 46.378 22.763 64.461.425.851.851 1.7 1.7 3.191 3.829 6.808 6.382 11.275 8.935 14.254 2.553 2.766 4.893 4.042 8.084 4.255a7.949 7.949 0 0 0 7.659-4.042c2.127-2.978 3.829-7.659 5.531-13.828a3.643 3.643 0 0 1 1.915-2.34 4.675 4.675 0 0 1 2.978-.213 12.173 12.173 0 0 1 2.978.213 3.134 3.134 0 0 1 1.915 2.34c1.7 6.382 3.4 10.85 5.531 13.828a8.787 8.787 0 0 0 7.659 4.042 10.962 10.962 0 0 0 8.084-4.255c2.553-2.978 5.319-7.446 8.935-14.254a55.273 55.273 0 0 0 1.7-3.191c10-17.87 22.763-40.634 22.763-64.461.644-20.849-5.313-39.783-15.099-53.611z" transform="translate(4.685 45.895)"/><path id="bPath_60" data-name="Path 60" class="bcls-5" d="M90.41 48.515L56.8 108.933 15.1 49.366a35.328 35.328 0 0 1 2.978-2.766z" transform="translate(16.973 52.547)"/><path id="bPath_61" data-name="Path 61" class="bcls-4" d="M91.471 48.653a.4.4 0 0 1 0 .638L57.646 109.71c-.213.213-.425.425-.851.213l-.213-.213-41.7-59.568a.647.647 0 0 1 0-.851l1.492-1.491a9.829 9.829 0 0 0 1.489-1.489c.213 0 .213-.213.425-.213l72.332 2.129c.425.213.638.425.851.425zm-34.251 59.78l32.549-58.716L18.5 47.589l-1.276 1.276-1.064 1.064z" transform="translate(16.551 51.983)"/><path id="bPath_62" data-name="Path 62" class="bcls-4" d="M46.594 86.547L40 98.674l-6.808-9.786 3.191-19.359L30 56.338l20-.638-7.236 13.828z" transform="translate(33.772 62.806)"/><path id="bPath_63" data-name="Path 63" class="bcls-4" d="M47.5 87.424l-6.8 11.913c-.213.213-.425.425-.851.213l-.213-.213-6.808-9.786c0-.213-.213-.213 0-.425l3.191-19.147-6.169-13.19c-.213-.213 0-.638.213-.851h.213l20-.638a.564.564 0 0 1 .638.638v.213l-7.239 13.615L47.5 86.573v.851zm-7.229 10.637L46.441 87l-3.83-16.808v-.425l6.808-12.977-18.083.425 5.957 12.552v.425L34.1 89.339z" transform="translate(33.5 62.355)"/><path id="bPath_64" data-name="Path 64" class="bcls-6" d="M59.251 113.2c-4.042 6.382-7.233 9.148-12.126 9.361s-7.871-2.553-10.424-8.51c17.444.425 22.55-.851 22.55-.851z" transform="translate(41.326 127.632)"/><path id="bPath_65" data-name="Path 65" class="bcls-4" d="M60.174 113.864c-2.127 3.191-3.829 5.531-5.957 7.02a12.06 12.06 0 0 1-6.808 2.553 8.355 8.355 0 0 1-6.382-2.127 19.914 19.914 0 0 1-4.68-6.808c-.213-.213 0-.638.213-.851h.213c5.957.213 10.424.213 13.615 0 6.595-.213 8.722-.851 8.722-.851.425 0 .638 0 .851.425.425.425.213.638.213.638zm-6.595 6.169a22.872 22.872 0 0 0 4.893-5.744q-1.915.319-7.659.638a125.739 125.739 0 0 1-12.764 0 13.222 13.222 0 0 0 3.829 5.319 7.463 7.463 0 0 0 5.744 1.7 7.782 7.782 0 0 0 5.957-1.913z" transform="translate(40.828 127.181)"/><path id="bPath_66" data-name="Path 66" class="bcls-6" d="M18.7 113.2c4.042 6.382 7.233 9.148 12.126 9.361s7.871-2.553 10.424-8.51c-17.657.425-22.55-.851-22.55-.851z" transform="translate(21.032 127.632)"/><path id="bPath_67" data-name="Path 67" class="bcls-4" d="M20.4 114.389a22.873 22.873 0 0 0 4.893 5.744 8.549 8.549 0 0 0 5.957 2.127 7.732 7.732 0 0 0 5.744-1.7 14.918 14.918 0 0 0 3.829-5.319 125.325 125.325 0 0 1-12.764 0c-4.042-.425-6.382-.638-7.659-.851zm4.042 6.595a29.866 29.866 0 0 1-5.957-7.02.4.4 0 0 1 0-.638c0-.425.425-.425.851-.425 0 0 2.127.638 8.722.851 3.4.213 7.871.213 13.615 0h.213c.213.213.425.425.213.851a16.768 16.768 0 0 1-4.68 6.808 9.644 9.644 0 0 1-6.382 2.127 12 12 0 0 1-6.596-2.554z" transform="translate(20.609 127.294)"/><path id="bPath_68" data-name="Path 68" class="bcls-3" d="M59.177 55.1S88.11 68.29 87.259 90.628c-.638 22.338-19.147 29.146-23.614 28.72S49.817 111.9 59.6 96.585c10-15.531-17.229-11.485-.423-41.485z" transform="translate(60.333 62.13)"/><path id="bPath_69" data-name="Path 69" class="bcls-4" d="M58.383 56.01c-.213-.213-.425-.425-.213-.851.213-.213.425-.425.851-.213 0 0 29.146 13.19 28.507 35.953a14.045 14.045 0 0 1-.213 2.978 30.4 30.4 0 0 1-10.85 20.849c-5.106 4.042-10.424 5.744-12.977 5.744h-.425a10.9 10.9 0 0 1-3.829-1.489 10.774 10.774 0 0 1-3.829-4.255 12.27 12.27 0 0 1-1.276-7.02A27.9 27.9 0 0 1 58.6 96.644a11.267 11.267 0 0 0 2.127-5.957 7.917 7.917 0 0 0-1.489-4.255.62.62 0 1 1 1.064-.638A8.031 8.031 0 0 1 62 90.687a11.823 11.823 0 0 1-2.34 6.595 28.2 28.2 0 0 0-4.26 10.425 11.891 11.891 0 0 0 1.064 6.382 10.045 10.045 0 0 0 3.4 3.829 7.7 7.7 0 0 0 3.191 1.276h.213c2.34 0 7.233-1.489 12.126-5.319a28.359 28.359 0 0 0 10.212-20c0-.851.213-1.915.213-2.766C86.89 68.775 58.383 56.01 58.383 56.01z" transform="translate(60.914 61.858)"/><path id="bPath_70" data-name="Path 70" class="bcls-3" d="M20.512 55.1S-4.591 74.459 1.153 96.159C6.9 117.646 26.469 120.2 30.724 118.71s11.7-10.424-1.276-23.189C16.257 82.969 43.7 80.416 20.512 55.1z" transform="translate(.286 62.13)"/><path id="bPath_71" data-name="Path 71" class="bcls-4" d="M20.373 54.985a.6.6 0 0 1 .851.851S-3.454 74.982 2.077 96.256c.213.851.638 1.915.851 2.766 3.191 9.148 8.935 14.254 14.679 17.019 5.531 2.766 10.85 2.978 12.977 2.553h.216a7.24 7.24 0 0 0 2.766-1.915 11.233 11.233 0 0 0 2.553-4.468 11.965 11.965 0 0 0-.425-6.595 24.752 24.752 0 0 0-6.382-9.148c-2.553-2.553-3.617-4.68-3.829-6.808a9.346 9.346 0 0 1 1.489-5.744c.213-.213.425-.425.851-.213.213.213.425.425.213.851a9.129 9.129 0 0 0-1.276 5.106c.213 1.7 1.064 3.617 3.617 5.957 3.617 3.617 5.744 6.808 6.808 9.786a12.283 12.283 0 0 1 .425 7.233 8.53 8.53 0 0 1-2.766 4.893 10.867 10.867 0 0 1-3.4 2.34h-.434c-2.34.638-8.084.425-13.828-2.553-5.744-2.766-11.913-8.3-15.317-17.658-.213-.851-.638-1.915-.851-2.766-6.17-22.335 19.146-41.907 19.359-41.907z" transform="translate(0 61.82)"/><path id="bPath_72" data-name="Path 72" class="bcls-5" d="M77.613 91.721c-5.531 5.531-12.339 7.659-14.892 7.233-4.468-.425-13.828-7.446-4.042-22.763A23.252 23.252 0 0 0 60.381 73c7.871 2.34 14.254 9.361 17.232 18.721z" transform="translate(61.256 82.31)"/><path id="bPath_73" data-name="Path 73" class="bcls-4" d="M78.381 92.485a27.745 27.745 0 0 1-7.659 5.315 18.033 18.033 0 0 1-7.659 2.127 10.9 10.9 0 0 1-3.829-1.489 10.774 10.774 0 0 1-3.834-4.251 12.27 12.27 0 0 1-1.276-7.02A27.9 27.9 0 0 1 58.6 76.1a12.2 12.2 0 0 0 .851-1.489c.213-.425.425-1.064.638-1.489.213-.213.425-.425.638-.425a22.484 22.484 0 0 1 10.633 6.598 31.8 31.8 0 0 1 7.02 12.339c.213.638.213.851 0 .851zM70.3 96.952a28.057 28.057 0 0 0 7.02-4.893 31.947 31.947 0 0 0-6.595-11.488 21.263 21.263 0 0 0-9.573-6.17c-.213.425-.213.638-.425 1.064a7.463 7.463 0 0 1-1.064 1.7A28.2 28.2 0 0 0 55.4 87.592a11.891 11.891 0 0 0 1.064 6.382 10.045 10.045 0 0 0 3.4 3.829 7.7 7.7 0 0 0 3.191 1.276 18.356 18.356 0 0 0 7.245-2.127z" transform="translate(60.914 81.972)"/><path id="bPath_74" data-name="Path 74" class="bcls-5" d="M7 95.038c6.808 4.255 13.828 4.468 16.168 3.617 4.255-1.489 11.7-10.424-1.276-23.189a13.487 13.487 0 0 1-2.34-2.766C12.319 76.742 7.851 85.252 7 95.038z" transform="translate(7.841 81.972)"/><path id="bPath_75" data-name="Path 75" class="bcls-4" d="M7.976 95.1a29.129 29.129 0 0 0 7.871 3.191 14.749 14.749 0 0 0 7.446.213 7.24 7.24 0 0 0 2.766-1.915 11.233 11.233 0 0 0 2.553-4.468 11.965 11.965 0 0 0-.425-6.595 24.752 24.752 0 0 0-6.387-9.15 9.253 9.253 0 0 1-1.276-1.489c-.213-.213-.425-.638-.638-.851a21.17 21.17 0 0 0-7.871 8.3A27.412 27.412 0 0 0 7.976 95.1zm7.659 4.255a28.306 28.306 0 0 1-8.51-3.617c-.213-.213-.425-.425-.425-.638a30.955 30.955 0 0 1 4.042-13.615 22.07 22.07 0 0 1 8.722-8.935c.213-.213.638 0 .851.213.213.425.638.851.851 1.276l1.276 1.276c3.617 3.617 5.744 6.808 6.808 9.786a12.283 12.283 0 0 1 .425 7.233 8.53 8.53 0 0 1-2.766 4.893 10.867 10.867 0 0 1-3.4 2.34c-1.279.633-4.257.633-7.874-.215z" transform="translate(7.503 81.7)"/><path id="bPath_76" data-name="Path 76" class="bcls-7" d="M72.475 70.713l-15.956.638H39.5V78.8h1.064v-6.385h16.168c5.319 0 10.637-.213 16.168-.638.213 2.34.425 4.893.425 7.233s-.213 4.893-.425 7.233c-4.255.213-8.51.213-12.764.425H47.159c-.851.851-1.915 1.489-2.766 2.34v-2.34h-1.064v4.468c1.489-1.064 2.766-2.34 4.255-3.4h12.765c4.255 0 8.51-.213 12.764-.213h1.064c.213-2.553.425-5.319.425-7.871a48.832 48.832 0 0 0-.425-7.871c0-.425-.213-.851-.213-1.276a4.154 4.154 0 0 1-1.489.208z" transform="translate(44.482 79.492)"/><g id="bGroup_7" data-name="Group 7" transform="translate(87.386 154.672)"><path id="bPath_77" data-name="Path 77" class="bcls-8" d="M45.342 73.338c-.213-.213-.425-.425-.638-.425a1.279 1.279 0 0 0-.851-.213H41.3v6.808h1.276v-2.553h1.276c.425 0 .638 0 .851-.213s.425-.213.638-.425.425-.425.425-.638.213-.425.213-.851a1.608 1.608 0 0 0-.213-.851c-.213-.213-.213-.638-.425-.638zm-.851 1.7l-.213.213-.213.213h-1.489v-1.7h1.7a.208.208 0 0 1 .213.213l.213.213v.425c-.211.212-.211.212-.211.425z" transform="translate(-40.875 -72.7)"/><path id="bPath_78" data-name="Path 78" class="bcls-8" d="M48.58 78.544v-1.7c0-.213 0-.213-.213-.425 0-.213-.213-.213-.213-.425.213-.213.213-.425.425-.425a1.279 1.279 0 0 0 .213-.851.782.782 0 0 0-.213-.638c0-.213-.213-.425-.425-.638s-.425-.425-.638-.425a1.279 1.279 0 0 0-.851-.213H43.9v6.808h1.276v-2.557h1.915a.208.208 0 0 1 .213.213.208.208 0 0 0 .213.213v1.915a.208.208 0 0 0 .213.213v.213h1.489c0-.213-.213-.213-.213-.425-.425-.638-.425-.638-.425-.851zm-1.489-3.617a.208.208 0 0 1-.213.213l-.213.213h-1.914v-1.7h1.915a.208.208 0 0 1 .213.213l.213.213v.851z" transform="translate(-37.943 -72.587)"/><path id="bPath_79" data-name="Path 79" class="bcls-8" d="M41.951 77.364c-.213-.425-.213-.851-.425-1.064H41.1V78h.213v-1.062c.213.425.213.638.425 1.064h.213c.213-.425.213-.638.425-1.064V78h.213v-1.7h-.425a.935.935 0 0 1-.213 1.064z" transform="translate(-41.1 -68.641)"/><path id="bPath_80" data-name="Path 80" class="bcls-8" d="M43.8 77.464v-.851l-.213-.213h-.851l-.213.213v.213h.213v-.213H42.1v.851h1.276c.638.213.638.213.425 0zm-.213 0c-.213.213-.213.213-.425.213.213-.425.213-.425.425-.213z" transform="translate(-39.973 -68.529)"/><path id="bPath_81" data-name="Path 81" class="bcls-8" d="M44.351 76.713a.782.782 0 0 0-.638-.213H43.5v1.7h.213v-.425h.638a.208.208 0 0 0 .213-.213.208.208 0 0 1 .213-.213v-.213l-.425-.425zm-.213.425a.659.659 0 0 1-.425.213V76.5h.425v.638z" transform="translate(-38.394 -68.416)"/><path id="bPath_82" data-name="Path 82" class="bcls-8" d="M44.713 77.138V76.5H44.5v1.276h.425c.213-.213.213-.425.425-.638v.638h.213V76.5h-.425c0 .213-.213.425-.425.638z" transform="translate(-37.267 -68.416)"/><path id="bPath_83" data-name="Path 83" class="bcls-8" d="M45.713 77.138V76.5H45.5v1.276h.425c.213-.213.213-.425.425-.638v.638h.213V76.5h-.425c0 .213-.213.425-.425.638z" transform="translate(-36.139 -68.416)"/><path id="bPath_84" data-name="Path 84" class="bcls-8" d="M48.789 77.576h-.425V76.3h-.425v1.276h-.425V76.3H47.3V78h1.915v-1.7H49a2.7 2.7 0 0 0-.211 1.276z" transform="translate(-34.11 -68.641)"/><path id="bPath_85" data-name="Path 85" class="bcls-8" d="M50.115 77.464v-.851L49.9 76.4h-.851l-.213.213v.213h.213v-.213h-.638l-.213.213v.638h1.276c.851.213.851.213.638 0zm-.213-.213c-.213.213-.213.213-.425.213.213-.213.213-.213.425-.213z" transform="translate(-33.095 -68.529)"/><path id="bPath_86" data-name="Path 86" class="bcls-8" d="M50.876 76.5h-.425c0 .213-.213.213-.213.425 0-.213-.213-.213-.213-.425H49.6c.213.213.213.425.425.638-.213.213-.425.425-.425.638h.425c0-.213.213-.213.213-.425 0 .213.213.213.213.425h.425c-.213-.213-.213-.425-.425-.638.213-.425.213-.638.425-.638z" transform="translate(-31.517 -68.416)"/><path id="bPath_87" data-name="Path 87" class="bcls-8" d="M51.664 76.613a1.646 1.646 0 0 0-.638-.213.208.208 0 0 0-.213.213.208.208 0 0 1-.213.213v.638a.208.208 0 0 1 .213.213h.425a.208.208 0 0 0 .213-.213.208.208 0 0 1 .213-.213v-.213c.213 0 .213-.213 0-.425zm-.213.638c-.213.213-.213.213-.425.213v-.851h.425v.638z" transform="translate(-30.39 -68.529)"/><path id="bPath_88" data-name="Path 88" class="bcls-8" d="M52.551 76.925a.208.208 0 0 1 .213-.213V76.5H51.7v1.276h1.064v-.425a.743.743 0 0 0-.213-.425zm-.638-.425h.213c0 .213 0 .213-.213 0zm.425.638h-.425v-.213c.213 0 .213 0 .425.213z" transform="translate(-29.149 -68.416)"/><path id="bPath_89" data-name="Path 89" class="bcls-8" d="M53.664 76.513a1.646 1.646 0 0 0-.638-.213.208.208 0 0 0-.213.213.208.208 0 0 1-.213.213v.638a.208.208 0 0 1 .213.213h.425a.208.208 0 0 0 .213-.213.208.208 0 0 1 .213-.213v-.213c.213 0 .213 0 0-.425zm-.213.638c-.213.213-.213.213-.425.213v-.851h.425v.638z" transform="translate(-28.135 -68.641)"/><path id="bPath_90" data-name="Path 90" class="bcls-8" d="M54.225 76.313c-.213 0-.213-.213 0 0a.659.659 0 0 0-.425-.213v.425h.638c-.213 0 0 0-.213-.213.213.213.213 0 .213 0V76.1a.208.208 0 0 0-.213.213z" transform="translate(-26.782 -68.867)"/><path id="bPath_91" data-name="Path 91" class="bcls-8" d="M54.338 76.3c-.213.213-.213.425-.425.851v-.638H53.7v1.276h.425c.213-.213.213-.425.425-.851v.638h.213V76.3z" transform="translate(-26.895 -68.641)"/><path id="bPath_92" data-name="Path 92" class="bcls-8" d="M47.564 74.2H46.5v.638h1.064z" transform="translate(-35.012 -71.009)"/></g><g id="bGroup_8" data-name="Group 8" transform="translate(101.002 156.8)"><path id="bPath_93" data-name="Path 93" class="bcls-8" d="M48.776 75.176v.424h-.425v-.213c-.213.213-.213.213-.425.213-.425 0-.425-.213-.425-.425 0-.425.425-.638.851-.638a.208.208 0 0 0-.213-.213c-.213 0-.425 0-.425.213v-.425a2.143 2.143 0 0 1 .638-.213c.638 0 .638.213.638.638a.782.782 0 0 0-.213.638zm-.638-.425c-.213 0-.425 0-.425.213a.208.208 0 0 0 .213.213.743.743 0 0 0 .213-.425z" transform="translate(-47.5 -73.475)"/><path id="bPath_94" data-name="Path 94" class="bcls-8" d="M49.476 73.9v.425h-.638v1.064H48.2V73.9z" transform="translate(-46.711 -73.475)"/><path id="bPath_95" data-name="Path 95" class="bcls-8" d="M49.438 74.851c0 .213.213.213.425.213h.425v.425c-.213 0-.425.213-.638.213-.638 0-.851-.213-.851-.851a.779.779 0 0 1 .852-.851c.425 0 .638.425.638.851v.213a1.279 1.279 0 0 0-.851-.213zm.425-.426a.213.213 0 0 0-.425 0z" transform="translate(-46.034 -73.362)"/><path id="bPath_96" data-name="Path 96" class="bcls-8" d="M50.238 73.9v.638h.425V73.9h.637v1.489h-.638v-.638h-.425v.638H49.6V73.9z" transform="translate(-45.132 -73.475)"/><path id="bPath_97" data-name="Path 97" class="bcls-8" d="M51.989 73.8v.425h-.425v1.064h-.638v-1.064H50.5V73.8a1.8 1.8 0 0 0 1.489 0z" transform="translate(-44.118 -73.587)"/><path id="bPath_98" data-name="Path 98" class="bcls-8" d="M52.476 75.5h-.425a.851.851 0 0 1 0-1.7h.425v.425h-.213a.425.425 0 1 0 0 .851h.213z" transform="translate(-43.329 -73.587)"/><path id="bPath_99" data-name="Path 99" class="bcls-8" d="M53.389 73.8v.425h-.425v1.064h-.638v-1.064H51.9V73.8z" transform="translate(-42.539 -73.587)"/><path id="bPath_100" data-name="Path 100" class="bcls-8" d="M52.813 73.8h.638c.213 0 .851 0 .851.425 0 .213-.213.213-.425.425a.458.458 0 0 1 .425.425c0 .425-.638.425-1.064.638H52.6a6.563 6.563 0 0 0 .213-1.915zm.425 1.276c.213 0 .425 0 .425-.213a.208.208 0 0 0-.213-.213h-.213v.425zm0-.638c.213 0 .425 0 .425-.213a.208.208 0 0 0-.213-.213h-.213l.001.426z" transform="translate(-41.75 -73.587)"/><path id="bPath_101" data-name="Path 101" class="bcls-8" d="M54.351 75.4a.779.779 0 0 1-.851-.851.915.915 0 0 1 .851-.851.851.851 0 1 1 0 1.7zm0-.425c.213 0 .213-.213.213-.425s0-.425-.213-.425-.213.213-.213.425 0 .425.213.425z" transform="translate(-40.736 -73.7)"/></g><path id="bPath_102" data-name="Path 102" class="bcls-6" d="M74.458 92.57c-4.68 3.617-9.573 4.893-11.7 4.68-4.469-.425-13.829-7.45-4.258-22.55 7.235 2.34 13.192 9.148 15.958 17.87z" transform="translate(61.221 84.227)"/><path id="bPath_103" data-name="Path 103" class="bcls-4" d="M74.964 93.593A25.783 25.783 0 0 1 68.795 97a15.537 15.537 0 0 1-5.744 1.276 10.041 10.041 0 0 1-3.617-1.489A9.412 9.412 0 0 1 55.6 92.53a12.657 12.657 0 0 1-1.272-7.23c.213-2.978 1.489-6.595 4.255-10.637.213-.213.425-.425.638-.213a23.393 23.393 0 0 1 9.786 6.808 32.926 32.926 0 0 1 6.595 11.7c-.425.213-.425.426-.638.638zm-6.808 2.34a26.676 26.676 0 0 0 5.744-3.191 33.631 33.631 0 0 0-6.169-10.85 21.95 21.95 0 0 0-8.722-6.169 26.266 26.266 0 0 0-3.829 9.786 11.891 11.891 0 0 0 1.064 6.382 10.046 10.046 0 0 0 3.4 3.829A12.443 12.443 0 0 0 62.838 97a14.538 14.538 0 0 0 5.318-1.066z" transform="translate(61.14 83.842)"/><path id="bPath_104" data-name="Path 104" class="bcls-8" d="M8.7 95.374c5.531 2.34 10.424 2.553 12.339 1.7 4.255-1.489 11.7-10.424-1.064-22.976C13.806 78.355 9.551 86.226 8.7 95.374z" transform="translate(9.758 83.551)"/><path id="bPath_105" data-name="Path 105" class="bcls-4" d="M9.564 95.146a24.5 24.5 0 0 0 6.169 1.7 14.423 14.423 0 0 0 5.319 0 5.462 5.462 0 0 0 2.766-1.915 9.19 9.19 0 0 0 2.553-4.468 11.965 11.965 0 0 0-.425-6.595 23.546 23.546 0 0 0-5.957-8.722 20.052 20.052 0 0 0-7.02 8.084 42.92 42.92 0 0 0-3.4 11.913zm6.169 2.978a21.986 21.986 0 0 1-6.808-1.914c-.213 0-.425-.425-.425-.638a34.339 34.339 0 0 1 3.617-12.764 22.416 22.416 0 0 1 7.871-8.722.647.647 0 0 1 .851 0 28.154 28.154 0 0 1 6.595 9.361 10.786 10.786 0 0 1 .425 7.233 11.773 11.773 0 0 1-2.766 5.106 8.29 8.29 0 0 1-3.193 2.126 14.265 14.265 0 0 1-6.167.212z" transform="translate(9.533 83.353)"/><path id="bPath_106" data-name="Path 106" class="bcls-4" d="M107.995 96.61a.673.673 0 0 1 .425 1.276l-32.762 10.638h-.638L60.979 97.461C58.852 99.588 48 109.587 45.662 110.225c-1.7.425-10.85 0-20-1.915-5.531-1.276-11.275-3.191-15.1-5.957-.213-.213-.425-.638-.213-.851s.638-.425.851-.213c3.617 2.553 9.148 4.468 14.679 5.744 8.935 1.915 17.87 2.34 19.359 1.915 2.34-.638 14.679-12.339 15.317-12.764a.647.647 0 0 1 .851 0l14.041 11.063z" transform="translate(11.515 108.269)"/><path id="bPath_107" data-name="Path 107" class="bcls-9" d="M18.378 48.2L15.4 71.814l20.423 7.659z" transform="translate(17.312 54.351)"/><path id="bPath_108" data-name="Path 108" class="bcls-4" d="M19.142 50.387l-2.766 21.487 18.508 6.808-15.742-28.295zM15.1 72.086l2.978-23.614a.743.743 0 0 1 .213-.425c.213-.213.638 0 .851.213l17.445 31.272c0 .213.213.425 0 .638a1.105 1.105 0 0 1-.851.425l-20.423-7.658c0-.425-.213-.637-.213-.851z" transform="translate(16.973 54.078)"/><path id="bPath_109" data-name="Path 109" class="bcls-9" d="M57.889 56.4l3.617 21.274L34.7 97.885z" transform="translate(39.071 63.595)"/><path id="bPath_110" data-name="Path 110" class="bcls-4" d="M58.737 56.572l3.617 21.274a.782.782 0 0 1-.213.638L35.336 98.695a.526.526 0 0 1-.851-.213.4.4 0 0 1 0-.638l23.188-41.485c.213-.213.425-.425.851-.213a.659.659 0 0 1 .213.425zm2.553 21.274L57.886 58.7 37.037 96.142z" transform="translate(38.648 63.21)"/><path id="bPath_111" data-name="Path 111" class="bcls-9" d="M50.371 94.051L20.8 73.628 26.331 59.8z" transform="translate(23.4 67.429)"/><path id="bPath_112" data-name="Path 112" class="bcls-4" d="M50.33 94.928L20.759 74.5c-.213-.213-.425-.425-.213-.638l5.531-14.041a1.105 1.105 0 0 1 .851-.425.208.208 0 0 1 .213.213l24.04 34.251a.526.526 0 0 1-.213.851c-.213.425-.425.425-.638.213zM21.823 73.866l26.38 18.3-21.274-30.851z" transform="translate(23.015 66.978)"/><path id="bPath_113" data-name="Path 113" class="bcls-6" d="M75.715 32.852c-2.553-3.191-7.659-1.489-11.7 3.829s-5.106 12.339-2.766 15.53 7.659 1.489 11.7-3.829 5.319-12.339 2.766-15.53z" transform="translate(67.622 35.234)"/><path id="bPath_114" data-name="Path 114" class="bcls-4" d="M75.4 33.594c-.213-.213-.425-.638-.851-.638a3.692 3.692 0 0 0-2.978-.638 10.125 10.125 0 0 0-3.829 1.7 16.613 16.613 0 0 0-3.191 3.4 19.082 19.082 0 0 0-3.617 8.3c-.425 2.766-.213 5.106 1.064 6.595.213.213.425.638.851.638a3.692 3.692 0 0 0 2.978.638 10.125 10.125 0 0 0 3.829-1.7 16.613 16.613 0 0 0 3.191-3.4 19.082 19.082 0 0 0 3.617-8.3c.425-2.766 0-5.106-1.064-6.595zm0-1.7c.425.213.638.638 1.064 1.064 1.276 1.7 1.7 4.468 1.276 7.446a21.939 21.939 0 0 1-3.829 8.935 18.787 18.787 0 0 1-3.4 3.617 15.858 15.858 0 0 1-4.255 2.127 4.743 4.743 0 0 1-3.829-.851c-.425-.213-.638-.638-1.064-1.064-1.276-1.7-1.7-4.468-1.276-7.446a21.939 21.939 0 0 1 3.829-8.935 18.787 18.787 0 0 1 3.4-3.617 15.857 15.857 0 0 1 4.255-2.127 4.743 4.743 0 0 1 3.829.849z" transform="translate(67.51 34.919)"/><path id="bPath_115" data-name="Path 115" class="bcls-10" d="M72.55 33.777c-1.7-2.127-5.319-1.064-7.871 2.553-2.766 3.617-3.617 8.51-1.915 10.637s5.319 1.064 7.871-2.553C73.4 40.8 74.252 35.9 72.55 33.777z" transform="translate(69.723 36.863)"/><path id="bPath_116" data-name="Path 116" class="bcls-4" d="M72.326 34.57c-.213-.213-.213-.425-.425-.425-.425-.425-1.064-.425-1.915-.425A7.189 7.189 0 0 0 67.432 35a11.638 11.638 0 0 0-2.127 2.34 16.126 16.126 0 0 0-2.553 5.531c-.213 1.7-.213 3.4.638 4.255.213.213.213.425.425.425.425.425 1.064.425 1.915.425a4.838 4.838 0 0 0 2.553-1.276 11.639 11.639 0 0 0 2.127-2.34 16.126 16.126 0 0 0 2.553-5.531c.425-1.7.213-3.4-.638-4.255zm.213-1.489l.638.638a7.144 7.144 0 0 1 .851 5.319 15.844 15.844 0 0 1-2.766 6.169 13.9 13.9 0 0 1-2.34 2.553 7.772 7.772 0 0 1-2.978 1.489 3.226 3.226 0 0 1-2.766-.638l-.638-.638a7.144 7.144 0 0 1-.851-5.319 15.844 15.844 0 0 1 2.766-6.169 13.9 13.9 0 0 1 2.34-2.553 7.772 7.772 0 0 1 2.978-1.489 3.068 3.068 0 0 1 2.765.638z" transform="translate(69.31 36.495)"/><path id="bPath_117" data-name="Path 117" class="bcls-6" d="M29.976.523c3.617-.638 8.084 5.957 9.786 14.892s-3.4 17.445-3.4 17.445-8.088-5.96-9.79-14.893C24.87 9.245 26.36 1.374 29.976.523z" transform="translate(29.115 .551)"/><path id="bPath_118" data-name="Path 118" class="bcls-4" d="M30.183.334c2.127-.425 4.255 1.276 6.169 4.042a30.46 30.46 0 0 1 4.255 11.275c1.7 9.148-3.617 17.87-3.617 17.87a.408.408 0 0 1-.638.213s-8.3-6.169-10-15.317a33.474 33.474 0 0 1-.213-12.126c.425-3.4 1.915-5.531 4.042-5.957zM35.5 5.015c-1.7-2.553-3.4-3.83-5.1-3.615-1.489.213-2.766 2.34-3.4 5.106a30.078 30.078 0 0 0 .2 11.486c1.489 7.233 7.233 12.552 9.148 14.041 1.064-2.127 4.468-9.148 3.191-16.381A30.873 30.873 0 0 0 35.5 5.015z" transform="translate(28.908 .313)"/><path id="bPath_119" data-name="Path 119" class="bcls-6" d="M45.3.31c3.4.213 5.744 7.446 4.893 15.743-.638 8.3-7.659 14.679-7.659 14.679s-5.744-7.446-4.893-15.743C38.5 6.48 41.9-.115 45.3.31z" transform="translate(42.295 .337)"/><path id="bPath_120" data-name="Path 120" class="bcls-4" d="M45.724.009c1.915.213 3.617 2.127 4.68 5.319a30.011 30.011 0 0 1 .851 11.063c-.851 8.722-7.871 15.1-7.871 15.1a.647.647 0 0 1-.851 0c-.213-.213-5.744-7.659-5.106-16.168a35.033 35.033 0 0 1 2.766-10.85C41.682 1.5 43.6-.2 45.724.009zm3.4 5.531C48.277 2.988 47 1.286 45.511 1.073S42.533 2.35 41.256 4.9a30.735 30.735 0 0 0-2.766 10.424c-.638 6.808 3.191 12.977 4.468 14.679 1.489-1.489 6.382-7.02 6.808-13.828a24.6 24.6 0 0 0-.638-10.634z" transform="translate(42.088)"/><path id="bPath_121" data-name="Path 121" class="bcls-11" d="M29.567 4.015c2.34-.425 5.319 4.042 6.382 10.212 1.277 6.173-2.127 11.913-2.127 11.913S28.5 22.1 27.44 15.928 27.227 4.44 29.567 4.015z" transform="translate(30.375 4.504)"/><path id="bPath_122" data-name="Path 122" class="bcls-4" d="M29.823 3.714c1.489-.213 2.978.851 4.255 2.978a22.546 22.546 0 0 1 2.978 7.871c1.276 6.383-2.127 12.337-2.127 12.337-.213.213-.638.425-.851.213h-.213c-.425-.425-5.531-4.468-6.595-10.637a22.144 22.144 0 0 1-.213-8.3c.213-2.553 1.276-4.255 2.766-4.468zm3.191 3.617c-1.064-1.7-2.127-2.553-2.978-2.34s-1.489 1.489-1.915 3.4a24.956 24.956 0 0 0 .213 7.871c.851 4.68 4.255 8.084 5.744 9.361a18.563 18.563 0 0 0 1.7-10.85c-.637-3.187-1.488-5.74-2.764-7.442z" transform="translate(30.12 4.167)"/><path id="bPath_123" data-name="Path 123" class="bcls-11" d="M44.479 3.615c1.915.425 2.766 5.319 1.915 10.85a19.366 19.366 0 0 1-4.894 9.786s-2.766-5.319-1.915-10.85c.852-5.744 2.98-10.212 4.894-9.786z" transform="translate(44.396 4.053)"/><path id="bPath_124" data-name="Path 124" class="bcls-4" d="M44.923 3.314c1.276.213 2.127 1.7 2.553 4.042a22.978 22.978 0 0 1 0 7.659 18.907 18.907 0 0 1-5.106 10 .647.647 0 0 1-.851 0 .208.208 0 0 0-.213-.213 20.455 20.455 0 0 1-1.915-11.275 1.279 1.279 0 0 1 .213-.851 19.965 19.965 0 0 1 2.128-6.596c.638-1.915 1.915-2.978 3.191-2.766zm1.064 4.042c-.213-1.7-.851-2.766-1.489-2.978-.638 0-1.276.638-2.127 2.127a20.676 20.676 0 0 0-1.915 6.382 1.279 1.279 0 0 1-.213.851 19.552 19.552 0 0 0 1.489 9.786 16.584 16.584 0 0 0 4.042-8.724 17.888 17.888 0 0 0 .213-7.444z" transform="translate(44.165 3.716)"/><path id="bPath_125" data-name="Path 125" class="bcls-6" d="M60.165 11.3c22.338 0 36.166 16.381 40.208 38.719 19.359 3.617 33.4 14.041 33.4 32.762 0 23.4-21.912 34.251-49.143 34.251a67.956 67.956 0 0 1-14.892-1.7 34.678 34.678 0 0 1-9.573 1.489C38.252 116.82 14 97.673 14 74.484a36.268 36.268 0 0 1 5.319-18.934C21.871 30.234 36.125 11.3 60.165 11.3z" transform="translate(15.733 12.749)"/><path id="bPath_126" data-name="Path 126" class="bcls-4" d="M60.39 11c10.85 0 19.785 3.829 26.593 10.424 7.233 7.02 11.914 16.807 14.041 28.507 10 1.915 18.721 5.744 24.678 11.488a29.648 29.648 0 0 1 8.722 21.7 30.111 30.111 0 0 1-13.19 25.529c-9.148 6.382-22.125 9.361-36.379 9.361-2.553 0-5.106-.213-7.659-.425a39.516 39.516 0 0 1-7.233-1.276 37.054 37.054 0 0 1-4.68 1.064 37.981 37.981 0 0 1-4.893.425c-11.488 0-23.614-5.106-32.549-13.4C19.544 96.735 13.8 86.31 13.8 74.822a39.043 39.043 0 0 1 1.276-10 34.712 34.712 0 0 1 3.829-9.148c1.489-12.977 5.957-24.465 13.4-32.549C39.116 15.468 48.69 11 60.39 11zm25.742 11.275c-6.595-6.382-15.1-10-25.742-10-11.488 0-20.636 4.255-27.231 11.488-7.233 7.871-11.7 19.147-12.977 31.911v.213a34.712 34.712 0 0 0-3.829 9.148 37.017 37.017 0 0 0-1.276 9.573c0 11.063 5.531 21.061 13.615 28.507 8.722 8.084 20.636 13.19 31.911 13.19a31.866 31.866 0 0 0 4.68-.425 37.048 37.048 0 0 0 4.68-1.064h.213c2.34.425 4.68.851 7.233 1.276 2.34.213 4.893.425 7.446.425 14.254 0 27.018-2.978 35.741-9.148a28.641 28.641 0 0 0 12.764-24.463c0-8.722-3.191-15.743-8.51-20.849-5.957-5.744-14.466-9.573-24.465-11.275-.213 0-.425-.213-.638-.425-1.914-11.488-6.382-21.274-13.615-28.082z" transform="translate(15.508 12.411)"/><path id="bPath_127" data-name="Path 127" class="bcls-4" d="M30.436 41.477a.6.6 0 0 1-.851-.851A51.772 51.772 0 0 1 46.6 31.691 71.068 71.068 0 0 1 67.24 28.5c14.466 0 27.444 2.978 36.379 9.361 8.3 5.744 13.19 14.041 13.19 25.529a30.111 30.111 0 0 1-13.19 25.529c-9.148 6.381-22.126 9.36-36.379 9.36a66.482 66.482 0 0 1-14.892-1.7A64.05 64.05 0 0 1 38.732 91.9c-.213-.213-.425-.425-.213-.851.213-.213.425-.425.851-.213a62.133 62.133 0 0 0 13.4 4.68A66.085 66.085 0 0 0 67.452 97c14.254 0 27.018-2.978 35.741-9.148a28.641 28.641 0 0 0 12.764-24.462 28.641 28.641 0 0 0-12.764-24.465c-8.935-6.169-21.7-9.148-35.741-9.148a68.212 68.212 0 0 0-20.21 2.978 52.238 52.238 0 0 0-16.806 8.722z" transform="translate(33.124 32.141)"/><path id="bPath_128" data-name="Path 128" class="bcls-4" d="M45.558 46.559c.213.213 0 .638-.213.851s-.638 0-.851-.213a19.465 19.465 0 0 1-2.766-7.871A9.868 9.868 0 0 1 43 32.943c.213-.213.425-.638.851-.851a5.332 5.332 0 0 1 4.049-1.063 8.639 8.639 0 0 1 4.468 2.127 16.948 16.948 0 0 1 2.766 2.766.6.6 0 0 1-.851.851 14.442 14.442 0 0 0-2.553-2.553 6.7 6.7 0 0 0-3.829-1.7 3.692 3.692 0 0 0-2.978.638l-.638.638c-1.064 1.276-1.276 3.4-1.064 5.531a14.451 14.451 0 0 0 2.337 7.232z" transform="translate(46.934 34.93)"/><path id="bPath_129" data-name="Path 129" class="bcls-10" d="M44.028 33.971c1.489-2.127 4.468-1.489 7.233 1.276a22.858 22.858 0 0 0-6.808 7.446c-1.702-3.403-1.914-6.807-.425-8.722z" transform="translate(48.464 36.881)"/><path id="bPath_130" data-name="Path 130" class="bcls-4" d="M43.892 33.889l.425-.425A3.982 3.982 0 0 1 47.3 32.4a7.958 7.958 0 0 1 3.4 1.489 5.64 5.64 0 0 1 1.276 1.064.647.647 0 0 1 0 .851 17.969 17.969 0 0 0-3.829 3.191 17.052 17.052 0 0 0-2.766 4.042c-.213.213-.425.425-.851.213a.208.208 0 0 1-.213-.213 17.1 17.1 0 0 1-1.489-5.106 5.332 5.332 0 0 1 1.064-4.042zm1.064.425l-.213.213a5.4 5.4 0 0 0-.851 3.4 12.612 12.612 0 0 0 .851 3.617 17.609 17.609 0 0 1 2.34-3.191 22.771 22.771 0 0 1 3.4-2.978c-.213-.213-.425-.425-.638-.425a4.575 4.575 0 0 0-2.766-1.276 3.594 3.594 0 0 0-2.123.641z" transform="translate(48.174 36.538)"/><path id="bPath_131" data-name="Path 131" class="bcls-8" d="M103.222 75.5s-44.676 2.34-60.844-23.827-28.295 7.02 5.957 20.849c34.039 13.829 54.887 2.978 54.887 2.978z" transform="translate(29.69 47.26)"/><path id="bPath_132" data-name="Path 132" class="bcls-4" d="M100.311 76.5c-10.637 0-44.463-1.915-58.291-24.04-3.829-6.169-7.446-8.935-10.212-9.361a3.566 3.566 0 0 0-3.829 2.127 10.173 10.173 0 0 0-.425 6.808c1.489 6.595 7.659 15.1 21.061 20.423C75 82.886 93.5 78.844 100.311 76.5zM43.084 51.613c15.956 25.742 60.206 23.4 60.418 23.4s.425.213.638.425 0 .638-.213.851c0 0-21.061 10.85-55.525-2.978-14.04-5.742-20.423-14.465-21.912-21.272a11.284 11.284 0 0 1 .638-7.659 5 5 0 0 1 5.106-2.766c2.766.638 6.808 3.404 10.85 9.999z" transform="translate(29.41 46.896)"/><path id="bPath_133" data-name="Path 133" class="bcls-4" d="M43.769 22.106c-11.275.213-12.977 3.4-10.85 10.85 1.7 6.382 6.595 7.233 9.148 7.233a51.443 51.443 0 0 1 7.659-2.127c8.509-5.106 10.637-16.381-5.957-15.956z" transform="translate(36.171 24.919)"/><path id="bPath_134" data-name="Path 134" class="bcls-4" d="M44.057 23.076c-5.531.213-8.51.851-10 2.553-1.489 1.489-1.276 4.042-.425 7.446a9.883 9.883 0 0 0 2.978 5.106 10.8 10.8 0 0 0 5.32 1.919l3.829-1.276c1.276-.425 2.553-.638 3.829-1.064a11.816 11.816 0 0 0 5.531-6.169 7.348 7.348 0 0 0 .425-3.617 4.665 4.665 0 0 0-2.127-2.978c-1.489-1.276-4.68-2.127-9.361-1.915zm-10.85 1.489c1.7-1.915 5.106-2.766 10.85-2.766 4.893 0 8.3.851 10.424 2.34a6.738 6.738 0 0 1 2.553 3.617 7.518 7.518 0 0 1-.425 4.255 14.472 14.472 0 0 1-6.169 6.808h-.213a25.722 25.722 0 0 0-3.827 1.064l-3.829 1.276h-.213a9.821 9.821 0 0 1-6.169-2.127 9.472 9.472 0 0 1-3.4-5.744c-1.283-3.829-1.283-6.595.419-8.722z" transform="translate(35.883 24.587)"/><path id="bPath_135" data-name="Path 135" class="bcls-8" d="M38.368 22.2a18.473 18.473 0 0 0-4.468.851l4.468 16.807c.638 0 1.276.213 1.7.213a13.761 13.761 0 0 1 2.766-.851z" transform="translate(38.169 25.038)"/><path id="bPath_136" data-name="Path 136" class="bcls-4" d="M38.28 23.176c-.638 0-1.276.213-1.915.213a3.944 3.944 0 0 0-1.489.425l4.255 15.743h1.064c.425-.213.851-.213 1.276-.425.213 0 .638-.213.851-.213L38.28 23.176zm-2.127-.851c.851-.213 1.7-.213 2.553-.425.213 0 .638.213.638.425l4.468 17.019c0 .213 0 .638-.425.638-.425.213-1.064.213-1.489.425a13.558 13.558 0 0 1-1.489.425h-1.065a1.279 1.279 0 0 1-.851-.213.458.458 0 0 1-.425-.425L33.6 23.389c0-.213 0-.638.425-.638a6.294 6.294 0 0 1 2.128-.426z" transform="translate(37.831 24.7)"/><path id="bPath_137" data-name="Path 137" class="bcls-8" d="M42.255 38.056c.213 0 .638-.213.851-.213.638-.425 1.489-.851 2.127-1.276L41.4 22.313A17.2 17.2 0 0 0 38 22.1z" transform="translate(42.791 24.925)"/><path id="bPath_138" data-name="Path 138" class="bcls-4" d="M43.119 39.145h-.425c-.425 0-.638 0-.638-.425L37.8 22.551v-.213a.564.564 0 0 1 .638-.638h1.915a4.684 4.684 0 0 1 1.7.213c.213 0 .425.213.638.425l3.829 14.254a.782.782 0 0 1-.213.638 3.735 3.735 0 0 0-1.064.851c-.425.213-.638.425-1.064.638h-.213a2.329 2.329 0 0 0-.851.425zm-.213-1.276h.213a2.937 2.937 0 0 0 .851-.638c.213-.213.425-.213.638-.425L40.991 23.4h-2.34z" transform="translate(42.566 24.474)"/><path id="bPath_139" data-name="Path 139" class="bcls-4" d="M55.914 22.107c7.871.213 8.935 3.4 7.659 10.85a10.7 10.7 0 0 1-1.915 4.68 65.352 65.352 0 0 0-11.275-1.064c-4.467-5.53-4.893-14.891 5.531-14.466z" transform="translate(53.384 24.918)"/><path id="bPath_140" data-name="Path 140" class="bcls-4" d="M56.505 21.8c4.255.213 6.595 1.064 7.659 2.978 1.276 1.915 1.064 4.68.425 8.51a12.2 12.2 0 0 1-.851 2.978 19.768 19.768 0 0 1-1.064 2.127.782.782 0 0 1-.638.213 43.856 43.856 0 0 0-5.531-.638c-1.915-.213-3.829-.213-5.744-.425-.213 0-.425 0-.425-.213a13.162 13.162 0 0 1-2.978-5.957 7.656 7.656 0 0 1 .213-4.893 7 7 0 0 1 3.4-3.617c1.276-.851 3.191-1.064 5.531-1.064zm6.595 3.617c-1.064-1.489-2.978-2.34-6.808-2.34a10.635 10.635 0 0 0-4.893.851 4.755 4.755 0 0 0-2.766 2.978 9.447 9.447 0 0 0-.213 4.255 12.838 12.838 0 0 0 2.553 5.106 44.921 44.921 0 0 1 5.531.425l5.106.638a9.251 9.251 0 0 0 .851-1.489 10.556 10.556 0 0 0 .638-2.766c.852-3.616 1.065-6.169.001-7.658z" transform="translate(53.006 24.587)"/><path id="bPath_141" data-name="Path 141" class="bcls-8" d="M57.71 37.317c-1.7-.213-3.191-.425-4.893-.638L49.2 22.851A9.867 9.867 0 0 1 53.668 22z" transform="translate(55.418 24.812)"/><path id="bPath_142" data-name="Path 142" class="bcls-4" d="M57.948 38.068a8.727 8.727 0 0 0-2.34-.213c-.851 0-1.7-.213-2.553-.213-.213 0-.425-.213-.638-.425L48.8 23.389c0-.213 0-.638.425-.638a26.744 26.744 0 0 1 2.127-.638 10.357 10.357 0 0 1 2.553-.213c.213 0 .425.213.638.425l4.042 15.317c0 .425 0 .638-.425.638 0-.213 0-.213-.213-.213zm-2.34-1.489c.425 0 1.064.213 1.489.213L53.48 22.964a5.89 5.89 0 0 0-1.915.213 3.075 3.075 0 0 0-1.489.425l3.4 12.977a7.092 7.092 0 0 1 2.132 0z" transform="translate(54.967 24.7)"/><path id="bPath_143" data-name="Path 143" class="bcls-4" d="M46.99 25.608c.425 0 .425.425.425.638 0 .425-.425.425-.638.425 0 0-23.827-6.595-26.167-2.127-.213.213-.425.425-.851.213-.213-.213-.425-.425-.213-.851 2.766-5.106 27.232 1.702 27.444 1.702z" transform="translate(21.887 24.821)"/><path id="bPath_144" data-name="Path 144" class="bcls-4" d="M52.82 25.928a.62.62 0 1 1-1.064.638s-3.4-5.106-7.446.851c-.213.213-.638.425-.851.213s-.425-.638-.213-.851c5.106-7.446 9.574-.851 9.574-.851z" transform="translate(48.607 26.203)"/><path id="bPath_145" data-name="Path 145" class="bcls-4" d="M25.276 47.924a.638.638 0 1 1-1.276 0s.638-10.212 12.552-8.3c.425 0 .638.425.425.638 0 .425-.425.638-.638.425-10.424-1.698-11.063 7.237-11.063 7.237z" transform="translate(27.007 44.415)"/><path id="bPath_146" data-name="Path 146" class="bcls-4" d="M27.473 86.159c.213-.213.425-.425.851-.213.213.213.425.425.213.851 0 0-4.468 8.935-12.339 12.977-.213.213-.638 0-.851-.213s0-.638.213-.851c7.445-4.041 11.913-12.551 11.913-12.551z" transform="translate(17.152 96.807)"/><path id="bPath_147" data-name="Path 147" class="bcls-4" d="M47.147 86.7c-.213-.213 0-.638.213-.851s.638 0 .851.213c0 0 4.468 8.51 11.7 12.552.213.213.425.425.213.851-.213.213-.425.425-.851.213C51.614 95.633 47.147 86.7 47.147 86.7z" transform="translate(53.004 96.695)"/></g></g></symbol><symbol viewBox="0 0 21.043 21.043" id="close-black" xmlns="http://www.w3.org/2000/svg"><g data-name="Group 356"><path data-name="Rectangle 832" d="M0 19.423L19.424-.001l1.618 1.62L1.62 21.041z"/><path data-name="Rectangle 833" d="M1.619 0l19.424 19.424-1.62 1.618L0 1.62z"/></g></symbol><symbol viewBox="0 0 35.121 35.121" id="close-white" xmlns="http://www.w3.org/2000/svg"><defs><style>.close-modal{fill:none;stroke-width:3px}</style></defs><g id="dGroup_279" data-name="Group 279" transform="translate(-1222.939 -68.939)"><path id="dLine_72" data-name="Line 72" class="dcls-1" transform="translate(1224 70)" d="M33 0L0 33"/><path id="dLine_73" data-name="Line 73" class="dcls-1" transform="translate(1224 70)" d="M33 33L0 0"/></g></symbol><symbol viewBox="0 0 11.087 20.507" id="facebook" xmlns="http://www.w3.org/2000/svg"><defs><style>.ecls-1{fill:#999}</style></defs><path id="ePath_36" data-name="Path 36" class="ecls-1" d="M32.747 0h-2.66a4.67 4.67 0 0 0-4.918 5.047v2.327H22.5a.418.418 0 0 0-.418.418v3.371a.418.418 0 0 0 .418.418h2.674v8.507a.418.418 0 0 0 .418.418h3.489a.418.418 0 0 0 .418-.418v-8.506h3.121a.418.418 0 0 0 .418-.418V7.792a.418.418 0 0 0-.418-.418h-3.126V5.4c0-.948.226-1.429 1.461-1.429h1.791a.418.418 0 0 0 .418-.418V.422A.418.418 0 0 0 32.747 0z" transform="translate(-22.077)"/></symbol><symbol viewBox="0 0 77.5 15.339" id="facebook-black" xmlns="http://www.w3.org/2000/svg"><path data-name="Path 1551" d="M39.899 7.45a3.542 3.542 0 0 0-1.569.424v4.837a10.2 10.2 0 0 0 1.13.043c1.536 0 1.747-.7 1.747-1.686v-2.31c.003-.726-.241-1.308-1.308-1.308zm-10.2-.264c-1.066 0-1.309.585-1.309 1.31v.407h2.62v-.407c0-.724-.248-1.31-1.312-1.31zM9.937 12.221a.764.764 0 0 0 .867.871 3.18 3.18 0 0 0 1.487-.423v-1.148h-1.4c-.663 0-.954.123-.954.7zM49.821 7.45c-1.067 0-1.437.583-1.437 1.308v2.647c0 .727.37 1.311 1.437 1.311s1.437-.584 1.437-1.311V8.758c0-.726-.372-1.308-1.436-1.308zM4.71 15.189H1.568v-7.6H0V4.972h1.568V3.405c0-2.135.885-3.4 3.4-3.4h2.094v2.618H5.754c-.979 0-1.044.366-1.044 1.048v1.31h2.371l-.277 2.617H4.71zm10.724.02H12.81l-.113-.661a5.994 5.994 0 0 1-2.963.769 2.782 2.782 0 0 1-2.939-3.053c0-2.091 1.191-2.837 3.322-2.837h2.169v-.455c0-1.067-.122-1.38-1.763-1.38H7.845l.265-2.62h2.93c3.6 0 4.39 1.137 4.39 4.019v6.213zm8.893-7.423a14.968 14.968 0 0 0-2.878-.34c-1.406 0-1.832.31-1.832 1.5v2.259c0 1.194.425 1.506 1.832 1.506a14.935 14.935 0 0 0 2.878-.343v2.553a13.871 13.871 0 0 1-3.139.4c-3.369 0-4.708-1.772-4.708-4.331V9.165c0-2.561 1.339-4.336 4.708-4.336a13.812 13.812 0 0 1 3.139.405v2.551zm9.82 3.213h-5.758v.211c0 1.194.425 1.506 1.832 1.506a18.3 18.3 0 0 0 3.66-.343v2.553a16.5 16.5 0 0 1-3.92.4c-3.369 0-4.709-1.772-4.709-4.331v-2.1c0-2.239.994-4.073 4.446-4.073s4.445 1.813 4.445 4.073zm10.2.048c0 2.474-.707 4.278-4.99 4.278a23.687 23.687 0 0 1-4.161-.4V.786l3.137-.523v4.946a7.122 7.122 0 0 1 2.354-.38c3.137 0 3.66 1.406 3.66 3.667v2.551zm10.055.054c0 2.134-.881 4.2-4.567 4.2s-4.585-2.07-4.585-4.2v-2.06c0-2.135.9-4.205 4.585-4.205s4.567 2.07 4.567 4.205zm10.049 0c0 2.134-.882 4.2-4.567 4.2s-4.585-2.07-4.585-4.2v-2.06c0-2.135.9-4.205 4.585-4.205s4.567 2.07 4.567 4.205zm10.312 4.088h-3.4l-2.876-4.8v4.8h-3.141V.789l3.138-.523v9.272l2.876-4.566h3.4l-3.139 4.974zM59.873 7.45c-1.066 0-1.436.583-1.436 1.308v2.647c0 .727.37 1.311 1.436 1.311s1.437-.584 1.437-1.311V8.758c0-.726-.376-1.308-1.441-1.308zm16.681 5.948a.971.971 0 1 1-.963.969.955.955 0 0 1 .963-.969zm0 .151a.821.821 0 0 0 0 1.64.821.821 0 0 0 0-1.64zm-.18 1.382h-.172v-1.082a1.985 1.985 0 0 1 .306-.025.575.575 0 0 1 .336.081.261.261 0 0 1 .1.223.269.269 0 0 1-.21.263v.008c.094.018.159.1.18.262a.9.9 0 0 0 .068.268h-.18a.814.814 0 0 1-.073-.276.2.2 0 0 0-.232-.189h-.119v.466zm0-.6h.125c.141 0 .261-.052.261-.186 0-.095-.068-.189-.261-.189a.892.892 0 0 0-.125.008v.367z"/></symbol><symbol viewBox="0 0 28 23" id="gamb" xmlns="http://www.w3.org/2000/svg"><defs><path id="ga" d="M1130.27 57.64v-2.28h27.46v2.28z"/><path id="gb" d="M1130.27 47.73v-2.3h27.46v2.3z"/><path id="gc" d="M1130.27 67.56v-2.29h27.46v2.3z"/></defs><use xlink:href="#ga" transform="translate(-1130 -45)"/><use xlink:href="#gb" transform="translate(-1130 -45)"/><use xlink:href="#gc" transform="translate(-1130 -45)"/></symbol><symbol viewBox="0 0 155 81.355" id="logo-f" xmlns="http://www.w3.org/2000/svg"><defs><style>.hcls-1{fill:#fff}.hcls-2{fill:#ffbf00}</style></defs><g data-name="Group 280" transform="translate(16.838 12.429)"><path data-name="Path 1520" class="hcls-1" d="M19.355 6.297c0 4.485-3.777 7.239-8.1 7.239H7.632v6.137c0 .787.236 1.338.787 1.574a6.608 6.608 0 0 0 1.495.236v1.259H0v-1.26a4.115 4.115 0 0 0 1.416-.236 1.615 1.615 0 0 0 .865-1.652V3.071c0-.865-.236-1.338-.865-1.574A5.847 5.847 0 0 0 0 1.261V.003h11.8c3.936-.079 7.555 1.966 7.555 6.294zM7.711 11.803H9.6c3.069 0 4.249-2.124 4.249-5.193 0-2.911-1.18-4.957-3.7-4.957H7.711z"/><path data-name="Path 1521" class="hcls-1" d="M40.913 5.826c0 3.069-2.2 5.036-4.957 6.058l5.114 7.081c1.259 1.731 2.2 2.36 3.619 2.518l-.157 1.338h-7.238l-6.845-10.229H29.19v7.081c0 .787.236 1.338.787 1.574a6.608 6.608 0 0 0 1.495.236v1.259h-9.914v-1.259a4.115 4.115 0 0 0 1.416-.236 1.615 1.615 0 0 0 .865-1.652V3.072c0-.865-.236-1.338-.865-1.574a5.847 5.847 0 0 0-1.416-.236V.004h11.8c3.936-.079 7.555 1.494 7.555 5.822zm-11.644 5.035h1.889c3.069 0 4.249-1.574 4.249-4.721 0-2.754-1.18-4.485-3.7-4.485h-2.438z"/><path data-name="Path 1522" class="hcls-1" d="M42.566 15.66v-2.911h9.6v2.911z"/></g><g data-name="Group 281" transform="translate(17.624 40.442)"><path data-name="Path 1523" class="hcls-1" d="M7.947.315h2.832v.472a1.339 1.339 0 0 0-.551.079c-.236.079-.315.315-.315.629v6.294a.639.639 0 0 0 .315.629c.079.079.315.079.551.079v.472H7v-.472a1.339 1.339 0 0 0 .551-.079c.236-.079.315-.315.315-.629V2.203l-2.6 5.193h-.551L2.04 2.203v5.112a1.073 1.073 0 0 0 .393.944 1.329 1.329 0 0 0 .787.236v.472H0v-.472a1.269 1.269 0 0 0 .708-.236.952.952 0 0 0 .472-.944v-5.35A.98.98 0 0 0 .865 1.1 1.826 1.826 0 0 0 .078.785v-.47h3.069l2.36 4.721z"/><path data-name="Path 1524" class="hcls-1" d="M19.276 8.418h.236v.315a3.121 3.121 0 0 1-1.494.393c-1.023 0-1.338-.472-1.338-1.18v-.079a2.281 2.281 0 0 1-1.967 1.18 1.366 1.366 0 0 1-1.495-1.494c0-1.023.787-1.495 2.046-1.81l1.416-.315v-.232c0-.865-.236-1.259-1.259-1.259a7.2 7.2 0 0 0-2.046.315v-.787a7.2 7.2 0 0 1 2.99-.865c1.495 0 2.2.787 2.2 2.439v2.6c.003.622.239.779.711.779zm-2.6-.787V6.058l-.708.157c-.629.157-1.023.315-1.023.865 0 .472.315.708.865.708a2.828 2.828 0 0 0 .87-.156z"/><path data-name="Path 1525" class="hcls-1" d="M21.715 3.462h-.393V2.99a7.807 7.807 0 0 1 2.046-.472c.551 0 .708.236.708.787v.313a2.451 2.451 0 0 1 2.046-1.021c1.495 0 2.282 1.18 2.282 2.832 0 2.36-1.652 3.619-4.013 3.619h-.315v1.416c0 .393.157.551.551.629h.551v.472h-3.777v-.472a1 1 0 0 0 .472-.079c.236-.079.315-.315.315-.629V3.934c-.001-.316-.079-.472-.473-.472zm2.36.551v4.249a2.328 2.328 0 0 0 .787.157c1.18 0 1.652-1.18 1.652-2.439 0-1.338-.472-2.124-1.495-2.124a2.159 2.159 0 0 0-.943.157z"/><path data-name="Path 1526" class="hcls-1" d="M33.124 8.969h-2.36v-.472a1 1 0 0 0 .472-.079c.236-.079.315-.315.315-.629V3.932a.639.639 0 0 0-.315-.629 1 1 0 0 0-.472-.079v-.392h3.383v.472a2.782 2.782 0 0 0-.472.079c-.236.079-.315.236-.315.629v3.383l2.6-4.485h2.36v.472a.852.852 0 0 0-.472.079c-.236.079-.315.315-.315.629v3.855c0 .315.079.551.315.629a2.782 2.782 0 0 0 .472.079v.472h-3.386v-.472a1 1 0 0 0 .472-.079c.236-.079.315-.236.315-.629v-3.3z"/><path data-name="Path 1527" class="hcls-1" d="M43.038 8.969h-2.36v-.472a1 1 0 0 0 .472-.079c.236-.079.315-.315.315-.629V3.932a.639.639 0 0 0-.315-.629 1 1 0 0 0-.472-.079v-.392h3.383v.472a2.782 2.782 0 0 0-.472.079c-.236.079-.315.236-.315.629v3.383l2.6-4.485h2.36v.472a.852.852 0 0 0-.472.079c-.236.079-.315.315-.315.629v3.855c0 .315.079.551.315.629a2.783 2.783 0 0 0 .472.079v.472h-3.386v-.472a1 1 0 0 0 .472-.079c.236-.079.315-.236.315-.629v-3.3z"/><path data-name="Path 1528" class="hcls-1" d="M55.863 8.336c.236-.079.315-.236.315-.629V1.416a.639.639 0 0 0-.315-.629 1.167 1.167 0 0 0-.551-.079V.236h3.777v.472c-.236 0-.393.079-.551.079-.236.079-.315.236-.315.629v6.92h2.832V1.574a.639.639 0 0 0-.315-.629c-.079-.079-.315-.079-.551-.079V.394h3.777v.472c-.236 0-.393.079-.551.079-.236.079-.315.236-.315.629v6.762h2.832V1.574a.639.639 0 0 0-.315-.629c-.079-.079-.315-.079-.551-.079V.394h3.777v.472a1.339 1.339 0 0 0-.551.079c-.236.079-.315.315-.315.629v6.294a.639.639 0 0 0 .315.629c.079.079.315.079.551.079v.472H55.391v-.472c.157-.157.393-.157.472-.24z"/><path data-name="Path 1529" class="hcls-1" d="M77.342 8.418h.236v.315a3.121 3.121 0 0 1-1.495.393c-1.023 0-1.338-.472-1.338-1.18v-.079a2.281 2.281 0 0 1-1.967 1.18 1.366 1.366 0 0 1-1.494-1.494c0-1.023.787-1.495 2.046-1.81l1.416-.315v-.232c0-.865-.236-1.259-1.259-1.259a7.2 7.2 0 0 0-2.046.315v-.787a7.2 7.2 0 0 1 2.99-.865c1.495 0 2.2.787 2.2 2.439v2.6c.003.622.239.779.711.779zm-2.6-.787V6.058l-.708.157c-.629.157-1.023.315-1.023.865 0 .472.315.708.865.708a2.828 2.828 0 0 0 .87-.156z"/><path data-name="Path 1530" class="hcls-1" d="M86.154 8.497v.472h-3.383v-.472c.472 0 .629-.315.393-.629L82.22 6.53l-.629.787c-.472.629-.315 1.023.236 1.1v.472h-2.439v-.472a2.328 2.328 0 0 0 1.338-.865l1.259-1.495-1.574-2.2c-.315-.393-.472-.629-.865-.708v-.317h3.383v.472c-.472 0-.708.315-.472.629l1.023 1.416.629-.944c.393-.472.236-1.023-.393-1.1v-.473h2.439v.472a2.122 2.122 0 0 0-1.18.865l-1.259 1.574 1.574 2.124a.92.92 0 0 0 .864.63z"/><path data-name="Path 1531" class="hcls-1" d="M91.27 9.127a2.791 2.791 0 0 1-3.069-2.99 3.367 3.367 0 0 1 3.541-3.462 2.748 2.748 0 0 1 2.99 2.911 3.323 3.323 0 0 1-3.462 3.541zm.079-5.744c-.944 0-1.18.944-1.18 2.282 0 1.574.315 2.754 1.338 2.754.866 0 1.18-.865 1.18-2.439.077-1.574-.316-2.597-1.339-2.597z"/><path data-name="Path 1532" class="hcls-1" d="M97.563 3.383a1 1 0 0 0-.472-.079v-.472h3.777c1.495 0 2.439.472 2.439 1.495 0 .865-.629 1.338-1.652 1.495 1.18.079 1.888.472 1.888 1.338 0 1.259-.944 1.731-2.675 1.731h-3.777v-.472a1 1 0 0 0 .472-.079c.236-.079.315-.315.315-.629V3.855a.489.489 0 0 0-.315-.472zm2.2 2.2h.315c.865 0 1.259-.393 1.259-1.1 0-.787-.393-1.1-1.259-1.1h-.315zm0 2.832h.472c.865 0 1.259-.315 1.259-1.18 0-.629-.393-1.1-1.259-1.1h-.472z"/><path data-name="Path 1533" class="hcls-1" d="M109.051 9.127a2.791 2.791 0 0 1-3.068-2.99 3.367 3.367 0 0 1 3.541-3.462 2.748 2.748 0 0 1 2.99 2.911 3.323 3.323 0 0 1-3.463 3.541zm.079-5.744c-.944 0-1.18.944-1.18 2.282 0 1.574.315 2.754 1.338 2.754.866 0 1.18-.865 1.18-2.439s-.316-2.597-1.339-2.597z"/><path data-name="Path 1534" class="hcls-1" d="M117.233 8.97h-2.36V8.5a1 1 0 0 0 .472-.079c.236-.079.315-.315.315-.629V3.934a.639.639 0 0 0-.315-.629 1 1 0 0 0-.472-.079v-.393h3.383V3.3a2.781 2.781 0 0 0-.472.079c-.236.079-.315.236-.315.629V7.4l2.6-4.485h2.36v.472a.852.852 0 0 0-.472.079c-.236.079-.315.315-.315.629V7.95c0 .315.079.551.315.629a2.783 2.783 0 0 0 .472.079v.472h-3.386v-.472a1 1 0 0 0 .472-.079c.236-.079.315-.236.315-.629v-3.3zm1.495-7.317a1.937 1.937 0 0 1-2.124-1.652h1.416c0 .629.315 1.023.787 1.023.551 0 .787-.472.866-1.023h1.18a1.907 1.907 0 0 1-2.125 1.651z"/></g><g data-name="Group 282"><path data-name="Path 1535" class="hcls-2" d="M18.49 81.355V64.518h3.934v8.34L34.7 62.551h116.366V3.934H3.934v31.472H0V0h155v66.485H36.114z"/></g><g data-name="Group 283" transform="translate(73.173 24.076)"><path data-name="Path 1536" class="hcls-1" d="M5.665 5.508H5.9v.315a3.142 3.142 0 0 1-1.416.315c-1.023 0-1.259-.393-1.259-1.1v-.079a2.155 2.155 0 0 1-1.81 1.1A1.322 1.322 0 0 1 0 4.642C0 3.619.787 3.226 1.967 2.99l1.338-.315v-.236c0-.787-.236-1.18-1.18-1.18a9.445 9.445 0 0 0-1.888.236V.787A6.141 6.141 0 0 1 3.069 0c1.416 0 2.046.787 2.046 2.282v2.439c-.079.629.078.787.55.787zm-2.439-.787V3.226l-.629.157c-.629.157-.944.315-.944.787s.315.708.787.708a2.328 2.328 0 0 0 .786-.157z"/><path data-name="Path 1537" class="hcls-1" d="M10.071 4.878c0 .315.079.472.315.551a.59.59 0 0 0 .393.079v.472H7.553v-.473a1 1 0 0 0 .472-.079c.236-.079.315-.236.315-.551v-3.62c0-.315-.079-.472-.315-.551a1 1 0 0 0-.472-.079v-.47h4.957v2.124h-.393c-.315-1.023-.629-1.495-1.574-1.495h-.472v4.091z"/><path data-name="Path 1538" class="hcls-1" d="M17.152 6.137A2.548 2.548 0 0 1 14.398 3.3 3.076 3.076 0 0 1 17.624 0a2.011 2.011 0 0 1 2.282 2.046v.472l-.315.472h-3.462c0 1.18.472 1.888 1.731 1.888a4.758 4.758 0 0 0 1.731-.315v.629a3.593 3.593 0 0 1-2.439.945zm-1.1-3.7h1.967v-.393c0-.787-.315-1.338-.865-1.338-.632.002-.946.71-1.104 1.733z"/><path data-name="Path 1539" class="hcls-1" d="M24.312 3.304v1.574c0 .315.079.472.315.551a.59.59 0 0 0 .393.079v.472h-3.226v-.473a1 1 0 0 0 .472-.079c.236-.079.315-.236.315-.551v-3.62c0-.315-.079-.472-.315-.551a1 1 0 0 0-.472-.079v-.47h3.226v.472a1.6 1.6 0 0 0-.393.079c-.236.079-.315.236-.315.551v1.498h2.124v-1.5c0-.315-.079-.472-.315-.551a.852.852 0 0 0-.472-.079v-.47h3.226v.472a.852.852 0 0 0-.472.079.566.566 0 0 0-.315.551v3.619c0 .315.079.472.315.551a2.782 2.782 0 0 0 .472.079v.472h-3.226v-.473a1 1 0 0 0 .472-.079.566.566 0 0 0 .315-.551V3.304z"/><path data-name="Path 1540" class="hcls-1" d="M32.81.708c-1.023 0-1.338.551-1.574 1.495h-.393V.079h5.98v2.124h-.393C36.115 1.18 35.879.708 34.856.708h-.236v4.091c0 .315.079.472.315.551.079.079.236.079.472.079v.472h-3.226v-.472a1 1 0 0 0 .472-.079c.236-.079.315-.236.315-.551V.708z"/><path data-name="Path 1541" class="hcls-1" d="M41.386 6.137A2.584 2.584 0 0 1 38.632 3.3 3.076 3.076 0 0 1 41.858 0c1.338 0 2.046.551 2.046 1.18a.809.809 0 0 1-.787.865c-1.023 0-.629-1.416-1.652-1.416-.787 0-1.1.944-1.1 2.124 0 1.259.472 2.124 1.731 2.124a4.66 4.66 0 0 0 1.652-.315v.629a3.252 3.252 0 0 1-2.362.946z"/><path data-name="Path 1542" class="hcls-1" d="M47.68.708c-1.023 0-1.338.551-1.574 1.495h-.393V.079h5.98v2.124H51.3C50.985 1.18 50.749.708 49.726.708h-.157v4.091c0 .315.079.472.315.551.079.079.236.079.472.079v.472H47.13v-.472a1 1 0 0 0 .472-.079c.236-.079.315-.236.315-.551V.708z"/><path data-name="Path 1543" class="hcls-1" d="M53.896.708a1 1 0 0 0-.472-.079V.157h3.541c1.416 0 2.36.472 2.36 1.416 0 .787-.629 1.259-1.574 1.416 1.1.079 1.731.472 1.731 1.259 0 1.18-.865 1.652-2.518 1.652h-3.462v-.472a1 1 0 0 0 .472-.079c.236-.079.315-.236.315-.551V1.18c-.078-.236-.157-.394-.393-.472zm2.128 2.049h.315c.865 0 1.18-.315 1.18-1.023S57.204.711 56.339.711h-.315zm0 2.675h.472c.866 0 1.18-.315 1.18-1.1 0-.629-.315-1.023-1.18-1.023h-.472z"/><path data-name="Path 1544" class="hcls-1" d="M64.518 6.137A2.7 2.7 0 0 1 61.607 3.3 3.159 3.159 0 0 1 64.99 0a2.584 2.584 0 0 1 2.832 2.754 3.246 3.246 0 0 1-3.304 3.383zm.079-5.429c-.866 0-1.1.865-1.1 2.2 0 1.495.315 2.6 1.259 2.6.787 0 1.1-.787 1.1-2.282S65.541.708 64.597.708z"/></g></symbol><symbol viewBox="0 0 155 81.355" id="logo-h" xmlns="http://www.w3.org/2000/svg"><defs><style>.icls-1{fill:#fff}.icls-2{fill:#ffbf00}</style></defs><g data-name="Group 319"><g data-name="Group 290"><g data-name="Group 280"><path data-name="Path 1520" class="icls-1" d="M36.193 18.726c0 4.485-3.777 7.239-8.1 7.239H24.47v6.137c0 .787.236 1.338.787 1.574a6.608 6.608 0 0 0 1.495.236v1.259h-9.914v-1.26a4.115 4.115 0 0 0 1.416-.236 1.615 1.615 0 0 0 .865-1.652V15.5c0-.865-.236-1.338-.865-1.574a5.847 5.847 0 0 0-1.416-.236v-1.258h11.8c3.936-.079 7.555 1.966 7.555 6.294zm-11.644 5.506h1.889c3.069 0 4.249-2.124 4.249-5.193 0-2.911-1.18-4.957-3.7-4.957h-2.438z"/><path data-name="Path 1521" class="icls-1" d="M57.751 18.255c0 3.069-2.2 5.036-4.957 6.058l5.114 7.081c1.259 1.731 2.2 2.36 3.619 2.518l-.157 1.338h-7.238l-6.845-10.229h-1.259v7.081c0 .787.236 1.338.787 1.574a6.608 6.608 0 0 0 1.495.236v1.259h-9.914v-1.259a4.115 4.115 0 0 0 1.416-.236 1.615 1.615 0 0 0 .865-1.652V15.501c0-.865-.236-1.338-.865-1.574a5.847 5.847 0 0 0-1.416-.236v-1.258h11.8c3.936-.079 7.555 1.494 7.555 5.822zM46.107 23.29h1.889c3.069 0 4.249-1.574 4.249-4.721 0-2.754-1.18-4.485-3.7-4.485h-2.438z"/><path data-name="Path 1522" class="icls-1" d="M59.404 28.089v-2.911h9.6v2.911z"/></g><g id="iGroup_281" data-name="Group 281" transform="translate(17.624 40.442)"><path data-name="Path 1523" class="icls-1" d="M30.347 51.8h2.832v.472a1.339 1.339 0 0 0-.551.079c-.236.079-.315.315-.315.629v6.294a.639.639 0 0 0 .315.629c.079.079.315.079.551.079v.472H29.4v-.472a1.339 1.339 0 0 0 .551-.079c.236-.079.315-.315.315-.629v-5.586l-2.6 5.193h-.551l-2.675-5.193V58.8a1.073 1.073 0 0 0 .393.944 1.329 1.329 0 0 0 .787.236v.472H22.4v-.472a1.269 1.269 0 0 0 .708-.236.952.952 0 0 0 .472-.944v-5.35a.98.98 0 0 0-.315-.865 1.826 1.826 0 0 0-.787-.315v-.47h3.069l2.36 4.721z" transform="translate(-22.4 -51.485)"/><path data-name="Path 1524" class="icls-1" d="M45.258 60.522h.236v.315A3.121 3.121 0 0 1 44 61.23c-1.023 0-1.338-.472-1.338-1.18v-.079a2.281 2.281 0 0 1-1.967 1.18 1.366 1.366 0 0 1-1.495-1.494c0-1.023.787-1.495 2.046-1.81l1.416-.315V57.3c0-.865-.236-1.259-1.259-1.259a7.2 7.2 0 0 0-2.046.315v-.787a7.2 7.2 0 0 1 2.99-.865c1.495 0 2.2.787 2.2 2.439v2.6c.003.622.239.779.711.779zm-2.6-.787v-1.573l-.708.157c-.629.157-1.023.315-1.023.865 0 .472.315.708.865.708a2.828 2.828 0 0 0 .87-.156z" transform="translate(-25.982 -52.104)"/><path data-name="Path 1525" class="icls-1" d="M49.893 55.544H49.5v-.472a7.807 7.807 0 0 1 2.046-.472c.551 0 .708.236.708.787v.313a2.451 2.451 0 0 1 2.046-1.021c1.495 0 2.282 1.18 2.282 2.832 0 2.36-1.652 3.619-4.013 3.619h-.315v1.416c0 .393.157.551.551.629h.551v.472h-3.777v-.472a1 1 0 0 0 .472-.079c.236-.079.315-.315.315-.629v-6.451c-.001-.316-.079-.472-.473-.472zm2.36.551v4.249a2.328 2.328 0 0 0 .787.157c1.18 0 1.652-1.18 1.652-2.439 0-1.338-.472-2.124-1.495-2.124a2.159 2.159 0 0 0-.943.157z" transform="translate(-28.178 -52.082)"/><path id="iPath_1526" data-name="Path 1526" class="icls-1" d="M63.86 61.137H61.5v-.472a1 1 0 0 0 .472-.079c.236-.079.315-.315.315-.629V56.1a.639.639 0 0 0-.315-.629 1 1 0 0 0-.472-.079V55h3.383v.472a2.782 2.782 0 0 0-.472.079c-.236.079-.315.236-.315.629v3.383l2.6-4.485h2.36v.472a.852.852 0 0 0-.472.079c-.236.079-.315.315-.315.629v3.855c0 .315.079.551.315.629a2.782 2.782 0 0 0 .472.079v.472H65.67v-.472a1 1 0 0 0 .472-.079c.236-.079.315-.236.315-.629v-3.3z" transform="translate(-30.736 -52.168)"/><path id="iPath_1527" data-name="Path 1527" class="icls-1" d="M76.46 61.137H74.1v-.472a1 1 0 0 0 .472-.079c.236-.079.315-.315.315-.629V56.1a.639.639 0 0 0-.315-.629 1 1 0 0 0-.472-.079V55h3.383v.472a2.782 2.782 0 0 0-.472.079c-.236.079-.315.236-.315.629v3.383l2.6-4.485h2.36v.472a.852.852 0 0 0-.472.079c-.236.079-.315.315-.315.629v3.855c0 .315.079.551.315.629a2.783 2.783 0 0 0 .472.079v.472H78.27v-.472a1 1 0 0 0 .472-.079c.236-.079.315-.236.315-.629v-3.3z" transform="translate(-33.422 -52.168)"/><path id="iPath_1528" data-name="Path 1528" class="icls-1" d="M93.251 59.8c.236-.079.315-.236.315-.629V52.88a.639.639 0 0 0-.315-.629 1.167 1.167 0 0 0-.551-.079V51.7h3.777v.472c-.236 0-.393.079-.551.079-.236.079-.315.236-.315.629v6.92h2.832v-6.762a.639.639 0 0 0-.315-.629c-.079-.079-.315-.079-.551-.079v-.472h3.777v.472c-.236 0-.393.079-.551.079-.236.079-.315.236-.315.629V59.8h2.832v-6.762a.639.639 0 0 0-.315-.629c-.079-.079-.315-.079-.551-.079v-.472h3.777v.472a1.339 1.339 0 0 0-.551.079c-.236.079-.315.315-.315.629v6.294a.639.639 0 0 0 .315.629c.079.079.315.079.551.079v.472H92.779v-.472c.157-.157.393-.157.472-.24z" transform="translate(-37.388 -51.464)"/><path id="iPath_1529" data-name="Path 1529" class="icls-1" d="M119.058 60.522h.236v.315a3.121 3.121 0 0 1-1.495.393c-1.023 0-1.338-.472-1.338-1.18v-.079a2.281 2.281 0 0 1-1.967 1.18A1.366 1.366 0 0 1 113 59.657c0-1.023.787-1.495 2.046-1.81l1.416-.315V57.3c0-.865-.236-1.259-1.259-1.259a7.2 7.2 0 0 0-2.046.315v-.787a7.2 7.2 0 0 1 2.99-.865c1.495 0 2.2.787 2.2 2.439v2.6c.003.622.239.779.711.779zm-2.6-.787v-1.573l-.708.157c-.629.157-1.023.315-1.023.865 0 .472.315.708.865.708a2.828 2.828 0 0 0 .87-.156z" transform="translate(-41.716 -52.104)"/><path id="iPath_1530" data-name="Path 1530" class="icls-1" d="M130.066 60.665v.472h-3.383v-.472c.472 0 .629-.315.393-.629l-.944-1.338-.629.787c-.472.629-.315 1.023.236 1.1v.472H123.3v-.472a2.328 2.328 0 0 0 1.338-.865l1.259-1.495-1.574-2.2c-.315-.393-.472-.629-.865-.708V55h3.383v.472c-.472 0-.708.315-.472.629l1.023 1.416.629-.944c.393-.472.236-1.023-.393-1.1V55h2.439v.472a2.122 2.122 0 0 0-1.18.865l-1.259 1.574 1.574 2.124a.92.92 0 0 0 .864.63z" transform="translate(-43.912 -52.168)"/><path id="iPath_1531" data-name="Path 1531" class="icls-1" d="M137.569 61.252a2.791 2.791 0 0 1-3.069-2.99 3.367 3.367 0 0 1 3.541-3.462 2.748 2.748 0 0 1 2.99 2.911 3.323 3.323 0 0 1-3.462 3.541zm.079-5.744c-.944 0-1.18.944-1.18 2.282 0 1.574.315 2.754 1.338 2.754.866 0 1.18-.865 1.18-2.439.077-1.574-.316-2.597-1.339-2.597z" transform="translate(-46.299 -52.125)"/><path id="iPath_1532" data-name="Path 1532" class="icls-1" d="M146.272 55.551a1 1 0 0 0-.472-.079V55h3.777c1.495 0 2.439.472 2.439 1.495 0 .865-.629 1.338-1.652 1.495 1.18.079 1.888.472 1.888 1.338 0 1.259-.944 1.731-2.675 1.731H145.8v-.472a1 1 0 0 0 .472-.079c.236-.079.315-.315.315-.629v-3.856a.489.489 0 0 0-.315-.472zm2.2 2.2h.315c.865 0 1.259-.393 1.259-1.1 0-.787-.393-1.1-1.259-1.1h-.315zm0 2.832h.472c.865 0 1.259-.315 1.259-1.18 0-.629-.393-1.1-1.259-1.1h-.472z" transform="translate(-48.709 -52.168)"/><path id="iPath_1533" data-name="Path 1533" class="icls-1" d="M160.169 61.252a2.791 2.791 0 0 1-3.068-2.99 3.367 3.367 0 0 1 3.541-3.462 2.748 2.748 0 0 1 2.99 2.911 3.323 3.323 0 0 1-3.463 3.541zm.079-5.744c-.944 0-1.18.944-1.18 2.282 0 1.574.315 2.754 1.338 2.754.866 0 1.18-.865 1.18-2.439s-.316-2.597-1.339-2.597z" transform="translate(-51.118 -52.125)"/><path id="iPath_1534" data-name="Path 1534" class="icls-1" d="M170.76 60.37h-2.36v-.47a1 1 0 0 0 .472-.079c.236-.079.315-.315.315-.629v-3.858a.639.639 0 0 0-.315-.629 1 1 0 0 0-.472-.079v-.393h3.383v.467a2.781 2.781 0 0 0-.472.079c-.236.079-.315.236-.315.629V58.8l2.6-4.485h2.36v.472a.852.852 0 0 0-.472.079c-.236.079-.315.315-.315.629v3.855c0 .315.079.551.315.629a2.783 2.783 0 0 0 .472.079v.472h-3.386v-.472a1 1 0 0 0 .472-.079c.236-.079.315-.236.315-.629v-3.3zm1.495-7.317a1.937 1.937 0 0 1-2.124-1.652h1.416c0 .629.315 1.023.787 1.023.551 0 .787-.472.866-1.023h1.18a1.907 1.907 0 0 1-2.125 1.651z" transform="translate(-53.527 -51.4)"/></g><g id="iGroup_282" data-name="Group 282"><path id="iPath_1535" data-name="Path 1535" class="icls-2" d="M18.49 81.355V64.518h3.934v8.34L34.7 62.551h116.366V3.934H3.934v31.472H0V0h155v66.485H36.114z"/></g><g id="iGroup_283" data-name="Group 283" transform="translate(73.173 24.076)"><path id="iPath_1536" data-name="Path 1536" class="icls-1" d="M98.665 36.108h.235v.315a3.142 3.142 0 0 1-1.416.315c-1.023 0-1.259-.393-1.259-1.1v-.079a2.155 2.155 0 0 1-1.81 1.1A1.322 1.322 0 0 1 93 35.242c0-1.023.787-1.416 1.967-1.652l1.338-.315v-.236c0-.787-.236-1.18-1.18-1.18a9.445 9.445 0 0 0-1.888.236v-.708a6.141 6.141 0 0 1 2.832-.787c1.416 0 2.046.787 2.046 2.282v2.439c-.079.629.078.787.55.787zm-2.439-.787v-1.495l-.629.157c-.629.157-.944.315-.944.787s.315.708.787.708a2.328 2.328 0 0 0 .786-.157z" transform="translate(-93 -30.6)"/><path id="iPath_1537" data-name="Path 1537" class="icls-1" d="M105.118 35.521c0 .315.079.472.315.551a.59.59 0 0 0 .393.079v.472H102.6v-.473a1 1 0 0 0 .472-.079c.236-.079.315-.236.315-.551V31.9c0-.315-.079-.472-.315-.551a1 1 0 0 0-.472-.079v-.47h4.957v2.124h-.393c-.315-1.023-.629-1.495-1.574-1.495h-.472v4.091z" transform="translate(-95.047 -30.643)"/><path id="iPath_1538" data-name="Path 1538" class="icls-1" d="M114.054 36.737A2.548 2.548 0 0 1 111.3 33.9a3.076 3.076 0 0 1 3.226-3.3 2.011 2.011 0 0 1 2.282 2.046v.472l-.315.472h-3.462c0 1.18.472 1.888 1.731 1.888a4.758 4.758 0 0 0 1.731-.315v.629a3.593 3.593 0 0 1-2.439.945zm-1.1-3.7h1.967v-.393c0-.787-.315-1.338-.865-1.338-.632.002-.946.71-1.104 1.733z" transform="translate(-96.902 -30.6)"/><path id="iPath_1539" data-name="Path 1539" class="icls-1" d="M123.218 33.947v1.574c0 .315.079.472.315.551a.59.59 0 0 0 .393.079v.472H120.7v-.473a1 1 0 0 0 .472-.079c.236-.079.315-.236.315-.551V31.9c0-.315-.079-.472-.315-.551a1 1 0 0 0-.472-.079v-.47h3.226v.472a1.6 1.6 0 0 0-.393.079c-.236.079-.315.236-.315.551V33.4h2.124v-1.5c0-.315-.079-.472-.315-.551a.852.852 0 0 0-.472-.079v-.47h3.226v.472a.852.852 0 0 0-.472.079.566.566 0 0 0-.315.551v3.619c0 .315.079.472.315.551a2.782 2.782 0 0 0 .472.079v.472h-3.226v-.473a1 1 0 0 0 .472-.079.566.566 0 0 0 .315-.551v-1.573z" transform="translate(-98.906 -30.643)"/><path id="iPath_1540" data-name="Path 1540" class="icls-1" d="M134.167 31.329c-1.023 0-1.338.551-1.574 1.495h-.393V30.7h5.98v2.124h-.393c-.315-1.023-.551-1.495-1.574-1.495h-.236v4.091c0 .315.079.472.315.551.079.079.236.079.472.079v.472h-3.226v-.472a1 1 0 0 0 .472-.079c.236-.079.315-.236.315-.551v-4.091z" transform="translate(-101.357 -30.621)"/><path id="iPath_1541" data-name="Path 1541" class="icls-1" d="M144.854 36.737A2.584 2.584 0 0 1 142.1 33.9a3.076 3.076 0 0 1 3.226-3.3c1.338 0 2.046.551 2.046 1.18a.809.809 0 0 1-.787.865c-1.023 0-.629-1.416-1.652-1.416-.787 0-1.1.944-1.1 2.124 0 1.259.472 2.124 1.731 2.124a4.66 4.66 0 0 0 1.652-.315v.629a3.252 3.252 0 0 1-2.362.946z" transform="translate(-103.468 -30.6)"/><path id="iPath_1542" data-name="Path 1542" class="icls-1" d="M153.067 31.329c-1.023 0-1.338.551-1.574 1.495h-.393V30.7h5.98v2.124h-.393c-.315-1.023-.551-1.495-1.574-1.495h-.157v4.091c0 .315.079.472.315.551.079.079.236.079.472.079v.472h-3.226v-.472a1 1 0 0 0 .472-.079c.236-.079.315-.236.315-.551v-4.091z" transform="translate(-105.387 -30.621)"/><path id="iPath_1543" data-name="Path 1543" class="icls-1" d="M161.372 31.351a1 1 0 0 0-.472-.079V30.8h3.541c1.416 0 2.36.472 2.36 1.416 0 .787-.629 1.259-1.574 1.416 1.1.079 1.731.472 1.731 1.259 0 1.18-.865 1.652-2.518 1.652h-3.462v-.472a1 1 0 0 0 .472-.079c.236-.079.315-.236.315-.551v-3.618c-.078-.236-.157-.394-.393-.472zM163.5 33.4h.315c.865 0 1.18-.315 1.18-1.023s-.315-1.023-1.18-1.023h-.315zm0 2.675h.472c.866 0 1.18-.315 1.18-1.1 0-.629-.315-1.023-1.18-1.023h-.472z" transform="translate(-107.476 -30.643)"/><path id="iPath_1544" data-name="Path 1544" class="icls-1" d="M174.211 36.737A2.7 2.7 0 0 1 171.3 33.9a3.159 3.159 0 0 1 3.383-3.3 2.584 2.584 0 0 1 2.832 2.754 3.246 3.246 0 0 1-3.304 3.383zm.079-5.429c-.866 0-1.1.865-1.1 2.2 0 1.495.315 2.6 1.259 2.6.787 0 1.1-.787 1.1-2.282s-.315-2.518-1.259-2.518z" transform="translate(-109.693 -30.6)"/></g></g></g></symbol><symbol viewBox="0 0 12 20" id="n-left-arrow" xmlns="http://www.w3.org/2000/svg"><defs><path id="ja" d="M53.09 629.83l-9.1-9.1 9.1-9.09"/></defs><use fill-opacity="0" stroke-miterlimit="50" stroke-width="2" xlink:href="#ja" transform="translate(-42 -611)"/></symbol><symbol viewBox="0 0 12 20" id="n-right-arrow" xmlns="http://www.w3.org/2000/svg"><defs><path id="ka" d="M1225.91 613.17l9.1 9.1-9.1 9.09"/></defs><use fill-opacity="0" stroke-miterlimit="50" stroke-width="2" xlink:href="#ka" transform="translate(-1225 -612)"/></symbol><symbol viewBox="0 0 286 118" id="nopage-m" xmlns="http://www.w3.org/2000/svg"><defs><path id="la" d="M30.35 124.72h-4.6l1.1-5.96h4.6zm-6.84 11.66l1.52-8.1h4.65l-1.57 8.1h4.31l1.57-8.1h4.4v-3.56h-3.73l1.1-5.96h4.44v-3.59h-3.76l1.56-8.11h-4.31l-1.56 8.11h-4.6l1.55-8.11h-4.3l-1.57 8.11h-4.4v3.6h3.73l-1.1 5.95H17v3.55h3.76l-1.56 8.11z"/><path id="lb" d="M259.43 141.26l-33.55 40.43h33.55zm-46.72 55.56v-11.09l57.5-69.17h11.98v65.13h20.36l.45 1.5-4.8 13.63h-16v27.7h-22.76v-27.7zm-53.9-73.68c-12.74 0-16.48 15.73-16.48 34.9 0 22.15 4.5 39.97 17.67 39.97 14.52 0 17.52-20.21 17.52-34.29 0-19.91-4.04-40.58-18.72-40.58zm-1.2 82.51c-20.37 0-40.44-13.03-40.44-42.68 0-29.94 21.12-47.16 43.88-47.16 21.56 0 41.63 14.37 41.63 42.22 0 28-20.97 47.62-45.08 47.62zm-93.9-64.39L30.19 181.7h33.54zM17 196.82v-11.09l57.5-69.17h11.98v65.13h20.36l.45 1.5-4.79 13.63H86.48v27.7H63.72v-27.7z"/></defs><use fill="#fff" xlink:href="#la" transform="translate(-17 -107)"/><use fill="#fff" xlink:href="#lb" transform="translate(-17 -107)"/></symbol><symbol viewBox="0 0 31 42" id="play-button" xmlns="http://www.w3.org/2000/svg"><defs><path id="ma" d="M379.57 1699.18l-29-20a1 1 0 0 0-1.57.82v40a1 1 0 0 0 1.57.82l29-20a1 1 0 0 0 0-1.64z"/></defs><use xlink:href="#ma" transform="translate(-349 -1679)"/></symbol><symbol viewBox="0 0 86.498 38.081" id="research-logo" xmlns="http://www.w3.org/2000/svg"><defs><style/></defs><g id="nGroup_122" data-name="Group 122" transform="translate(-1091 -1323)"><text id="n_" data-name=" " class="ncls-1" transform="translate(1091 1334)"><tspan x="0" y="0"> </tspan></text><g id="nGroup_117" data-name="Group 117" class="ncls-2" transform="translate(557 -32.787)"><path id="nPath_1487" data-name="Path 1487" class="ncls-3" d="M8.751 0A8.723 8.723 0 0 1 0 0v13.008c0 5.881 8.751 8.94 8.751 8.94s8.751-3.059 8.751-8.94V0a8.723 8.723 0 0 1-8.751 0zm7.221 13.039c0 3.39-3.753 6.133-7.221 7.411-3.469-1.277-7.221-4.021-7.221-7.411V2.113a10.236 10.236 0 0 0 7.221-.583 10.315 10.315 0 0 0 7.221.583z" transform="translate(534 1371.92)"/><path id="nPath_1488" data-name="Path 1488" class="ncls-3" d="M21.9 37.535l1.246-.5-.773-1.845H24.5v1.84h1.34v-1.845h2.144l-.774 1.845 1.246.5.773-1.829 1.624 1.624v-7.3L27.3 33.577 25.176 28.5l-2.129 5.077-3.547-3.548v7.3l1.624-1.624z" transform="translate(517.575 1347.915)"/><path id="nPath_1489" data-name="Path 1489" class="ncls-3" d="M171.3 39.272a2.108 2.108 0 0 0-2.239-2.334c-1.561 0-2.491 1.072-2.491 2.807a2.476 2.476 0 0 0 2.743 2.665 4.5 4.5 0 0 0 1.75-.315v-1.073a4.431 4.431 0 0 1-1.451.268c-.93 0-1.451-.394-1.529-1.214h3.185a7 7 0 0 0 .032-.804zm-3.216-.11c.079-.773.394-1.135.962-1.135.552 0 .867.378.851 1.135zm-11.21-2.223a1.75 1.75 0 0 0-1.561.82c-.095-.552-.426-.82-1.072-.82a2.439 2.439 0 0 0-.773.11v.962h.095c.315 0 .473.079.473.394v6.165h1.514V42a1.92 1.92 0 0 0 1.246.41c1.545 0 2.239-1.277 2.239-2.822-.015-1.435-.583-2.65-2.16-2.65zm-.489 4.273a1.443 1.443 0 0 1-.867-.3v-2.239a1.037 1.037 0 0 1 .883-.473c.725 0 1.041.552 1.041 1.451.017.993-.393 1.56-1.056 1.56zm9.3-4.273a.963.963 0 0 1 .52.11v1.277a2.023 2.023 0 0 0-.583-.079 1.186 1.186 0 0 0-1.009.457V42.3H163.1v-3.879c0-.315-.142-.394-.473-.394h-.095v-.962a2.439 2.439 0 0 1 .773-.11.937.937 0 0 1 1.088.82 1.553 1.553 0 0 1 1.296-.837zm-4.84-.773a.752.752 0 0 1-.82-.788.821.821 0 0 1 1.64-.016.756.756 0 0 1-.816.804zm.851 1.908v4.21h-1.514v-3.863c0-.3-.126-.378-.441-.394h-.126v-.962a3.651 3.651 0 0 1 .93-.11c.792-.017 1.155.345 1.155 1.119zm-22.2-3.059h4.383v1.356h-2.838v1.592h2.334v1.293h-2.334v1.687h2.838V42.3H139.5zm13.165 3.894V42.3h-1.514v-3.2c0-.5-.173-.867-.71-.867a1 1 0 0 0-.82.457 4.148 4.148 0 0 1 .032.441v3.153h-1.5V39.1c0-.5-.158-.867-.71-.867a1.085 1.085 0 0 0-.8.394V42.3h-1.514v-3.879c0-.315-.142-.378-.426-.394h-.126v-.962a2.439 2.439 0 0 1 .773-.11c.646 0 .993.252 1.072.82a1.693 1.693 0 0 1 1.5-.82 1.569 1.569 0 0 1 1.482.773 1.839 1.839 0 0 1 1.5-.773c1.182-.017 1.765.788 1.765 1.954zm23.939-3.894h-2.129V42.3h2.129a3.3 3.3 0 0 0 3.563-3.642 3.3 3.3 0 0 0-3.563-3.643zm.063 5.9H176V36.4h.662c1.183 0 1.908.773 1.908 2.255s-.725 2.257-1.907 2.257zm13.828-6.323a.733.733 0 0 1 .82.773.82.82 0 0 1-1.64.016.738.738 0 0 1 .82-.792zM188.8 37l-1.608.142a3.042 3.042 0 0 0-1.135-.2c-1.451 0-2.223.836-2.223 1.813a1.671 1.671 0 0 0 .9 1.5 1.1 1.1 0 0 0-.662.946.929.929 0 0 0 .441.82 1.251 1.251 0 0 0-.8 1.135c0 .836.725 1.5 2.381 1.5 1.451 0 2.6-.725 2.6-1.908a1.408 1.408 0 0 0-1.246-1.419 5.474 5.474 0 0 0-1.183-.173c-.568-.032-.9-.11-.9-.378a.375.375 0 0 1 .189-.3 2.658 2.658 0 0 0 .52.047c1.293 0 2.192-.757 2.192-1.766a1.649 1.649 0 0 0-.2-.8h.725V37zm-2.586 5.329c.725.047 1.167.142 1.167.615 0 .426-.489.71-1.167.71-.836 0-1.214-.315-1.214-.757a.689.689 0 0 1 .378-.646 6.839 6.839 0 0 0 .84.08zm-.142-2.712a.808.808 0 0 1-.836-.883.829.829 0 1 1 1.656 0 .813.813 0 0 1-.816.885zm5.266-1.545v4.21h-1.514v-3.861c0-.3-.126-.378-.441-.394h-.126v-.962a3.651 3.651 0 0 1 .93-.11.985.985 0 0 1 1.155 1.119zM204 41.274V42.3a2.322 2.322 0 0 1-.773.11c-.93 0-1.34-.536-1.34-1.529V35.9c0-.3-.126-.378-.394-.394a.536.536 0 0 0-.158-.016v-.962a3.127 3.127 0 0 1 .9-.126c.788 0 1.151.347 1.151 1.072v5.172c0 .473.126.615.473.615H204zm-2.98.063c-.3 0-.473-.079-.473-.41v-2.018c0-1.356-.694-1.955-2.381-1.955a5.787 5.787 0 0 0-1.75.268v1.1a5.943 5.943 0 0 1 1.561-.237c.82 0 1.072.3 1.072.914v.126l-.93.016c-1.324.032-2.129.631-2.129 1.687a1.53 1.53 0 0 0 1.7 1.592 1.955 1.955 0 0 0 1.592-.82.939.939 0 0 0 1.088.82 2.516 2.516 0 0 0 .757-.11v-.962h-.11zm-1.971-.489a1.166 1.166 0 0 1-.946.441.557.557 0 0 1-.631-.568c0-.426.284-.662 1.025-.694l.552-.016zm-4.714-3.8h1.135v1.167h-1.135v2.255c0 .52.221.757.725.757a1.662 1.662 0 0 0 .394-.047v1.1a3 3 0 0 1-.867.11c-1.2 0-1.766-.631-1.766-1.908v-2.27h-.694v-1.163h.694v-1.2l1.5-.173v1.372zm-12.3-2.46a.733.733 0 0 1 .82.773.82.82 0 0 1-1.64.016.73.73 0 0 1 .824-.788zm.836 3.485v4.21h-1.514v-3.862c0-.3-.126-.378-.441-.394h-.126v-.962a3.651 3.651 0 0 1 .93-.11c.792-.017 1.155.345 1.155 1.119z" transform="translate(416.495 1342.945)"/></g></g></symbol><symbol viewBox="0 0 13 15" id="skrep" xmlns="http://www.w3.org/2000/svg"><defs><path id="oa" d="M746.16 2915.88a.49.49 0 0 0-.7-.7l-2.58 2.6a2.28 2.28 0 0 0-.68 1.62 2.3 2.3 0 0 0 3.94 1.63l5.84-5.83a3.2 3.2 0 0 0 0-4.55 3.22 3.22 0 0 0-4.56 0l-5.83 5.82a4.11 4.11 0 0 0 0 5.87 4.11 4.11 0 0 0 5.86 0l2.59-2.59a.49.49 0 0 0-.7-.7l-2.58 2.6a3.16 3.16 0 0 1-4.48 0 3.16 3.16 0 0 1 0-4.49l5.83-5.82a2.25 2.25 0 0 1 3.17 3.17l-5.84 5.84c-.51.5-1.36.5-1.88 0a1.33 1.33 0 0 1 0-1.89l2.6-2.58z"/></defs><use xlink:href="#oa" transform="translate(-740 -2909)"/></symbol><symbol viewBox="0 0 22.602 18.359" id="twit" xmlns="http://www.w3.org/2000/svg"><defs><style>.pcls-1{fill:#999}</style></defs><path id="pPath_37" data-name="Path 37" class="pcls-1" d="M22.6 59.613a9.259 9.259 0 0 1-2.662.73 4.656 4.656 0 0 0 2.038-2.563 9.347 9.347 0 0 1-2.946 1.126 4.64 4.64 0 0 0-7.9 4.227 13.163 13.163 0 0 1-9.556-4.844 4.642 4.642 0 0 0 1.435 6.189 4.637 4.637 0 0 1-2.1-.582v.058a4.641 4.641 0 0 0 3.72 4.546 4.7 4.7 0 0 1-1.222.162 4.45 4.45 0 0 1-.873-.086 4.639 4.639 0 0 0 4.33 3.22 9.3 9.3 0 0 1-5.758 1.981A9.854 9.854 0 0 1 0 73.714 13.106 13.106 0 0 0 7.108 75.8 13.1 13.1 0 0 0 20.3 62.609l-.016-.6a9.259 9.259 0 0 0 2.316-2.396z" transform="translate(-.001 -57.441)"/></symbol><symbol viewBox="0 0 21.855 12.469" id="vk" xmlns="http://www.w3.org/2000/svg"><defs><style>.qcls-1{fill:#999}</style></defs><path id="qPath_35" data-name="Path 35" class="qcls-1" d="M21.739 129.009a1.5 1.5 0 0 0-.074-.142 11.327 11.327 0 0 0-2.173-2.515l-.023-.023-.011-.011-.011-.011h-.011q-.728-.694-.922-.933a.876.876 0 0 1-.16-.922 8.592 8.592 0 0 1 1.024-1.49q.467-.6.74-.967 1.969-2.617 1.707-3.345l-.068-.113a.666.666 0 0 0-.353-.188 1.792 1.792 0 0 0-.728-.028l-3.277.023a.425.425 0 0 0-.228.006l-.148.034-.057.029-.045.034a.506.506 0 0 0-.125.119.781.781 0 0 0-.114.2 18.58 18.58 0 0 1-1.218 2.56q-.421.706-.774 1.223a5.885 5.885 0 0 1-.592.762 4.128 4.128 0 0 1-.433.393q-.194.148-.3.125l-.194-.046a.757.757 0 0 1-.256-.279 1.248 1.248 0 0 1-.131-.444q-.034-.268-.04-.461t.006-.546q.012-.353.011-.478 0-.432.017-.939t.029-.8q.012-.3.011-.626a2.629 2.629 0 0 0-.04-.518 1.771 1.771 0 0 0-.119-.364.613.613 0 0 0-.233-.273 1.315 1.315 0 0 0-.381-.154 7.572 7.572 0 0 0-1.536-.148 7.465 7.465 0 0 0-2.72.273 1.533 1.533 0 0 0-.432.341q-.2.25-.057.273a1.4 1.4 0 0 1 .967.489l.068.137a2.177 2.177 0 0 1 .159.523 5.281 5.281 0 0 1 .1.83 8.858 8.858 0 0 1 0 1.422q-.057.592-.108.922a1.846 1.846 0 0 1-.154.535 2.257 2.257 0 0 1-.137.25.2.2 0 0 1-.057.057.852.852 0 0 1-.307.057.721.721 0 0 1-.387-.159 2.73 2.73 0 0 1-.472-.438 5.856 5.856 0 0 1-.552-.779q-.307-.5-.637-1.183l-.182-.33q-.171-.319-.466-.927t-.523-1.178a.75.75 0 0 0-.273-.364l-.057-.034a.779.779 0 0 0-.182-.1 1.207 1.207 0 0 0-.262-.074l-3.118.023a.792.792 0 0 0-.649.216l-.046.068a.368.368 0 0 0-.034.182.906.906 0 0 0 .068.307q.683 1.6 1.485 3.1t1.394 2.4q.592.91 1.206 1.718t.814 1.035q.2.228.313.341l.285.273a6.751 6.751 0 0 0 .8.654 13.684 13.684 0 0 0 1.172.751 6.357 6.357 0 0 0 1.5.6 5.173 5.173 0 0 0 1.661.188H12a.906.906 0 0 0 .6-.25l.045-.057a.754.754 0 0 0 .085-.21 1.156 1.156 0 0 0 .04-.313 3.749 3.749 0 0 1 .074-.882 2.319 2.319 0 0 1 .194-.592 1.454 1.454 0 0 1 .245-.335.989.989 0 0 1 .194-.165.745.745 0 0 1 .091-.04.722.722 0 0 1 .643.177 3.777 3.777 0 0 1 .694.66q.324.393.779.882a5.356 5.356 0 0 0 .8.728l.227.137a2.771 2.771 0 0 0 .592.25 1.276 1.276 0 0 0 .637.057l2.913-.045a1.32 1.32 0 0 0 .671-.142.564.564 0 0 0 .285-.313.881.881 0 0 0 .006-.387 1.428 1.428 0 0 0-.076-.303z" transform="translate(0 -117.748)"/></symbol><symbol viewBox="0 0 80 179" id="zn-home" xmlns="http://www.w3.org/2000/svg"><defs><style>.rcls-1{fill:#fff;font-size:134px;font-family:SegoeUI,Segoe UI}</style></defs><text id="r_" data-name="#" class="rcls-1" transform="translate(0 145)"><tspan x="0" y="0">#</tspan></text></symbol></svg>
